<svg width="142" height="135" viewBox="0 0 142 135" fill="none" xmlns="http://www.w3.org/2000/svg">
<g id="Calque_1">
<path id="Vector" d="M15.1946 80.5613C22.1272 80.996 26.8046 84.0132 30.9 89.3578C31.0171 87.8902 31.122 87.2991 31.1099 86.7079C31.0368 82.1609 31.9893 78.0081 35.3859 74.6717C36.4688 73.6093 37.1573 72.3389 34.9271 71.8492C30.1423 70.796 26.1475 68.4887 22.9455 64.7881C22.8022 64.6273 22.5229 64.5902 21.6561 64.2235C21.8974 70.3794 19.4359 75.3873 15.1946 80.5613Z" fill="#EE7748"/>
<path id="Vector_2" d="M82.2662 46.9778C86.6853 47.3445 90.3794 49.6438 93.6217 53.1915C93.683 48.3406 94.8671 44.0932 98.3044 41.1037C94.3087 38.8818 90.4957 36.7533 87.0327 34.8277C85.617 38.4357 84.017 42.5039 82.2662 46.9778Z" fill="#EE7748"/>
</g>
</svg>
