<svg width="269" height="79" viewBox="0 0 269 79" fill="none" xmlns="http://www.w3.org/2000/svg">
<g clip-path="url(#clip0_194_346)">
<path d="M149.338 0L241.485 18.5734C256.644 21.6289 266.456 36.3948 263.4 51.5539V51.5539C260.345 66.713 245.579 76.5249 230.42 73.4694L138.273 54.8959L149.338 0Z" fill="#87DB61"/>
<path d="M154.348 26.4056C154.872 26.5111 155.36 26.7166 155.812 27.022C156.265 27.3275 156.604 27.7386 156.831 28.2555C157.063 28.7736 157.105 29.3974 156.958 30.1267L156.075 34.5115L152.943 33.8802L153.725 29.9983C153.814 29.5571 153.776 29.1976 153.612 28.9197C153.449 28.6358 153.191 28.4583 152.838 28.3872C152.609 28.341 152.382 28.3565 152.158 28.4339C151.935 28.5112 151.74 28.6433 151.573 28.8301C151.413 29.0181 151.305 29.2533 151.248 29.5356L150.472 33.3823L147.349 32.7528L148.809 25.5094L151.932 26.139L151.735 27.1183C151.851 26.9396 152.038 26.7845 152.297 26.6531C152.557 26.5158 152.867 26.4222 153.226 26.3721C153.586 26.3162 153.96 26.3273 154.348 26.4056ZM160.495 35.6229C159.778 35.4783 159.199 35.1779 158.758 34.7219C158.318 34.2658 158.015 33.7182 157.85 33.079C157.691 32.441 157.68 31.7809 157.818 31.0986C157.955 30.4163 158.221 29.8119 158.615 29.2853C159.014 28.7599 159.505 28.3724 160.088 28.1226C160.672 27.867 161.323 27.8115 162.041 27.9561C162.476 28.0438 162.851 28.1868 163.166 28.3849C163.482 28.5772 163.728 28.7858 163.903 29.0109C164.085 29.2312 164.19 29.4267 164.216 29.5973L165.394 23.7568L168.508 24.3845L166.061 36.5244L162.973 35.902L163.192 34.8168C163.01 35.0189 162.773 35.1945 162.48 35.3435C162.194 35.4878 161.877 35.5861 161.53 35.6386C161.187 35.6981 160.842 35.6928 160.495 35.6229ZM161.981 33.3976C162.258 33.4534 162.514 33.4408 162.751 33.36C162.988 33.2791 163.186 33.1447 163.346 32.9567C163.514 32.7639 163.624 32.5382 163.676 32.2794C163.728 32.0206 163.714 31.7729 163.633 31.5362C163.559 31.2949 163.429 31.0911 163.242 30.9249C163.056 30.7529 162.825 30.639 162.549 30.5832C162.284 30.5299 162.033 30.5466 161.795 30.6333C161.558 30.7141 161.356 30.8509 161.189 31.0436C161.029 31.2317 160.922 31.4551 160.87 31.7139C160.818 31.9727 160.829 32.2227 160.903 32.4641C160.983 32.7007 161.117 32.9021 161.304 33.0683C161.491 33.2345 161.717 33.3443 161.981 33.3976ZM170.762 34.3596C170.747 34.5584 170.789 34.7444 170.888 34.9176C170.995 35.086 171.149 35.2333 171.35 35.3595C171.558 35.481 171.812 35.572 172.112 35.6325C172.406 35.6917 172.687 35.7269 172.954 35.7379C173.222 35.743 173.464 35.7275 173.68 35.6913C173.901 35.6563 174.08 35.6037 174.216 35.5333L174.981 37.7072C174.829 37.7929 174.611 37.8714 174.327 37.9427C174.044 38.0141 173.667 38.0482 173.196 38.0452C172.731 38.0433 172.149 37.9718 171.449 37.8307C170.637 37.6671 169.937 37.376 169.348 36.9574C168.759 36.5388 168.335 36.0033 168.074 35.3511C167.815 34.6929 167.773 33.9286 167.949 33.0581C168.091 32.3523 168.378 31.749 168.809 31.2484C169.242 30.7419 169.791 30.3844 170.458 30.176C171.125 29.9617 171.885 29.9404 172.738 30.1123C173.556 30.2771 174.236 30.5641 174.777 30.9732C175.32 31.3765 175.696 31.8989 175.903 32.5405C176.11 33.1821 176.125 33.9441 175.947 34.8263C175.938 34.8734 175.916 34.9669 175.881 35.1069C175.853 35.248 175.829 35.338 175.809 35.3768L170.762 34.3596ZM173.182 33.3783C173.215 33.1831 173.206 33.0007 173.154 32.8311C173.109 32.6628 173.021 32.5197 172.892 32.4018C172.763 32.284 172.592 32.2037 172.38 32.161C172.175 32.1195 171.984 32.124 171.809 32.1743C171.633 32.2246 171.486 32.3174 171.367 32.4525C171.249 32.5818 171.163 32.7511 171.108 32.9604L173.182 33.3783ZM179.323 39.1975L176.2 38.568L177.66 31.3247L180.783 31.9542L180.568 33.0217L180.524 33.0128C180.609 32.8953 180.76 32.7543 180.976 32.5899C181.199 32.4267 181.488 32.2983 181.843 32.2047C182.206 32.1064 182.631 32.1064 183.12 32.2048C183.449 32.2712 183.75 32.387 184.023 32.5521C184.296 32.7173 184.489 32.8635 184.605 32.9907L182.894 35.281C182.84 35.1538 182.719 35.013 182.53 34.8586C182.342 34.6983 182.092 34.5867 181.78 34.5238C181.427 34.4527 181.126 34.4746 180.876 34.5896C180.634 34.6998 180.442 34.8601 180.302 35.0706C180.161 35.281 180.07 35.4921 180.027 35.7038L179.323 39.1975Z" fill="#0D1710"/>
<path d="M194.922 30.2705L195.249 30.3363V30.3363C195.319 30.3505 195.355 30.3576 195.386 30.3649C196.246 30.5671 196.872 31.31 196.925 32.1921C196.926 32.224 196.927 32.2599 196.929 32.3317L196.94 32.7174M196.94 32.7174L197.06 37.012C197.085 37.9205 197.098 38.3748 197.269 38.7462C197.42 39.0737 197.656 39.3545 197.953 39.5587C198.29 39.7902 198.736 39.88 199.627 40.0596L203.293 40.7986C204.13 40.9674 204.549 41.0518 204.931 40.9804C205.268 40.9173 205.583 40.7686 205.847 40.5485C206.145 40.2991 206.346 39.9223 206.748 39.1687L207.554 37.6584C208.012 36.8011 208.241 36.3725 208.215 35.9909C208.192 35.6568 208.044 35.3435 207.801 35.1133C207.523 34.8505 207.047 34.7545 206.094 34.5625L196.94 32.7174ZM201.706 40.4787L196.478 39.4249C195.756 39.2793 195.053 39.7466 194.907 40.4684V40.4684C194.762 41.1903 195.229 41.8934 195.951 42.0389L205.753 44.0148M198.955 44.0046C198.809 44.7265 198.106 45.1937 197.384 45.0482C196.662 44.9027 196.195 44.1996 196.341 43.4777C196.486 42.7559 197.189 42.2886 197.911 42.4341C198.633 42.5796 199.1 43.2828 198.955 44.0046ZM204.183 45.0584C204.037 45.7803 203.334 46.2475 202.612 46.102C201.891 45.9565 201.423 45.2534 201.569 44.5315C201.714 43.8097 202.418 43.3424 203.139 43.4879C203.861 43.6334 204.328 44.3366 204.183 45.0584Z" stroke="#0D1710" stroke-linecap="round" stroke-linejoin="round"/>
<path d="M156.872 10.6997L149.437 -0.490139L145.683 18.1353L141.928 36.7607L138.174 55.3861L149.364 47.9505L141.928 36.7607L153.118 29.3251L145.683 18.1353L156.872 10.6997Z" fill="#203726"/>
</g>
<path d="M1.31338 33.7211C0.588021 18.2742 12.5222 5.16393 27.9692 4.43857L115.872 0.310796L118.499 56.2492L30.5959 60.3769C15.149 61.1023 2.03874 49.1681 1.31338 33.7211V33.7211Z" fill="#87DB61"/>
<path d="M55.4754 32.7905C55.9488 32.7683 56.392 32.6754 56.8047 32.5119C57.2175 32.3483 57.5314 32.1894 57.7464 32.0352L59.2015 34.6248C58.9311 34.8777 58.457 35.1433 57.7793 35.4214C57.1076 35.6992 56.3042 35.86 55.3693 35.9039C54.4942 35.945 53.663 35.8309 52.8755 35.5615C52.088 35.2922 51.3816 34.8959 50.7564 34.3726C50.1371 33.8491 49.6423 33.2236 49.2717 32.4962C48.9009 31.7628 48.6948 30.9556 48.6534 30.0745C48.6121 29.1935 48.7416 28.3705 49.0421 27.6056C49.3422 26.8347 49.776 26.1596 50.3435 25.5803C50.9107 24.9951 51.5737 24.5315 52.3325 24.1895C53.097 23.8413 53.9167 23.6466 54.7918 23.6055C55.7267 23.5616 56.5416 23.6465 57.2364 23.8601C57.9372 24.0735 58.434 24.2934 58.727 24.5199L57.521 27.2345C57.2925 27.101 56.9651 26.9723 56.5388 26.8481C56.1125 26.724 55.6626 26.673 55.1891 26.6953C54.6018 26.7228 54.1024 26.8334 53.691 27.0269C53.2857 27.2201 52.958 27.4698 52.7081 27.7758C52.4582 28.0819 52.2787 28.4177 52.1697 28.7832C52.0668 29.1484 52.024 29.5168 52.0414 29.8884C52.0592 30.266 52.1366 30.6348 52.2736 30.9948C52.4163 31.3484 52.6265 31.6659 52.904 31.9472C53.1815 32.2285 53.5311 32.4464 53.9528 32.6008C54.3805 32.7549 54.888 32.8181 55.4754 32.7905ZM64.7354 35.4641C63.9083 35.503 63.1664 35.3726 62.5096 35.0731C61.8528 34.7736 61.328 34.3417 60.9351 33.7775C60.5419 33.2073 60.3275 32.5417 60.2917 31.7805C60.256 31.0194 60.4071 30.3365 60.7451 29.732C61.0829 29.1215 61.5645 28.6333 62.19 28.2676C62.8153 27.8959 63.5415 27.6906 64.3686 27.6517C65.1897 27.6132 65.9229 27.7499 66.5682 28.062C67.2193 28.3678 67.7355 28.8091 68.117 29.3858C68.5042 29.9563 68.7157 30.6221 68.7514 31.3833C68.7872 32.1444 68.639 32.8271 68.307 33.4314C67.9807 34.0293 67.5076 34.508 66.8878 34.8675C66.274 35.2267 65.5565 35.4256 64.7354 35.4641ZM64.6134 32.866C64.8591 32.8545 65.0695 32.7935 65.2445 32.6832C65.4193 32.5669 65.5499 32.4076 65.6365 32.2053C65.7231 32.003 65.7603 31.77 65.7479 31.5063C65.7358 31.2486 65.6771 31.0231 65.572 30.8298C65.4668 30.6365 65.3217 30.4902 65.1369 30.3907C64.9517 30.2853 64.7363 30.2383 64.4906 30.2499C64.2388 30.2617 64.0257 30.3288 63.8513 30.4511C63.6766 30.5674 63.5429 30.7269 63.4503 30.9294C63.3577 31.132 63.3174 31.3621 63.3295 31.6198C63.3419 31.8836 63.4037 32.1119 63.5149 32.3049C63.6261 32.4979 63.7741 32.6441 63.9589 32.7436C64.1435 32.837 64.3617 32.8778 64.6134 32.866ZM80.5141 26.8936C81.0774 26.8671 81.5832 26.9575 82.0314 27.1647C82.4857 27.3716 82.8499 27.7089 83.1241 28.1766C83.4041 28.6379 83.5618 29.2462 83.5972 30.0014L83.8016 34.3526L80.673 34.4995L80.4898 30.5978C80.4706 30.1902 80.3885 29.8487 80.2435 29.5732C80.1044 29.2974 79.8281 29.1693 79.4145 29.1887C79.1508 29.2011 78.9321 29.2774 78.7585 29.4177C78.5849 29.558 78.4584 29.7411 78.3789 29.9671C78.3051 30.1868 78.2745 30.4315 78.2872 30.7012L78.4704 34.6029L75.5576 34.7397L75.3744 30.838C75.3553 30.4304 75.2732 30.0889 75.1281 29.8134C74.989 29.5376 74.7157 29.4093 74.3081 29.4285C74.0444 29.4408 73.8258 29.5172 73.6522 29.6575C73.4783 29.7918 73.3516 29.9719 73.2721 30.1979C73.1923 30.4179 73.1589 30.6657 73.1719 30.9414L73.3551 34.8431L70.1995 34.9913L69.853 27.6104L73.0085 27.4623L73.0566 28.4871C73.1198 28.298 73.2728 28.1016 73.5155 27.898C73.7642 27.6941 74.0654 27.5208 74.4191 27.378C74.7785 27.229 75.156 27.1452 75.5515 27.1266C75.989 27.1061 76.3542 27.143 76.6469 27.2373C76.9457 27.3314 77.1956 27.4729 77.3967 27.6616C77.6037 27.8501 77.7792 28.0702 77.9232 28.3217C77.9978 28.12 78.1563 27.9143 78.3988 27.7047C78.6409 27.4891 78.9477 27.3065 79.3191 27.1569C79.6902 27.0013 80.0885 26.9136 80.5141 26.8936ZM95.4566 26.1919C96.02 26.1654 96.5258 26.2558 96.974 26.463C97.4282 26.6699 97.7924 27.0072 98.0666 27.4749C98.3466 27.9363 98.5043 28.5445 98.5398 29.2997L98.7441 33.6509L95.6155 33.7978L95.4323 29.8961C95.4132 29.4886 95.3311 29.147 95.186 28.8715C95.0469 28.5958 94.7706 28.4676 94.357 28.487C94.0933 28.4994 93.8747 28.5757 93.701 28.716C93.5274 28.8563 93.4009 29.0395 93.3214 29.2654C93.2476 29.4851 93.2171 29.7298 93.2297 29.9995L93.4129 33.9012L90.5002 34.038L90.3169 30.1363C90.2978 29.7288 90.2157 29.3873 90.0706 29.1118C89.9315 28.836 89.6582 28.7077 89.2507 28.7268C88.9869 28.7392 88.7683 28.8155 88.5947 28.9558C88.4208 29.0901 88.2941 29.2703 88.2146 29.4962C88.1348 29.7162 88.1014 29.9641 88.1144 30.2398L88.2976 34.1415L85.1421 34.2896L84.7955 26.9088L87.951 26.7606L87.9991 27.7855C88.0623 27.5963 88.2153 27.3999 88.458 27.1963C88.7067 26.9924 89.0079 26.8191 89.3616 26.6763C89.721 26.5273 90.0985 26.4435 90.494 26.4249C90.9316 26.4044 91.2967 26.4413 91.5894 26.5357C91.8882 26.6298 92.1381 26.7712 92.3392 26.96C92.5462 27.1485 92.7218 27.3685 92.8657 27.62C92.9403 27.4183 93.0989 27.2126 93.3413 27.003C93.5835 26.7874 93.8902 26.6048 94.2616 26.4552C94.6327 26.2997 95.031 26.2119 95.4566 26.1919ZM105.757 33.3216L105.705 32.2158C105.651 32.3325 105.524 32.5036 105.324 32.7292C105.124 32.9489 104.854 33.1537 104.515 33.3439C104.181 33.5277 103.784 33.6305 103.322 33.6522C102.591 33.6865 101.95 33.5364 101.4 33.2018C100.85 32.8673 100.414 32.4102 100.092 31.8307C99.7766 31.2508 99.6025 30.6133 99.5699 29.9181C99.5372 29.2228 99.6508 28.5718 99.9106 27.9649C100.176 27.3578 100.568 26.8619 101.084 26.4772C101.6 26.0866 102.224 25.8741 102.955 25.8398C103.393 25.8192 103.776 25.8673 104.106 25.9839C104.442 26.1003 104.719 26.2435 104.937 26.4134C105.162 26.5831 105.322 26.7467 105.42 26.9043L105.375 25.9424L108.539 25.7938L108.886 33.1747L105.757 33.3216ZM102.689 29.7716C102.702 30.0353 102.776 30.2751 102.912 30.4909C103.048 30.7008 103.227 30.8635 103.449 30.9793C103.671 31.095 103.919 31.1464 104.195 31.1335C104.471 31.1205 104.71 31.0462 104.914 30.9105C105.124 30.7745 105.284 30.5958 105.394 30.3744C105.509 30.1467 105.561 29.901 105.548 29.6373C105.536 29.3736 105.462 29.1368 105.326 28.927C105.195 28.7109 105.019 28.5449 104.798 28.4292C104.582 28.3072 104.336 28.2527 104.06 28.2656C103.785 28.2786 103.542 28.356 103.332 28.498C103.123 28.634 102.96 28.8158 102.844 29.0435C102.729 29.2652 102.677 29.5079 102.689 29.7716Z" fill="#0D1710"/>
<path d="M106.828 10.246L115.872 0.310797L116.764 19.2899L117.655 38.269L118.546 57.2481L108.611 48.2041L117.655 38.269L107.72 29.225L116.764 19.2899L106.828 10.246Z" fill="#203726"/>
<defs>
<clipPath id="clip0_194_346">
<path d="M149.338 0L241.485 18.5734C256.644 21.6289 266.456 36.3948 263.4 51.5539V51.5539C260.345 66.713 245.579 76.5249 230.42 73.4694L138.273 54.8959L149.338 0Z" fill="white"/>
</clipPath>
</defs>
</svg>
