<svg width="118" height="112" viewBox="0 0 118 112" fill="none" xmlns="http://www.w3.org/2000/svg">
<path d="M0 28C0 12.536 12.536 0 28 0H118V56H28C12.536 56 0 43.464 0 28Z" fill="#87DB61"/>
<path d="M55.146 29.611C55.62 29.611 56.067 29.539 56.487 29.395C56.907 29.251 57.228 29.107 57.45 28.963L58.782 31.618C58.5 31.858 58.014 32.101 57.324 32.347C56.64 32.593 55.83 32.716 54.894 32.716C54.018 32.716 53.193 32.563 52.419 32.257C51.645 31.951 50.958 31.522 50.358 30.97C49.764 30.418 49.299 29.77 48.963 29.026C48.627 28.276 48.459 27.46 48.459 26.578C48.459 25.696 48.627 24.88 48.963 24.13C49.299 23.374 49.764 22.72 50.358 22.168C50.952 21.61 51.636 21.178 52.41 20.872C53.19 20.56 54.018 20.404 54.894 20.404C55.83 20.404 56.64 20.527 57.324 20.773C58.014 21.019 58.5 21.262 58.782 21.502L57.45 24.157C57.228 24.013 56.907 23.869 56.487 23.725C56.067 23.581 55.62 23.509 55.146 23.509C54.558 23.509 54.054 23.596 53.634 23.77C53.22 23.944 52.881 24.178 52.617 24.472C52.353 24.766 52.158 25.093 52.032 25.453C51.912 25.813 51.852 26.179 51.852 26.551C51.852 26.929 51.912 27.301 52.032 27.667C52.158 28.027 52.353 28.354 52.617 28.648C52.881 28.942 53.22 29.176 53.634 29.35C54.054 29.524 54.558 29.611 55.146 29.611ZM64.2705 32.716C63.4425 32.716 62.7075 32.551 62.0655 32.221C61.4235 31.891 60.9195 31.435 60.5535 30.853C60.1875 30.265 60.0045 29.59 60.0045 28.828C60.0045 28.066 60.1875 27.391 60.5535 26.803C60.9195 26.209 61.4235 25.744 62.0655 25.408C62.7075 25.066 63.4425 24.895 64.2705 24.895C65.0925 24.895 65.8185 25.066 66.4485 25.408C67.0845 25.744 67.5795 26.209 67.9335 26.803C68.2935 27.391 68.4735 28.066 68.4735 28.828C68.4735 29.59 68.2935 30.265 67.9335 30.853C67.5795 31.435 67.0845 31.891 66.4485 32.221C65.8185 32.551 65.0925 32.716 64.2705 32.716ZM64.2705 30.115C64.5165 30.115 64.7295 30.064 64.9095 29.962C65.0895 29.854 65.2275 29.701 65.3235 29.503C65.4195 29.305 65.4675 29.074 65.4675 28.81C65.4675 28.552 65.4195 28.324 65.3235 28.126C65.2275 27.928 65.0895 27.775 64.9095 27.667C64.7295 27.553 64.5165 27.496 64.2705 27.496C64.0185 27.496 63.8025 27.553 63.6225 27.667C63.4425 27.775 63.3015 27.928 63.1995 28.126C63.0975 28.324 63.0465 28.552 63.0465 28.81C63.0465 29.074 63.0975 29.305 63.1995 29.503C63.3015 29.701 63.4425 29.854 63.6225 29.962C63.8025 30.064 64.0185 30.115 64.2705 30.115ZM80.4338 24.895C80.9978 24.895 81.4988 25.009 81.9368 25.237C82.3808 25.465 82.7288 25.819 82.9808 26.299C83.2388 26.773 83.3678 27.388 83.3678 28.144V32.5H80.2358V28.594C80.2358 28.186 80.1698 27.841 80.0378 27.559C79.9118 27.277 79.6418 27.136 79.2278 27.136C78.9638 27.136 78.7418 27.202 78.5618 27.334C78.3818 27.466 78.2468 27.643 78.1568 27.865C78.0728 28.081 78.0308 28.324 78.0308 28.594V32.5H75.1148V28.594C75.1148 28.186 75.0488 27.841 74.9168 27.559C74.7908 27.277 74.5238 27.136 74.1158 27.136C73.8518 27.136 73.6298 27.202 73.4498 27.334C73.2698 27.46 73.1348 27.634 73.0448 27.856C72.9548 28.072 72.9098 28.318 72.9098 28.594V32.5H69.7508V25.111H72.9098V26.137C72.9818 25.951 73.1438 25.762 73.3958 25.57C73.6538 25.378 73.9628 25.219 74.3228 25.093C74.6888 24.961 75.0698 24.895 75.4658 24.895C75.9038 24.895 76.2668 24.949 76.5548 25.057C76.8488 25.165 77.0918 25.318 77.2838 25.516C77.4818 25.714 77.6468 25.942 77.7788 26.2C77.8628 26.002 78.0308 25.804 78.2828 25.606C78.5348 25.402 78.8498 25.234 79.2278 25.102C79.6058 24.964 80.0078 24.895 80.4338 24.895ZM95.3927 24.895C95.9567 24.895 96.4577 25.009 96.8957 25.237C97.3397 25.465 97.6877 25.819 97.9397 26.299C98.1977 26.773 98.3267 27.388 98.3267 28.144V32.5H95.1947V28.594C95.1947 28.186 95.1287 27.841 94.9967 27.559C94.8707 27.277 94.6007 27.136 94.1867 27.136C93.9227 27.136 93.7007 27.202 93.5207 27.334C93.3407 27.466 93.2057 27.643 93.1157 27.865C93.0317 28.081 92.9897 28.324 92.9897 28.594V32.5H90.0737V28.594C90.0737 28.186 90.0077 27.841 89.8757 27.559C89.7497 27.277 89.4827 27.136 89.0747 27.136C88.8107 27.136 88.5887 27.202 88.4087 27.334C88.2287 27.46 88.0937 27.634 88.0037 27.856C87.9137 28.072 87.8687 28.318 87.8687 28.594V32.5H84.7097V25.111H87.8687V26.137C87.9407 25.951 88.1027 25.762 88.3547 25.57C88.6127 25.378 88.9217 25.219 89.2817 25.093C89.6477 24.961 90.0287 24.895 90.4247 24.895C90.8627 24.895 91.2257 24.949 91.5137 25.057C91.8077 25.165 92.0507 25.318 92.2427 25.516C92.4407 25.714 92.6057 25.942 92.7377 26.2C92.8217 26.002 92.9897 25.804 93.2417 25.606C93.4937 25.402 93.8087 25.234 94.1867 25.102C94.5647 24.964 94.9667 24.895 95.3927 24.895ZM105.348 32.5V31.393C105.288 31.507 105.153 31.672 104.943 31.888C104.733 32.098 104.454 32.29 104.106 32.464C103.764 32.632 103.362 32.716 102.9 32.716C102.168 32.716 101.535 32.536 101.001 32.176C100.467 31.816 100.053 31.339 99.7587 30.745C99.4707 30.151 99.3267 29.506 99.3267 28.81C99.3267 28.114 99.4707 27.469 99.7587 26.875C100.053 26.281 100.467 25.804 101.001 25.444C101.535 25.078 102.168 24.895 102.9 24.895C103.338 24.895 103.719 24.961 104.043 25.093C104.373 25.225 104.643 25.381 104.853 25.561C105.069 25.741 105.222 25.912 105.312 26.074V25.111H108.48V32.5H105.348ZM102.45 28.81C102.45 29.074 102.513 29.317 102.639 29.539C102.765 29.755 102.936 29.926 103.152 30.052C103.368 30.178 103.614 30.241 103.89 30.241C104.166 30.241 104.409 30.178 104.619 30.052C104.835 29.926 105.003 29.755 105.123 29.539C105.249 29.317 105.312 29.074 105.312 28.81C105.312 28.546 105.249 28.306 105.123 28.09C105.003 27.868 104.835 27.694 104.619 27.568C104.409 27.436 104.166 27.37 103.89 27.37C103.614 27.37 103.368 27.436 103.152 27.568C102.936 27.694 102.765 27.868 102.639 28.09C102.513 28.306 102.45 28.546 102.45 28.81Z" fill="#0D1710"/>
<path d="M0 56H90C105.464 56 118 68.536 118 84C118 99.464 105.464 112 90 112H0V56Z" fill="#87DB61"/>
<path d="M6.129 80.895C6.663 80.895 7.182 81 7.686 81.21C8.19 81.42 8.604 81.756 8.928 82.218C9.258 82.68 9.423 83.283 9.423 84.027V88.5H6.228V84.54C6.228 84.09 6.12 83.745 5.904 83.505C5.688 83.259 5.4 83.136 5.04 83.136C4.806 83.136 4.587 83.196 4.383 83.316C4.179 83.436 4.014 83.604 3.888 83.82C3.768 84.036 3.708 84.288 3.708 84.576V88.5H0.522V81.111H3.708V82.11C3.786 81.912 3.939 81.723 4.167 81.543C4.395 81.357 4.68 81.204 5.022 81.084C5.364 80.958 5.733 80.895 6.129 80.895ZM13.9762 88.716C13.2442 88.716 12.6172 88.536 12.0952 88.176C11.5732 87.816 11.1682 87.339 10.8802 86.745C10.5982 86.151 10.4572 85.506 10.4572 84.81C10.4572 84.114 10.5982 83.469 10.8802 82.875C11.1682 82.281 11.5732 81.804 12.0952 81.444C12.6172 81.078 13.2442 80.895 13.9762 80.895C14.4202 80.895 14.8162 80.961 15.1642 81.093C15.5122 81.219 15.7942 81.375 16.0102 81.561C16.2322 81.741 16.3732 81.912 16.4332 82.074V76.116H19.6102V88.5H16.4602V87.393C16.3222 87.627 16.1242 87.846 15.8662 88.05C15.6142 88.248 15.3232 88.407 14.9932 88.527C14.6692 88.653 14.3302 88.716 13.9762 88.716ZM14.9932 86.241C15.2752 86.241 15.5242 86.178 15.7402 86.052C15.9562 85.926 16.1242 85.755 16.2442 85.539C16.3702 85.317 16.4332 85.074 16.4332 84.81C16.4332 84.546 16.3702 84.306 16.2442 84.09C16.1242 83.868 15.9562 83.694 15.7402 83.568C15.5242 83.436 15.2752 83.37 14.9932 83.37C14.7232 83.37 14.4802 83.436 14.2642 83.568C14.0482 83.694 13.8772 83.868 13.7512 84.09C13.6312 84.306 13.5712 84.546 13.5712 84.81C13.5712 85.074 13.6312 85.317 13.7512 85.539C13.8772 85.755 14.0482 85.926 14.2642 86.052C14.4802 86.178 14.7232 86.241 14.9932 86.241ZM23.7909 85.449C23.8149 85.647 23.8929 85.821 24.0249 85.971C24.1629 86.115 24.3429 86.229 24.5649 86.313C24.7929 86.391 25.0599 86.43 25.3659 86.43C25.6659 86.43 25.9479 86.409 26.2119 86.367C26.4759 86.319 26.7099 86.256 26.9139 86.178C27.1239 86.1 27.2889 86.013 27.4089 85.917L28.5879 87.897C28.4559 88.011 28.2579 88.131 27.9939 88.257C27.7299 88.383 27.3669 88.491 26.9049 88.581C26.4489 88.671 25.8639 88.716 25.1499 88.716C24.3219 88.716 23.5779 88.569 22.9179 88.275C22.2579 87.981 21.7359 87.54 21.3519 86.952C20.9679 86.358 20.7759 85.617 20.7759 84.729C20.7759 84.009 20.9379 83.361 21.2619 82.785C21.5859 82.203 22.0539 81.744 22.6659 81.408C23.2779 81.066 24.0189 80.895 24.8889 80.895C25.7229 80.895 26.4459 81.042 27.0579 81.336C27.6699 81.624 28.1409 82.062 28.4709 82.65C28.8009 83.238 28.9659 83.982 28.9659 84.882C28.9659 84.93 28.9629 85.026 28.9569 85.17C28.9569 85.314 28.9509 85.407 28.9389 85.449H23.7909ZM25.9689 84.009C25.9629 83.811 25.9179 83.634 25.8339 83.478C25.7559 83.322 25.6419 83.199 25.4919 83.109C25.3419 83.019 25.1589 82.974 24.9429 82.974C24.7329 82.974 24.5469 83.016 24.3849 83.1C24.2229 83.184 24.0969 83.304 24.0069 83.46C23.9169 83.61 23.8659 83.793 23.8539 84.009H25.9689ZM33.139 88.5H29.953V81.111H33.139V82.2H33.094C33.154 82.068 33.274 81.9 33.454 81.696C33.64 81.492 33.898 81.309 34.228 81.147C34.564 80.979 34.981 80.895 35.479 80.895C35.815 80.895 36.133 80.949 36.433 81.057C36.733 81.165 36.952 81.27 37.09 81.372L35.866 83.955C35.788 83.841 35.641 83.727 35.425 83.613C35.209 83.493 34.942 83.433 34.624 83.433C34.264 83.433 33.973 83.514 33.751 83.676C33.535 83.832 33.379 84.027 33.283 84.261C33.187 84.495 33.139 84.72 33.139 84.936V88.5Z" fill="#0D1710"/>
<path d="M46.6665 76.6667L46.9998 76.6667V76.6667C47.0716 76.6667 47.1075 76.6667 47.1394 76.6677C48.0227 76.6959 48.7827 77.3006 49.0089 78.1549C49.0171 78.1858 49.0251 78.2208 49.0413 78.2907L49.128 78.6667M49.128 78.6667L50.0941 82.8529C50.2985 83.7385 50.4007 84.1814 50.6415 84.5117C50.8539 84.803 51.1411 85.0315 51.4728 85.173C51.8488 85.3334 52.3032 85.3334 53.2121 85.3334H56.9523C57.8066 85.3334 58.2337 85.3334 58.594 85.1879C58.9121 85.0594 59.1918 84.8513 59.4062 84.5836C59.6491 84.2803 59.7718 83.8711 60.0173 83.0529L60.5093 81.413C60.7885 80.4822 60.9281 80.0168 60.8271 79.648C60.7387 79.3249 60.5319 79.047 60.2479 78.8694C59.9236 78.6667 59.4377 78.6667 58.4659 78.6667H49.128ZM55.3332 85.3333H49.9998C49.2635 85.3333 48.6665 85.9303 48.6665 86.6667V86.6667C48.6665 87.403 49.2635 88 49.9998 88H59.9998M53.3332 89.3333C53.3332 90.0697 52.7362 90.6667 51.9998 90.6667C51.2635 90.6667 50.6665 90.0697 50.6665 89.3333C50.6665 88.5969 51.2635 88 51.9998 88C52.7362 88 53.3332 88.5969 53.3332 89.3333ZM58.6665 89.3333C58.6665 90.0697 58.0696 90.6667 57.3332 90.6667C56.5968 90.6667 55.9998 90.0697 55.9998 89.3333C55.9998 88.5969 56.5968 88 57.3332 88C58.0696 88 58.6665 88.5969 58.6665 89.3333Z" stroke="#0D1710" stroke-linecap="round" stroke-linejoin="round"/>
</svg>
