<svg width="172" height="228" viewBox="0 0 172 228" fill="none" xmlns="http://www.w3.org/2000/svg">
<path d="M88.0373 109.395C87.6452 110.618 87.191 111.851 86.6516 113.078C83.7155 119.756 78.8249 124.818 71.5035 127.322L88.0373 109.395ZM88.0373 109.395C89.4028 110.707 90.7905 111.95 92.0167 112.916L92.1357 113.01L92.2602 113.097C92.2638 113.099 92.2782 113.11 92.3023 113.129C92.539 113.312 93.7161 114.225 94.9024 114.868L94.9082 114.871C97.9728 116.528 101.41 117.66 105.075 117.89C109.41 118.167 114.165 117.283 118.177 113.345C123.863 107.777 123.916 101.247 122.863 95.674L122.86 95.6566L122.856 95.6392C122.731 94.9981 122.449 94.2866 122.338 94.0056L122.326 93.9771C122.146 93.5215 121.92 92.988 121.68 92.4516C121.267 91.5318 120.584 90.0841 119.913 89.1327L119.91 89.1288C117.896 86.279 115.534 83.9241 112.973 81.9249C116.012 80.0048 118.655 77.3913 120.638 73.878C122.737 70.1604 123.734 66.2542 123.437 62.2925C123.141 58.3457 121.59 54.7166 119.197 51.4846C111.691 41.3337 97.2023 40.383 87.7003 48.0688C83.373 38.1196 74.0102 31.8334 64.9086 33.4236L88.0373 109.395ZM50.7154 61.7898C45.6861 61.153 39.9571 61.495 34.7738 64.9581L50.7154 61.7898ZM50.7154 61.7898C49.8492 59.7876 49.0642 57.5489 48.6698 55.3488C48.6697 55.3485 48.6697 55.3482 48.6696 55.3479L48.6645 55.3195C48.4961 54.3809 48.2046 52.7571 48.3865 50.7011L48.3877 50.6872L48.389 50.6734C48.8152 46.1435 51.2815 42.1607 54.1704 39.2897C57.0608 36.4174 60.9055 34.1226 64.9073 33.4238L50.7154 61.7898ZM44.483 110.634L44.483 110.633C44.0761 106.628 44.9365 103.018 46.4872 99.824C42.9372 99.3573 39.3382 98.2981 35.8929 96.1528L35.8921 96.1524C24.7085 89.186 22.6566 73.0512 34.7726 64.9589L44.483 110.634ZM44.483 110.634C45.1301 116.999 49.226 122.11 54.1441 125.099M44.483 110.634L54.1441 125.099M54.1441 125.099C59.069 128.093 65.4877 129.38 71.5031 127.322L54.1441 125.099ZM77.9525 78.4468L77.9076 78.3727C77.9411 78.3006 77.9811 78.23 78.0244 78.1683C78.0342 78.1544 78.0432 78.1423 78.0512 78.1319C78.1744 78.0663 78.2675 78.0394 78.3247 78.0283C78.3966 78.0144 78.4311 78.0212 78.4355 78.0221C78.4388 78.0228 78.4388 78.0224 78.4446 78.0264C78.4494 78.0298 78.492 78.0596 78.5516 78.1542C78.6289 78.2775 78.6585 78.364 78.6698 78.4084C78.6496 78.4268 78.6155 78.4543 78.5629 78.487L78.5532 78.4931C78.3476 78.6218 78.205 78.6705 78.1333 78.6885C78.093 78.6479 78.029 78.5732 77.9525 78.4468ZM77.8187 78.6457C77.8186 78.6474 77.8185 78.6482 77.8185 78.6482C77.8185 78.6481 77.8186 78.6473 77.8187 78.6457Z" fill="#203726" stroke="white" stroke-width="10"/>
<path d="M71.3863 82.6527C68.9756 79.8746 70.8247 75.0645 73.4054 73.4501C76.8609 71.2757 80.9719 72.1655 83.0902 75.5448C85.226 78.9545 84.403 82.9009 81.1356 84.9531C77.527 87.2161 73.5983 86.2883 71.4023 82.6569L71.3863 82.6527Z" fill="#EE7748"/>
<g clip-path="url(#clip0_152_400)">
<path d="M84.9007 200.768C82.2347 200.053 80.6508 197.31 81.3652 194.644C82.7343 189.534 84.8817 180.554 86.9489 171.873C89.0342 163.125 91.1997 154.077 92.6051 148.832C92.9545 147.528 93.81 146.422 94.9903 145.765C96.1337 145.129 97.4732 144.96 98.7289 145.297C98.7675 145.307 98.8061 145.317 98.8448 145.328C99.0573 145.385 99.2698 145.442 99.4823 145.499C107.799 147.727 115.815 145.785 119.44 140.68C119.569 140.507 119.678 140.33 119.788 140.152C121.984 136.63 121.636 131.94 118.922 128.47C117.913 127.174 116.713 126.128 115.358 125.351C114.452 124.829 113.455 124.417 112.412 124.137C107.485 122.817 101.71 124.396 97.3637 128.253C96.1423 129.333 94.4761 129.756 92.8912 129.373C92.8429 129.36 92.8043 129.35 92.756 129.337C91.2298 128.928 89.9847 127.818 89.4055 126.348L83.402 111.198C82.5992 109.171 83.1985 106.857 84.8904 105.489C86.376 104.272 87.9761 103.168 89.625 102.192C102.406 94.6735 116.9 96.2588 126.81 98.9142C128.134 99.2688 129.485 99.6724 130.827 100.115C149.545 105.751 160.817 124.849 156.498 143.632C154.336 153.053 148.51 161.12 140.099 166.351C132.895 170.829 124.603 172.718 116.344 171.82L106.813 201.711C106.006 204.259 103.338 205.718 100.759 205.027L84.9078 200.78L84.9007 200.768Z" fill="#87DB61"/>
<path d="M125.516 103.744C126.984 104.137 128.266 104.532 129.32 104.887C145.614 109.761 155.297 126.518 151.622 142.512C147.761 159.315 130.311 170.272 112.9 166.166L102.043 200.195L86.192 195.948C88.9665 185.593 94.6574 160.491 97.432 150.136C97.6831 150.203 97.9342 150.271 98.1854 150.338C108.617 153.133 118.697 150.368 123.519 143.574C123.7 143.323 123.875 143.059 124.037 142.802C127.41 137.401 126.787 130.412 122.862 125.395C121.613 123.797 119.98 122.241 117.854 121.019C116.554 120.267 115.154 119.696 113.715 119.31C107.311 117.594 99.8167 119.406 94.057 124.52L88.0535 109.37C89.4211 108.245 90.8001 107.31 92.1647 106.506C103.93 99.5748 117.463 101.576 125.519 103.734M128.107 94.075C117.267 91.1807 101.363 89.4869 87.0894 97.8992C85.2226 98.9933 83.4259 100.251 81.7314 101.63C78.352 104.389 77.1561 109.007 78.7616 113.06L84.7651 128.21C85.9333 131.153 88.4261 133.364 91.4784 134.181C91.5654 134.205 91.662 134.231 91.7489 134.254C94.9211 135.011 98.2608 134.177 100.706 132.006C103.816 129.247 107.823 128.084 111.146 128.974C111.774 129.143 112.362 129.383 112.89 129.69C113.688 130.152 114.384 130.763 114.998 131.56C116.402 133.354 116.635 135.808 115.565 137.519C115.508 137.618 115.443 137.704 115.376 137.8C112.715 141.549 106.028 142.087 100.793 140.684C100.619 140.637 100.435 140.588 100.262 140.541C100.184 140.521 100.107 140.5 100.039 140.482C97.5184 139.806 94.8299 140.142 92.55 141.426C90.1992 142.742 88.4882 144.955 87.792 147.553C86.3685 152.866 84.2049 161.945 82.0996 170.729C80.0305 179.379 77.9031 188.323 76.5495 193.375C75.1208 198.706 78.2886 204.193 83.6205 205.622L99.4714 209.869C104.629 211.251 109.967 208.333 111.588 203.25L119.941 177.059C127.92 177.147 135.784 174.958 142.754 170.624C152.297 164.682 158.915 155.512 161.379 144.774C166.269 123.432 153.513 101.762 132.33 95.3516C130.921 94.8913 129.505 94.4599 128.104 94.0846L128.107 94.075Z" fill="#F4F5F4"/>
<path d="M90.9691 209.879C83.9082 207.987 79.6912 200.697 81.5832 193.636C83.4752 186.575 90.7624 182.368 97.833 184.263C104.904 186.157 109.101 193.442 107.209 200.503C105.317 207.564 98.03 211.771 90.9691 209.879Z" fill="#87DB61"/>
<path d="M96.5413 189.083C100.946 190.263 103.562 194.794 102.382 199.199C101.202 203.604 96.6702 206.22 92.2656 205.04C87.861 203.859 85.2447 199.328 86.4249 194.923C87.6051 190.519 92.1367 187.902 96.5413 189.083ZM99.1295 179.423C89.4026 176.817 79.372 182.608 76.7657 192.335C74.1594 202.062 79.9506 212.093 89.6774 214.699C99.4043 217.305 109.435 211.514 112.041 201.787C114.648 192.06 108.856 182.03 99.1295 179.423Z" fill="#F4F5F4"/>
<path d="M88.0509 109.379L94.0544 124.529C101.117 118.264 110.774 116.959 117.861 121.032C119.987 122.254 121.62 123.809 122.869 125.407C126.785 130.421 127.417 137.413 124.044 142.814C123.882 143.071 123.708 143.335 123.526 143.587C118.587 150.545 108.135 153.273 97.4416 150.139L89.118 181.203L107.548 186.141L112.9 166.166C130.311 170.272 147.752 159.312 151.622 142.512C155.297 126.518 145.623 109.763 129.32 104.887C122.445 102.61 106.066 98.3252 92.1622 106.516C90.8098 107.313 89.4282 108.258 88.0509 109.379Z" fill="#87DB61" stroke="#F4F5F4" stroke-width="3" stroke-linecap="round" stroke-linejoin="round"/>
<path d="M92.2634 205.049C96.6698 206.23 101.199 203.615 102.38 199.209C103.56 194.802 100.946 190.273 96.5391 189.092C92.1327 187.912 87.6034 190.527 86.4227 194.933C85.242 199.339 87.857 203.869 92.2634 205.049Z" fill="#87DB61" stroke="#F4F5F4" stroke-width="3" stroke-linecap="round" stroke-linejoin="round"/>
</g>
<defs>
<clipPath id="clip0_152_400">
<rect width="90" height="126.46" fill="white" transform="translate(84.8984 82.5077) rotate(15)"/>
</clipPath>
</defs>
</svg>
