<svg width="141" height="141" viewBox="0 0 141 141" fill="none" xmlns="http://www.w3.org/2000/svg">
<path d="M66.46 21.877C64.4732 21.9161 62.4993 22.2063 60.5854 22.7407C60.5865 22.545 60.5876 22.3494 60.5874 22.1527C60.6164 19.7923 60.1048 17.4566 59.0918 15.3244C58.0787 13.1923 56.591 11.3203 54.7428 9.8519C52.9428 8.36639 50.807 7.34343 48.5212 6.8721C46.2355 6.40078 43.8692 6.49537 41.6284 7.14766C39.4927 7.70378 37.6287 9.01032 36.3775 10.8282C35.1262 12.6461 34.5713 14.8537 34.8144 17.0472C34.8428 17.3637 34.8813 17.6789 34.9248 18.015C35.2057 19.756 35.3231 21.5194 35.2755 23.2822C35.2599 24.2743 35.0032 25.2478 34.5276 26.1186C33.7029 27.4588 32.9851 28.778 32.2906 30.0543C31.9759 30.633 31.6606 31.2128 31.3378 31.7877L30.6659 32.9893C29.2617 34.9432 27.643 36.7336 25.8403 38.3271C24.7407 38.2204 23.6311 38.2976 22.5569 38.5554L15.3131 40.2877C14.0805 40.537 12.9123 41.0371 11.881 41.7569C10.8498 42.4767 9.97758 43.4009 9.31853 44.472C8.65948 45.543 8.22769 46.7382 8.04997 47.9832C7.87225 49.2282 7.95239 50.4964 8.28542 51.7091L10.2681 60.0028L13.5945 73.91C13.844 75.1389 14.3433 76.3035 15.0615 77.3315C15.7797 78.3596 16.7014 79.2291 17.7695 79.8862C18.8375 80.5433 20.0292 80.974 21.2706 81.1515C22.512 81.3291 23.7767 81.2497 24.9861 80.9184L32.28 79.1741C33.3595 78.9174 34.3902 78.4872 35.3319 77.9003C36.2596 77.9679 54.4386 76.1292 60.7938 75.2732C62.0908 75.1057 63.3784 74.8724 64.6516 74.5742C66.9774 74.0382 69.2134 73.1686 71.2903 71.9925C74.1476 70.4845 76.5455 68.2341 78.2316 65.4782C79.9178 62.7223 80.8297 59.5628 80.8716 56.3322C80.8998 54.4918 80.7537 52.7249 80.6242 51.1656C80.5855 50.7004 80.5468 50.2354 80.5123 49.7728C80.3821 47.9432 80.2416 46.1149 80.1035 44.2859C79.8433 40.8849 79.5846 37.4846 79.3787 34.0803C79.201 30.7776 77.7612 27.6695 75.3569 25.3983C72.9525 23.1271 69.7674 21.8664 66.46 21.877ZM32.1241 69.5216C32.2241 69.789 32.2616 70.0757 32.2335 70.3597C32.2053 70.6438 32.1125 70.9176 31.962 71.1601C31.8114 71.4026 31.6073 71.6074 31.3652 71.7587C31.1232 71.9099 30.8497 72.0037 30.5657 72.0326C28.1383 72.6146 25.7105 73.1952 23.2825 73.7743C23.0117 73.8747 22.7216 73.9119 22.4342 73.8831C22.1468 73.8544 21.8698 73.7604 21.6243 73.6083C21.3787 73.4562 21.1712 73.2501 21.0174 73.0057C20.8636 72.7612 20.7676 72.4849 20.7368 72.1977C19.8474 68.4845 18.9594 64.771 18.0727 61.0573C17.1916 57.3726 16.3105 53.688 15.4294 50.0035C15.3251 49.73 15.2853 49.4361 15.313 49.1447C15.3407 48.8533 15.4352 48.5723 15.5892 48.3233C15.7431 48.0744 15.9524 47.8643 16.2008 47.7094C16.4491 47.5544 16.7298 47.4588 17.0211 47.43C19.4342 46.8518 21.8475 46.2747 24.261 45.6987C24.5287 45.6011 24.8149 45.5649 25.0985 45.593C25.3821 45.621 25.6557 45.7125 25.8991 45.8606C26.1425 46.0087 26.3495 46.2097 26.5047 46.4487C26.6599 46.6876 26.7594 46.9585 26.7957 47.2411C28.5726 54.6679 30.3487 62.0948 32.1241 69.5216ZM72.0474 34.5242C72.3661 39.7863 72.8104 45.0408 73.1885 50.2994C73.3304 52.2718 73.5579 54.2486 73.529 56.2202C73.4661 60.5108 71.2445 63.5461 67.6259 65.6287C65.2017 66.9208 62.5475 67.7247 59.8138 67.9948C53.0837 68.9019 46.323 69.504 39.5488 69.9715C39.2817 69.99 39.015 70.012 38.7479 70.03C37.9274 70.1334 37.1155 70.2957 36.3185 70.5159C36.1283 70.5646 35.9303 70.575 35.7361 70.5464C35.5419 70.5178 35.3553 70.4508 35.1872 70.3494C35.0191 70.2479 34.8729 70.114 34.7571 69.9555C34.6413 69.797 34.5583 69.617 34.5128 69.426C33.5706 65.4863 30.9712 54.6227 29.5794 48.7758C29.4002 48.023 29.2643 47.2586 29.1411 46.4943C29.0768 46.1016 29.1204 45.6989 29.2673 45.329C29.4141 44.9592 29.6587 44.6362 29.9749 44.3946C30.7134 43.8262 31.4931 43.3135 32.3077 42.8609C32.4514 42.7826 32.5866 42.6955 32.7248 42.6114C33.513 42.1698 34.1805 41.5412 34.6685 40.7808C35.7336 39.0066 36.7271 37.1892 37.741 35.3844C38.755 33.5796 39.6986 31.7294 40.783 29.9665C41.8815 28.0963 42.5052 25.9854 42.5995 23.8185C42.694 21.5691 42.5637 19.316 42.2103 17.0926C42.1809 16.8605 42.1506 16.6286 42.1296 16.3954C42.0391 15.9091 42.145 15.4068 42.4242 14.9986C42.7034 14.5903 43.1331 14.3094 43.6191 14.2174C44.7372 13.8783 45.9227 13.8264 47.0662 14.0666C48.2096 14.3068 49.2741 14.8313 50.1612 15.5917C51.1511 16.3731 51.945 17.3747 52.48 18.5167C53.0149 19.6588 53.2762 20.9099 53.2429 22.1706C53.25 25.4581 52.9847 28.7464 52.8365 32.0338C52.8255 32.2798 52.8118 32.5257 52.7987 32.7831C55.2078 32.049 57.5873 31.3485 59.9505 30.5966C62.0604 29.808 64.2776 29.3438 66.5266 29.2198C67.9502 29.2318 69.3152 29.7879 70.3417 30.7742C71.3683 31.7605 71.9786 33.1022 72.0474 34.5242Z" fill="#F4F5F4"/>
<path d="M66.5265 29.2201C64.2775 29.344 62.0603 29.8082 59.9505 30.5969C57.5872 31.349 55.2077 32.0493 52.7987 32.7833C52.8118 32.526 52.8254 32.2801 52.8365 32.034C52.9845 28.7461 53.2498 25.4579 53.2429 22.1708C53.2761 20.9101 53.0149 19.659 52.4799 18.517C51.9449 17.3749 51.151 16.3734 50.1612 15.5919C49.274 14.8315 48.2096 14.307 47.0661 14.0667C45.9226 13.8265 44.7371 13.8783 43.6189 14.2174C43.1329 14.3094 42.7031 14.5905 42.424 14.9989C42.1448 15.4073 42.0389 15.9097 42.1296 16.396C42.1506 16.629 42.1809 16.8611 42.2103 17.0932C42.5637 19.3166 42.694 21.5698 42.5995 23.8191C42.5052 25.986 41.8815 28.0969 40.783 29.9671C39.6989 31.7299 38.7556 33.5791 37.7411 35.385C36.7265 37.191 35.7336 39.0072 34.6685 40.7814C34.1806 41.5418 33.513 42.1705 32.7248 42.612C32.5866 42.6961 32.4511 42.7833 32.3077 42.8615C31.4931 43.3141 30.7134 43.8268 29.9749 44.3952C29.6587 44.6368 29.4142 44.9598 29.2673 45.3296C29.1204 45.6995 29.0768 46.1022 29.1411 46.4949C29.2643 47.2592 29.4002 48.0236 29.5795 48.7764C30.9711 54.6229 33.57 65.487 34.5128 69.4266C34.5583 69.6176 34.6414 69.7976 34.7571 69.9561C34.8729 70.1146 35.0191 70.2485 35.1872 70.35C35.3553 70.4514 35.5419 70.5184 35.7361 70.547C35.9303 70.5756 36.1283 70.5652 36.3185 70.5165C37.1155 70.2963 37.9275 70.134 38.7479 70.0307C39.015 70.0126 39.2818 69.9911 39.5488 69.9722C46.323 69.5044 53.0832 68.9024 59.8138 67.9954C62.5475 67.7253 65.2017 66.9214 67.6259 65.6293C71.2446 63.5467 73.4661 60.5114 73.529 56.2208C73.5579 54.2493 73.3304 52.2724 73.1885 50.3C72.8105 45.0418 72.3661 39.7868 72.0475 34.5248C71.9787 33.1028 71.3684 31.761 70.3418 30.7746C69.3153 29.7882 67.9502 29.232 66.5265 29.2201Z" fill="#87DB61"/>
<path d="M24.2613 45.6988C21.8477 46.2748 19.4344 46.8519 17.0214 47.4301C16.73 47.4589 16.4492 47.5545 16.2008 47.7094C15.9524 47.8643 15.743 48.0745 15.589 48.3235C15.435 48.5725 15.3405 48.8536 15.3128 49.1451C15.2851 49.4366 15.325 49.7305 15.4294 50.004C16.3093 53.6889 17.1904 57.3735 18.0727 61.0578C18.9607 64.7712 19.8488 68.4847 20.7368 72.1982C20.7676 72.4854 20.8636 72.7617 21.0174 73.0062C21.1711 73.2506 21.3787 73.4568 21.6243 73.6088C21.8698 73.7609 22.1468 73.8549 22.4342 73.8837C22.7215 73.9125 23.0117 73.8752 23.2825 73.7749C25.7105 73.1956 28.1382 72.615 30.5657 72.0332C30.8497 72.0042 31.1233 71.9105 31.3654 71.7592C31.6075 71.6079 31.8117 71.4031 31.9622 71.1605C32.1127 70.918 32.2056 70.6441 32.2336 70.36C32.2617 70.0759 32.2242 69.7891 32.1241 69.5218C30.3487 62.0946 28.5726 54.6676 26.7959 47.2408C26.7595 46.9582 26.66 46.6875 26.5048 46.4485C26.3496 46.2096 26.1426 46.0087 25.8992 45.8606C25.6558 45.7125 25.3822 45.6211 25.0987 45.5931C24.8151 45.5651 24.5289 45.6012 24.2613 45.6988Z" fill="#87DB61"/>
<g clip-path="url(#clip0_152_399)">
<path d="M111.175 110.67C108.946 110.552 106.74 110.152 104.611 109.481C104.605 109.7 104.599 109.92 104.592 110.141C104.536 112.792 103.874 115.395 102.657 117.751C101.44 120.107 99.6996 122.153 97.5696 123.733C95.4931 125.333 93.0568 126.402 90.4729 126.846C87.889 127.289 85.2358 127.095 82.7443 126.278C80.3673 125.574 78.3234 124.038 76.9865 121.95C75.6496 119.862 75.1092 117.363 75.4642 114.909C75.5079 114.555 75.5629 114.202 75.6243 113.827C76.0048 111.882 76.2026 109.907 76.2151 107.926C76.2347 106.811 75.9829 105.709 75.4815 104.713C74.6056 103.178 73.8491 101.67 73.117 100.211C72.7854 99.5494 72.4531 98.8866 72.1122 98.2291L71.4028 96.8549C69.8992 94.6087 68.1489 92.538 66.1844 90.6814C64.9459 90.7601 63.703 90.632 62.5066 90.3023L54.4385 88.0865C53.0638 87.7605 51.7709 87.1553 50.64 86.3086C49.5092 85.4618 48.5644 84.3916 47.8646 83.1644C47.1647 81.9372 46.7246 80.5792 46.5716 79.1748C46.4186 77.7703 46.556 76.3494 46.9753 75.0003L49.5116 65.7628L53.7664 50.273C54.0925 48.9025 54.6966 47.6136 55.5414 46.4863C56.3862 45.3589 57.4536 44.4172 58.6773 43.7193C59.9011 43.0215 61.2551 42.5825 62.6556 42.4296C64.056 42.2767 65.4729 42.4131 66.8184 42.8304L74.9424 45.0615C76.1447 45.3902 77.2858 45.9117 78.3211 46.6059C79.3652 46.5647 99.7069 49.309 106.81 50.5078C108.26 50.7442 109.697 51.0543 111.115 51.4367C113.707 52.1256 116.185 53.1856 118.472 54.5837C121.624 56.3837 124.232 58.9999 126.022 62.1572C127.812 65.3145 128.718 68.8959 128.644 72.5245C128.607 74.5919 128.377 76.5702 128.173 78.316C128.112 78.8369 128.051 79.3576 127.995 79.8756C127.781 81.9249 127.555 83.9724 127.331 86.0207C126.912 89.8295 126.494 93.6375 126.136 97.4519C125.813 101.153 124.08 104.589 121.295 107.049C118.511 109.509 114.888 110.805 111.175 110.67ZM74.4062 55.893C74.5286 55.5966 74.5813 55.2761 74.5604 54.9561C74.5395 54.6361 74.4454 54.3252 74.2855 54.0473C74.1256 53.7694 73.904 53.5319 73.6379 53.353C73.3718 53.1741 73.0682 53.0586 72.7505 53.0155C70.0469 52.2712 67.3429 51.5286 64.6385 50.7876C64.3382 50.6648 64.0138 50.6122 63.6901 50.6337C63.3664 50.6553 63.0518 50.7504 62.7705 50.912C62.4891 51.0735 62.2484 51.2972 62.0665 51.5659C61.8847 51.8346 61.7667 52.1413 61.7213 52.4625C60.5839 56.5982 59.448 60.7343 58.3136 64.8708C57.1865 68.9747 56.0594 73.0786 54.9323 77.1825C54.805 77.4856 54.7493 77.8141 54.7695 78.1423C54.7898 78.4705 54.8854 78.7896 55.0489 79.0748C55.2125 79.3601 55.4396 79.6038 55.7126 79.787C55.9857 79.9703 56.2973 80.0881 56.6232 80.1313C59.3109 80.8708 61.9988 81.609 64.687 82.3459C64.9839 82.4656 65.3039 82.5168 65.6234 82.496C65.9428 82.4751 66.2534 82.3827 66.5323 82.2255C66.8111 82.0683 67.051 81.8504 67.2342 81.5879C67.4174 81.3254 67.5392 81.025 67.5905 80.7091C69.8633 72.4371 72.1352 64.165 74.4062 55.893ZM117.921 96.6794C118.476 90.7832 119.171 84.9004 119.792 79.0104C120.025 76.8013 120.355 74.5903 120.396 72.3756C120.486 67.5561 118.105 64.0651 114.12 61.5916C111.447 60.0502 108.497 59.0484 105.438 58.6428C97.9154 57.3727 90.3474 56.4438 82.7591 55.6655C82.46 55.6348 82.1613 55.6002 81.8621 55.5699C80.9448 55.4232 80.0393 55.2105 79.1526 54.9336C78.941 54.8718 78.7191 54.8527 78.4999 54.8775C78.2808 54.9024 78.0688 54.9706 77.8763 55.0782C77.6838 55.1858 77.5147 55.3307 77.3787 55.5043C77.2428 55.678 77.1428 55.877 77.0846 56.0897C75.8794 60.4777 72.5547 72.5775 70.7733 79.0901C70.5439 79.9286 70.3628 80.7817 70.1959 81.6352C70.109 82.0737 70.1429 82.5275 70.294 82.9482C70.445 83.369 70.7075 83.7407 71.0535 84.0238C71.8613 84.6897 72.7176 85.2944 73.6153 85.8331C73.7736 85.9263 73.9222 86.0291 74.0742 86.1288C74.9427 86.654 75.6686 87.3848 76.1881 88.2567C77.3175 90.2885 78.365 92.3662 79.4359 94.4304C80.5068 96.4947 81.4971 98.6073 82.6486 100.627C83.812 102.768 84.4333 105.161 84.4581 107.598C84.4801 110.127 84.2495 112.652 83.7696 115.135C83.7279 115.394 83.6852 115.653 83.6529 115.914C83.5331 116.457 83.6333 117.025 83.9315 117.494C84.2297 117.962 84.7016 118.294 85.2438 118.415C86.4864 118.838 87.8155 118.941 89.1083 118.714C90.4011 118.487 91.6158 117.938 92.6403 117.117C93.7809 116.277 94.7097 115.182 95.3531 113.92C95.9964 112.658 96.3365 111.263 96.3463 109.846C96.4772 106.155 96.3024 102.453 96.2589 98.7569C96.2558 98.4803 96.2496 98.2037 96.2445 97.9142C98.9219 98.8285 101.567 99.704 104.192 100.637C106.532 101.601 109.004 102.205 111.524 102.428C113.123 102.468 114.676 101.895 115.866 100.826C117.055 99.7568 117.791 98.2733 117.921 96.6794Z" fill="#F4F5F4"/>
<path d="M111.524 102.428C109.004 102.205 106.532 101.601 104.193 100.636C101.567 99.7035 98.9221 98.8282 96.2447 97.914C96.2498 98.2034 96.256 98.48 96.2591 98.7567C96.3024 102.454 96.4773 106.155 96.3465 109.846C96.3367 111.262 95.9966 112.657 95.3533 113.92C94.7099 115.182 93.7811 116.277 92.6405 117.117C91.6161 117.937 90.4013 118.487 89.1085 118.714C87.8157 118.941 86.4866 118.838 85.2439 118.415C84.7016 118.294 84.2296 117.962 83.9314 117.493C83.6332 117.024 83.5332 116.456 83.6532 115.914C83.6855 115.653 83.7282 115.393 83.7699 115.134C84.2498 112.651 84.4804 110.126 84.4584 107.597C84.4336 105.161 83.8123 102.767 82.6489 100.626C81.4976 98.6068 80.5077 96.4953 79.4362 94.4298C78.3647 92.3642 77.3178 90.2879 76.1884 88.2561C75.6689 87.3842 74.943 86.6534 74.0745 86.1281C73.9225 86.0285 73.7737 85.9256 73.6156 85.8324C72.7179 85.2938 71.8616 84.689 71.0538 84.0232C70.7078 83.7401 70.4453 83.3683 70.2943 82.9476C70.1432 82.5269 70.1093 82.073 70.1962 81.6345C70.3631 80.7811 70.5442 79.9279 70.7737 79.0895C72.5548 72.5774 75.8791 60.4769 77.0849 56.089C77.1431 55.8763 77.2431 55.6773 77.379 55.5037C77.515 55.33 77.6841 55.1852 77.8766 55.0776C78.0691 54.9699 78.2811 54.9017 78.5002 54.8769C78.7194 54.8521 78.9413 54.8711 79.153 54.9329C80.0396 55.2099 80.9451 55.4226 81.8624 55.5692C82.1616 55.5995 82.4604 55.6337 82.7594 55.6649C90.3476 56.4435 97.9151 57.3722 105.438 58.6422C108.497 59.0477 111.447 60.0496 114.12 61.5909C118.105 64.0645 120.486 67.5555 120.396 72.375C120.355 74.5897 120.026 76.8006 119.792 79.0098C119.171 84.8994 118.476 90.7827 117.921 96.6787C117.791 98.2727 117.056 99.7564 115.866 100.825C114.677 101.895 113.123 102.468 111.524 102.428Z" fill="#D81F3A"/>
<path d="M64.687 82.3461C61.9987 81.6091 59.3108 80.8709 56.6233 80.1315C56.2972 80.0883 55.9855 79.9705 55.7124 79.7872C55.4393 79.604 55.2121 79.3602 55.0485 79.0749C54.8849 78.7896 54.7893 78.4704 54.7691 78.1421C54.7489 77.8138 54.8047 77.4853 54.9321 77.1821C56.0578 73.0778 57.1849 68.9739 58.3133 64.8704C59.4492 60.7343 60.5852 56.5983 61.7211 52.4621C61.7664 52.1409 61.8845 51.8342 62.0663 51.5655C62.2481 51.2968 62.4889 51.0732 62.7702 50.9116C63.0516 50.7501 63.3661 50.6549 63.6898 50.6333C64.0136 50.6117 64.3379 50.6644 64.6382 50.7872C67.3426 51.5284 70.0466 52.271 72.7502 53.0151C73.068 53.0582 73.3717 53.1737 73.6378 53.3526C73.904 53.5315 74.1256 53.7691 74.2855 54.0471C74.4454 54.325 74.5395 54.636 74.5603 54.956C74.5812 55.276 74.5284 55.5966 74.406 55.893C72.1349 64.1654 69.863 72.4376 67.5905 80.7096C67.539 81.0255 67.4172 81.3258 67.234 81.5882C67.0508 81.8506 66.8109 82.0685 66.5321 82.2257C66.2533 82.3828 65.9427 82.4752 65.6233 82.4961C65.3039 82.5169 64.9839 82.4656 64.687 82.3461Z" fill="#D81F3A"/>
</g>
<defs>
<clipPath id="clip0_152_399">
<rect width="88" height="88" fill="white" transform="translate(55.9307 32.0081) rotate(15.3569)"/>
</clipPath>
</defs>
</svg>
