<svg width="93" height="135" viewBox="0 0 93 135" fill="none" xmlns="http://www.w3.org/2000/svg">
<g id="Calque_1">
<g id="Union">
<mask id="path-1-outside-1_96_1874" maskUnits="userSpaceOnUse" x="-0.816895" y="-0.0670167" width="94" height="135" fill="black">
<rect fill="white" x="-0.816895" y="-0.0670167" width="94" height="135"/>
<path fill-rule="evenodd" clip-rule="evenodd" d="M59.696 32.4013L59.7333 22.933L53.7247 30.2611L47.0549 23.5445L47.9928 32.9673L38.5245 32.93L45.8426 38.938L39.126 45.6077L47.5439 44.7699C47.5327 44.7761 47.5216 44.7824 47.5105 44.789C33.5605 53.029 32.2405 70.599 32.1905 71.339C32.1843 71.4332 32.1878 71.5259 32.2001 71.616L27.7074 71.616C27.3574 71.616 27.0174 71.696 26.7174 71.876C26.3474 72.096 25.9274 72.416 25.5474 72.876C24.3974 74.236 24.3574 75.856 24.3974 76.506C14.3974 80.566 7.49739 90.666 8.23739 102.276C9.06739 115.196 19.5874 125.706 32.5074 126.506C47.6174 127.446 60.1674 115.476 60.1674 100.566C60.1674 89.7199 53.5121 80.4226 44.0674 76.5302C44.0668 75.8353 43.9633 73.9421 42.5174 72.546C42.2174 72.266 41.9174 72.046 41.6274 71.876C41.3374 71.706 40.9774 71.616 40.6274 71.616L34.9418 71.616C34.9456 71.5873 34.9485 71.5583 34.9505 71.529C34.9604 71.3607 36.2149 55.0034 48.5409 47.408L48.5215 54.1388L54.5195 46.8201L61.1992 53.5373L60.2613 44.1145L69.7303 44.1418L62.4016 38.1431L69.1188 31.4634L59.696 32.4013Z"/>
</mask>
<path fill-rule="evenodd" clip-rule="evenodd" d="M59.696 32.4013L59.7333 22.933L53.7247 30.2611L47.0549 23.5445L47.9928 32.9673L38.5245 32.93L45.8426 38.938L39.126 45.6077L47.5439 44.7699C47.5327 44.7761 47.5216 44.7824 47.5105 44.789C33.5605 53.029 32.2405 70.599 32.1905 71.339C32.1843 71.4332 32.1878 71.5259 32.2001 71.616L27.7074 71.616C27.3574 71.616 27.0174 71.696 26.7174 71.876C26.3474 72.096 25.9274 72.416 25.5474 72.876C24.3974 74.236 24.3574 75.856 24.3974 76.506C14.3974 80.566 7.49739 90.666 8.23739 102.276C9.06739 115.196 19.5874 125.706 32.5074 126.506C47.6174 127.446 60.1674 115.476 60.1674 100.566C60.1674 89.7199 53.5121 80.4226 44.0674 76.5302C44.0668 75.8353 43.9633 73.9421 42.5174 72.546C42.2174 72.266 41.9174 72.046 41.6274 71.876C41.3374 71.706 40.9774 71.616 40.6274 71.616L34.9418 71.616C34.9456 71.5873 34.9485 71.5583 34.9505 71.529C34.9604 71.3607 36.2149 55.0034 48.5409 47.408L48.5215 54.1388L54.5195 46.8201L61.1992 53.5373L60.2613 44.1145L69.7303 44.1418L62.4016 38.1431L69.1188 31.4634L59.696 32.4013Z" fill="#EE7748"/>
<path d="M59.7333 22.933L67.7332 22.9645L67.8219 0.451008L53.547 17.8605L59.7333 22.933ZM59.696 32.4013L51.6961 32.3698L51.6611 41.2406L60.4883 40.362L59.696 32.4013ZM53.7247 30.2611L48.048 35.8981L54.2922 42.1861L59.911 35.3335L53.7247 30.2611ZM47.0549 23.5445L52.7316 17.9075L36.8639 1.92838L39.0943 24.3368L47.0549 23.5445ZM47.9928 32.9673L47.9613 40.9672L56.8321 41.0022L55.9535 32.175L47.9928 32.9673ZM38.5245 32.93L38.556 24.9301L16.0644 24.8415L33.4482 39.1132L38.5245 32.93ZM45.8426 38.938L51.4796 44.6146L57.7637 38.3743L50.9188 32.7548L45.8426 38.938ZM39.126 45.6077L33.489 39.9311L17.5099 55.7987L39.9183 53.5684L39.126 45.6077ZM47.5439 44.7699L51.4249 51.7654L46.7515 36.8092L47.5439 44.7699ZM47.5105 44.789L51.5792 51.6771L51.5796 51.6768L47.5105 44.789ZM32.1905 71.339L24.2087 70.7997L24.2078 70.8137L32.1905 71.339ZM32.2001 71.616L32.2001 79.616L41.3661 79.616L40.1266 70.5342L32.2001 71.616ZM26.7174 71.876L30.806 78.7523L30.8197 78.7442L30.8334 78.736L26.7174 71.876ZM25.5474 72.876L31.6562 78.0416L31.6858 78.0065L31.7151 77.9711L25.5474 72.876ZM24.3974 76.506L27.4068 83.9184L32.7355 81.7549L32.3823 76.0146L24.3974 76.506ZM8.23739 102.276L0.253589 102.785L0.253846 102.789L8.23739 102.276ZM32.5074 126.506L33.0041 118.521L33.0018 118.521L32.5074 126.506ZM44.0674 76.5302L36.0674 76.5367L36.0718 81.8877L41.0191 83.9266L44.0674 76.5302ZM42.5174 72.546L48.0741 66.7908L48.0255 66.7438L47.976 66.6976L42.5174 72.546ZM41.6274 71.876L37.5816 78.7776L37.5817 78.7776L41.6274 71.876ZM34.9418 71.616L27.0103 70.5718L25.8195 79.616L34.9418 79.616L34.9418 71.616ZM34.9505 71.529L42.9318 72.0755L42.9344 72.0372L42.9367 71.9988L34.9505 71.529ZM48.5409 47.408L56.5409 47.4311L56.5824 33.0559L44.3441 40.5972L48.5409 47.408ZM48.5215 54.1388L40.5216 54.1158L40.4567 76.6005L54.7091 59.2098L48.5215 54.1388ZM54.5195 46.8201L60.1922 41.1791L53.9465 34.8983L48.332 41.7492L54.5195 46.8201ZM61.1992 53.5373L55.5265 59.1783L71.3878 75.1286L69.1599 52.745L61.1992 53.5373ZM60.2613 44.1145L60.2844 36.1145L51.423 36.089L52.3007 44.9068L60.2613 44.1145ZM69.7303 44.1418L69.7073 52.1418L92.2139 52.2067L74.7974 37.9511L69.7303 44.1418ZM62.4016 38.1431L56.7606 32.4705L50.4759 38.72L57.3345 44.3338L62.4016 38.1431ZM69.1188 31.4634L74.7598 37.1361L90.7102 21.2749L68.3265 23.5028L69.1188 31.4634ZM51.7334 22.9015L51.6961 32.3698L67.6959 32.4328L67.7332 22.9645L51.7334 22.9015ZM59.911 35.3335L65.9196 28.0054L53.547 17.8605L47.5384 25.1886L59.911 35.3335ZM41.3783 29.1815L48.048 35.8981L59.4013 24.624L52.7316 17.9075L41.3783 29.1815ZM55.9535 32.175L55.0156 22.7521L39.0943 24.3368L40.0321 33.7596L55.9535 32.175ZM38.493 40.93L47.9613 40.9672L48.0243 24.9674L38.556 24.9301L38.493 40.93ZM50.9188 32.7548L43.6007 26.7468L33.4482 39.1132L40.7663 45.1212L50.9188 32.7548ZM44.763 51.2843L51.4796 44.6146L40.2055 33.2614L33.489 39.9311L44.763 51.2843ZM46.7515 36.8092L38.3337 37.647L39.9183 53.5684L48.3362 52.7305L46.7515 36.8092ZM51.5796 51.6768C51.5295 51.7064 51.4779 51.736 51.4249 51.7654L43.6629 37.7743C43.5875 37.8161 43.5137 37.8585 43.4414 37.9011L51.5796 51.6768ZM40.1723 71.8783C40.1691 71.926 40.4242 68.2047 42.1233 63.6996C43.8276 59.1809 46.7194 54.5476 51.5792 51.6771L43.4418 37.9009C34.3516 43.2703 29.6084 51.5421 27.1527 58.0534C24.6918 64.5782 24.2619 70.012 24.2087 70.7997L40.1723 71.8783ZM40.1266 70.5342C40.1864 70.9724 40.2026 71.4181 40.1732 71.8642L24.2078 70.8137C24.166 71.4483 24.1892 72.0793 24.2736 72.6978L40.1266 70.5342ZM27.7074 79.616L32.2001 79.616L32.2001 63.616L27.7074 63.616L27.7074 79.616ZM30.8334 78.736C29.7077 79.4114 28.5788 79.616 27.7074 79.616L27.7074 63.616C26.136 63.616 24.3271 63.9807 22.6014 65.0161L30.8334 78.736ZM31.7151 77.9711C31.4074 78.3436 31.0754 78.5921 30.806 78.7523L22.6288 64.9997C21.6193 65.5999 20.4474 66.4885 19.3797 67.781L31.7151 77.9711ZM32.3823 76.0146C32.3948 76.2182 32.3916 76.4461 32.3282 76.7258C32.2592 77.03 32.0834 77.5363 31.6562 78.0416L19.4386 67.7105C16.3243 71.3935 16.3228 75.5406 16.4125 76.9974L32.3823 76.0146ZM16.2212 101.767C15.709 93.7311 20.4664 86.7362 27.4068 83.9184L21.388 69.0937C8.32841 74.3958 -0.714205 87.601 0.25359 102.785L16.2212 101.767ZM33.0018 118.521C24.1099 117.971 16.793 110.668 16.2209 101.763L0.253846 102.789C1.34178 119.724 15.0649 133.441 32.013 134.491L33.0018 118.521ZM52.1674 100.566C52.1674 110.888 43.484 119.173 33.0041 118.521L32.0107 134.491C51.7508 135.719 68.1674 120.064 68.1674 100.566L52.1674 100.566ZM41.0191 83.9266C47.5756 86.6288 52.1674 93.0762 52.1674 100.566L68.1674 100.566C68.1674 86.3635 59.4486 74.2164 47.1157 69.1337L41.0191 83.9266ZM36.9606 78.3013C36.4184 77.7778 36.2066 77.228 36.1334 76.9676C36.0667 76.7308 36.0674 76.5751 36.0674 76.5367L52.0674 76.5236C52.0664 75.3576 51.9809 70.5628 48.0741 66.7908L36.9606 78.3013ZM37.5817 78.7776C37.3488 78.6411 37.177 78.5048 37.0588 78.3944L47.976 66.6976C47.2577 66.0273 46.486 65.4509 45.6731 64.9744L37.5817 78.7776ZM40.6274 79.616C39.7049 79.616 38.6416 79.399 37.5816 78.7776L45.6732 64.9745C44.0331 64.0131 42.2499 63.616 40.6274 63.616L40.6274 79.616ZM34.9418 79.616L40.6274 79.616L40.6274 63.616L34.9418 63.616L34.9418 79.616ZM26.9692 70.9824C26.9786 70.8451 26.9923 70.7082 27.0103 70.5718L42.8734 72.6603C42.8989 72.4664 42.9184 72.2714 42.9318 72.0755L26.9692 70.9824ZM44.3441 40.5972C36.0707 45.6954 31.8043 53.5329 29.6163 59.4992C27.4181 65.4932 27.0007 70.4401 26.9643 71.0592L42.9367 71.9988C42.9102 72.4495 43.125 69.1337 44.638 65.0082C46.1612 60.8548 48.6851 56.7161 52.7378 54.2188L44.3441 40.5972ZM56.5215 54.1619L56.5409 47.4311L40.541 47.3849L40.5216 54.1158L56.5215 54.1619ZM48.332 41.7492L42.334 49.0679L54.7091 59.2098L60.7071 51.891L48.332 41.7492ZM66.8719 47.8963L60.1922 41.1791L48.8468 52.4611L55.5265 59.1783L66.8719 47.8963ZM52.3007 44.9068L53.2385 54.3296L69.1599 52.745L68.222 43.3221L52.3007 44.9068ZM69.7534 36.1418L60.2844 36.1145L60.2383 52.1145L69.7073 52.1418L69.7534 36.1418ZM57.3345 44.3338L64.6632 50.3325L74.7974 37.9511L67.4687 31.9525L57.3345 44.3338ZM63.4778 25.7908L56.7606 32.4705L68.0426 43.8158L74.7598 37.1361L63.4778 25.7908ZM60.4883 40.362L69.9112 39.4241L68.3265 23.5028L58.9037 24.4406L60.4883 40.362Z" fill="white" mask="url(#path-1-outside-1_96_1874)"/>
</g>
<path id="Vector 1" d="M19.5379 86.5961C17.2045 88.4294 12.9379 93.6961 14.5379 100.096" stroke="#F4F5F4" stroke-width="2" stroke-linecap="round"/>
<path id="Vector 2" d="M51.93 110.596C50.9703 113.404 47.4085 119.171 40.8392 119.774" stroke="#F4F5F4" stroke-width="2" stroke-linecap="round"/>
</g>
</svg>
