<svg width="57" height="46" viewBox="0 0 57 46" fill="none" xmlns="http://www.w3.org/2000/svg">
<g id="Calque_1" clip-path="url(#clip0_127_2207)">
<path id="Vector" d="M44.2714 29.3374C44.5441 29.7975 44.681 30.3523 44.662 30.9442C44.6273 32.1479 43.7929 33.2468 42.6529 33.6375C40.8519 34.2546 39.0177 33.1012 38.7082 31.3179C38.6483 30.9731 38.6493 30.6278 38.7046 30.3036L19.8466 33.5767C20.0178 33.8616 20.1351 34.1863 20.1949 34.5311C20.4771 36.1568 19.3877 37.7161 17.7522 38C16.1166 38.2838 14.5655 37.1829 14.2833 35.5572C14.2235 35.2123 14.2244 34.8671 14.2897 34.5411L10.9496 35.1209C10.4077 35.2149 9.88737 34.8485 9.79332 34.3066L6.37316 14.6012C6.2791 14.0593 6.64552 13.539 7.18742 13.4449L30.2821 9.4365C30.824 9.34244 31.3444 9.70886 31.4384 10.2508L31.9634 13.2755L42.7423 11.4047C43.7177 11.2354 44.6701 11.811 44.9872 12.7608L46.9933 18.9387L49.489 27.295C49.6589 27.8644 49.2963 28.4652 48.7051 28.5678L44.2813 29.3357L44.2714 29.3374Z" fill="#87DB61"/>
<path id="Vector_2" d="M30.1539 9.45873C30.6958 9.36467 31.2161 9.73109 31.3101 10.273L31.8351 13.2978L42.614 11.4269C43.5894 11.2576 44.5419 11.8332 44.8589 12.783L46.865 18.961L49.3607 27.3173C49.5306 27.8866 49.168 28.4875 48.5768 28.5901L44.153 29.3579C44.4257 29.818 44.5626 30.3728 44.5435 30.9648C44.5089 32.1684 43.6745 33.2673 42.5345 33.658C42.3721 33.7166 42.2162 33.7538 42.0586 33.7812C40.423 34.0651 38.8719 32.9641 38.5897 31.3384C38.5299 30.9936 38.5308 30.6483 38.5862 30.3241L19.7183 33.5989C19.8895 33.8838 20.0068 34.2085 20.0667 34.5534C20.3488 36.1791 19.2594 37.7383 17.6239 38.0222C15.9883 38.3061 14.4372 37.2051 14.155 35.5794C14.0952 35.2346 14.0962 34.8893 14.1614 34.5634L10.8213 35.1431C10.2794 35.2371 9.75909 34.8707 9.66504 34.3288L6.24488 14.6234C6.15082 14.0815 6.51724 13.5612 7.05914 13.4672L30.1539 9.45873ZM29.2988 4.53238L6.2041 8.5408C2.94286 9.10684 0.752492 12.2172 1.31853 15.4785L4.73869 35.1839C5.26197 38.1988 7.96074 40.2982 10.9387 40.1467C12.7105 42.2852 15.5527 43.4564 18.4789 42.9486C21.4052 42.4407 23.662 40.4149 24.6228 37.8224L35.4016 35.9516C37.1799 38.0687 39.9972 39.2137 42.9136 38.7076C43.3373 38.634 43.7558 38.5309 44.1576 38.3901C46.4672 37.6036 48.2437 35.7931 49.0575 33.5814L49.4319 33.5164C51.1167 33.224 52.6077 32.2243 53.5103 30.7583C54.4146 29.3022 54.6444 27.5268 54.1566 25.886L51.6609 17.5297L51.6506 17.4706L51.6206 17.4149L49.6146 11.237C48.4939 7.87916 45.1975 5.90377 41.7589 6.50059L35.5912 7.5711C34.3895 5.38438 31.8901 4.08263 29.2988 4.53238Z" fill="#F4F5F4"/>
<path id="Vector_3" d="M48.0169 18.6392C48.0169 18.6392 48.01 18.5998 48.0066 18.5801L46.004 12.4219C45.5205 10.9225 43.9672 9.98427 42.4104 10.2545L32.8238 11.9184L32.333 9.09065C32.2201 8.44037 31.5957 8.00067 30.9454 8.11354L5.87031 12.4657C5.22003 12.5786 4.78033 13.2029 4.8932 13.8532L8.65537 35.5292C8.76824 36.1794 9.39263 36.6191 10.0429 36.5063L13.0283 35.9881C13.5163 38.1566 15.6139 39.5991 17.8307 39.2144C20.0476 38.8296 21.5364 36.7646 21.2651 34.5585L37.4531 31.7488C37.9411 33.9173 40.0387 35.3599 42.2556 34.9751C44.4724 34.5903 45.9612 32.5253 45.69 30.3192L49.8971 29.589C50.2321 29.5309 50.5315 29.3266 50.7154 29.041C50.8976 28.7455 50.9379 28.3934 50.8404 28.0652L48.0186 18.6491L48.0169 18.6392ZM17.4186 36.8399C16.4432 37.0092 15.5066 36.3496 15.3373 35.3742C15.168 34.3988 15.8276 33.4622 16.803 33.2929C17.7784 33.1236 18.715 33.7832 18.8843 34.7586C19.0536 35.734 18.394 36.6706 17.4186 36.8399ZM33.5137 29.9865L20.2421 32.29C19.3078 31.2342 17.8803 30.67 16.3926 30.9283C14.9048 31.1865 13.7509 32.1987 13.227 33.5076L10.8131 33.9266L7.46134 14.6153L30.162 10.6753L33.5137 29.9865ZM38.8091 13.3053L42.8191 12.6093C43.2132 12.5409 43.5978 12.7684 43.7155 13.154L45.2902 18.0163L40.5806 18.8338C40.1471 18.909 39.7308 18.6159 39.6556 18.1823L38.8091 13.3053ZM41.8434 32.6006C40.868 32.7699 39.9314 32.1103 39.7621 31.1349C39.5928 30.1595 40.2524 29.2229 41.2278 29.0536C42.2032 28.8843 43.1398 29.5439 43.3091 30.5193C43.4784 31.4947 42.8189 32.4313 41.8434 32.6006ZM44.667 28.0507C43.7327 26.9949 42.3051 26.4308 40.8174 26.689C39.3296 26.9472 38.1757 27.9594 37.6518 29.2683L35.8882 29.5744L33.2325 14.2732L36.4543 13.714L37.3008 18.5911C37.6018 20.3251 39.2668 21.4977 41.0009 21.1967L46.0257 20.3246L48.1548 27.4454L44.6768 28.049L44.667 28.0507Z" fill="#0D1710"/>
</g>
<defs>
<clipPath id="clip0_127_2207">
<rect width="50.31" height="36" fill="white" transform="translate(0.29248 9.56685) rotate(-9.84643)"/>
</clipPath>
</defs>
</svg>
