<svg width="24" height="22" viewBox="0 0 24 22" fill="none" xmlns="http://www.w3.org/2000/svg">
<path id="Vector" d="M14 18H10M14 18C14 19.6569 15.3431 21 17 21C18.6569 21 20 19.6569 20 18M14 18C14 16.3431 15.3431 15 17 15C18.6569 15 20 16.3431 20 18M10 18C10 19.6569 8.65685 21 7 21C5.34315 21 4 19.6569 4 18M10 18C10 16.3431 8.65685 15 7 15C5.34315 15 4 16.3431 4 18M4 18V18C2.34315 18 1 16.6569 1 15V5.8C1 4.11984 1 3.27976 1.32698 2.63803C1.6146 2.07354 2.07354 1.6146 2.63803 1.32698C3.27976 1 4.11984 1 5.8 1H8.2C9.88016 1 10.7202 1 11.362 1.32698C11.9265 1.6146 12.3854 2.07354 12.673 2.63803C13 3.27976 13 4.11984 13 5.8V6.8C13 7.9201 13 8.48016 13.218 8.90798C13.4097 9.28431 13.7157 9.59027 14.092 9.78201C14.5198 10 15.0799 10 16.2 10H22.5M20 18V18C20.9319 18 21.3978 18 21.7654 17.8478C22.2554 17.6448 22.6448 17.2554 22.8478 16.7654C23 16.3978 23 15.9319 23 15V11.7727C23 11.1129 23 10.783 22.9475 10.4623C22.901 10.1775 22.8237 9.8987 22.7172 9.63059C22.5972 9.32861 22.4274 9.04571 22.088 8.47992L21.8643 8.10723C21.1845 6.97416 20.8446 6.40763 20.3766 5.99611C19.9624 5.63195 19.4774 5.35736 18.9521 5.18958C18.3584 5 17.6978 5 16.3764 5H13" stroke="#E9EBE9" stroke-width="1.5" stroke-linecap="round" stroke-linejoin="round"/>
</svg>
