<svg width="24" height="24" viewBox="0 0 24 24" fill="none" xmlns="http://www.w3.org/2000/svg">
<g id="ic-truck">
<path id="Vector" d="M14 19H10M14 19C14 20.6569 15.3431 22 17 22C18.6569 22 20 20.6569 20 19M14 19C14 17.3431 15.3431 16 17 16C18.6569 16 20 17.3431 20 19M10 19C10 20.6569 8.65685 22 7 22C5.34315 22 4 20.6569 4 19M10 19C10 17.3431 8.65685 16 7 16C5.34315 16 4 17.3431 4 19M4 19V19C2.34315 19 1 17.6569 1 16V6.8C1 5.11984 1 4.27976 1.32698 3.63803C1.6146 3.07354 2.07354 2.6146 2.63803 2.32698C3.27976 2 4.11984 2 5.8 2H8.2C9.88016 2 10.7202 2 11.362 2.32698C11.9265 2.6146 12.3854 3.07354 12.673 3.63803C13 4.27976 13 5.11984 13 6.8V7.8C13 8.9201 13 9.48016 13.218 9.90798C13.4097 10.2843 13.7157 10.5903 14.092 10.782C14.5198 11 15.0799 11 16.2 11H22.5M20 19V19C20.9319 19 21.3978 19 21.7654 18.8478C22.2554 18.6448 22.6448 18.2554 22.8478 17.7654C23 17.3978 23 16.9319 23 16V12.7727C23 12.1129 23 11.783 22.9475 11.4623C22.901 11.1775 22.8237 10.8987 22.7172 10.6306C22.5972 10.3286 22.4274 10.0457 22.088 9.47992L21.8643 9.10723C21.1845 7.97416 20.8446 7.40763 20.3766 6.99611C19.9624 6.63195 19.4774 6.35736 18.9521 6.18958C18.3584 6 17.6978 6 16.3764 6H13" stroke="black" stroke-width="1.5" stroke-linecap="round" stroke-linejoin="round"/>
</g>
</svg>
