<svg width="24" height="24" viewBox="0 0 24 24" fill="none" xmlns="http://www.w3.org/2000/svg">
<g id="ic-credit-card">
<path id="Vector" d="M21.5 8H2.5M18 12H14M15.6 21H8.4C6.15979 21 5.03968 21 4.18404 20.564C3.43139 20.1805 2.81947 19.5686 2.43597 18.816C2 17.9603 2 16.8402 2 14.6V9.4C2 7.15979 2 6.03968 2.43597 5.18404C2.81947 4.43139 3.43139 3.81947 4.18404 3.43597C5.03968 3 6.15979 3 8.4 3H15.6C17.8402 3 18.9603 3 19.816 3.43597C20.5686 3.81947 21.1805 4.43139 21.564 5.18404C22 6.03968 22 7.15979 22 9.4V14.6C22 16.8402 22 17.9603 21.564 18.816C21.1805 19.5686 20.5686 20.1805 19.816 20.564C18.9603 21 17.8402 21 15.6 21Z" stroke="black" stroke-width="1.5" stroke-linecap="round" stroke-linejoin="round"/>
</g>
</svg>
