<svg width="124" height="111" viewBox="0 0 124 111" fill="none" xmlns="http://www.w3.org/2000/svg">
<g id="Calque_1">
<path id="Vector" d="M7.32171 47.414C7.55777 49.9712 8.01657 52.5895 8.76605 55.2507C7.92444 52.6987 7.42261 50.0557 7.32171 47.414Z" fill="#203726"/>
<path id="Vector_2" d="M79.2915 59.1054C78.8505 59.9965 78.9326 61.0734 79.48 61.8928C79.7653 62.3235 80.0431 62.8166 80.2877 63.367C80.9384 64.7987 81.1384 66.1339 81.1904 67.0981C81.2114 67.5393 81.1299 67.9596 80.9486 68.3705C80.1088 70.3103 79.2825 72.5725 78.5748 75.1411C77.8051 77.9316 77.342 80.5071 77.0813 82.7507C77.0458 83.0259 77.0586 83.3002 77.094 83.5684C77.2102 84.2739 77.2667 85.5268 76.6679 86.8707C76.6565 86.8737 76.6512 86.8993 76.6429 86.9136C75.9421 88.466 73.9804 89.0278 72.4999 88.1686C71.9518 87.8445 71.3682 87.4333 70.8057 86.9199C68.7892 85.0571 68.0691 82.8227 67.8027 81.602C67.7076 81.1565 67.5053 80.7639 67.2267 80.4038C66.2959 79.2404 65.0351 77.8875 63.3575 76.6102C60.9061 74.7552 58.4478 73.7354 56.5165 73.1419C55.3281 72.7841 54.521 71.7203 54.4449 70.4848C54.4057 69.7949 54.3831 69.0763 54.3659 68.3323C54.3449 66.8042 54.3994 65.3767 54.4924 64.0476C54.5423 63.4184 54.3959 62.7814 54.0577 62.244C53.2242 60.9458 52.3908 59.6475 51.5574 58.3493C51.0591 57.5771 50.9588 56.6137 51.2753 55.7561C51.7579 54.4312 52.7411 52.5737 54.7354 51.182C57.4016 49.3083 60.4414 49.6893 63.6344 50.0534C65.3121 50.2439 67.7644 50.6978 70.573 51.9378C71.2774 52.2562 72.0891 52.3406 72.8072 52.0757C75.1426 51.2326 77.7655 52.0514 79.0414 54.0039C80.0341 55.489 80.0988 57.4521 79.2915 59.1054Z" fill="#203726"/>
<g id="Group">
<g id="Vector_3">
<path d="M95.8677 62.5399C94.9354 60.0122 98.6815 57.3661 98.2848 53.2579C97.9401 49.7516 94.6151 47.1284 91.4623 45.3286C91.451 45.3316 91.4366 45.3234 91.4109 45.3182C88.0443 44.0345 86.239 44.0473 83.918 44.1741C82.7333 44.2379 81.736 43.37 81.6153 42.1948C81.2638 38.9801 80.8375 36.4377 79.1112 32.2147C78.2423 30.1048 76.1397 28.5549 75.1734 26.9421C74.8495 26.413 74.7545 25.7863 74.9358 25.1943C75.114 24.5911 75.4101 23.8838 75.8677 23.1453C76.3699 22.3466 77.7798 20.1332 78.1981 19.6106C78.6829 18.9735 78.988 18.4811 78.9262 17.7973C78.8334 16.5904 78.7111 16.4058 78.9038 14.9051C79.0013 14.2268 79.4997 13.1876 79.6327 12.5965C67.6719 14.4851 58.0146 24.427 56.1876 37.0891C50.817 30.0025 43.0427 25.951 35.2727 25.2676C37.339 26.8635 39.8221 29.2896 39.4866 31.843C38.8307 36.825 28.0721 37.0389 27.2237 41.7102C26.1683 47.5117 41.8976 51.8952 41.5887 59.9843C41.3791 65.1366 34.8826 66.2614 35.1667 71.3538C35.5058 77.2405 44.4076 79.0215 44.8003 85.2441C44.9933 88.1389 43.2587 90.6808 41.5695 92.4859C55.9984 99.1741 70.153 100.671 73.3023 100.962C76.2796 98.9807 96.0593 85.4087 105.498 64.9106C98.4292 65.0778 96.3455 63.8247 95.8677 62.5399ZM80.3787 63.176C79.9376 64.0671 80.0198 65.144 80.5671 65.9634C80.8525 66.3941 81.1303 66.8873 81.3749 67.4376C82.0256 68.8693 82.2255 70.2045 82.2775 71.1687C82.2986 71.6099 82.217 72.0303 82.0358 72.4411C81.196 74.3809 80.3697 76.6432 79.662 79.2118C78.8923 82.0023 78.4292 84.5778 78.1685 86.8213C78.133 87.0965 78.1458 87.3708 78.1812 87.639C78.2974 88.3445 78.3539 89.5974 77.755 90.9413C77.7437 90.9443 77.7384 90.9699 77.7301 90.9842C77.0293 92.5366 75.0676 93.0984 73.5871 92.2393C73.0389 91.9152 72.4553 91.504 71.8929 90.9905C69.8764 89.1277 69.1563 86.8934 68.8899 85.6726C68.7948 85.2271 68.5925 84.8345 68.3139 84.4744C67.3831 83.311 66.1223 81.9582 64.4447 80.6808C61.9933 78.8259 59.535 77.806 57.6036 77.2125C56.4152 76.8547 55.6082 75.7909 55.5321 74.5554C55.4929 73.8655 55.4703 73.147 55.453 72.4029C55.4321 70.8749 55.4866 69.4474 55.5796 68.1182C55.6295 67.489 55.4831 66.852 55.1449 66.3146C54.3114 65.0164 53.478 63.7181 52.6446 62.4199C52.1463 61.6477 52.046 60.6843 52.3624 59.8267C52.8451 58.5018 53.8283 56.6443 55.8225 55.2526C58.4888 53.3789 61.5285 53.7599 64.7216 54.124C66.3992 54.3145 68.8516 54.7684 71.6602 56.0084C72.3646 56.3268 73.1763 56.4112 73.8943 56.1464C76.2298 55.3032 78.8527 56.122 80.1285 58.0746C81.1213 59.5596 81.186 61.5227 80.3787 63.176Z" fill="#203726"/>
<path d="M95.8677 62.5399L94.1732 63.1648L94.1749 63.1694L95.8677 62.5399ZM98.2848 53.2579L100.082 53.0843L100.082 53.0812L98.2848 53.2579ZM91.4623 45.3286L92.3577 43.7601L91.7124 43.3918L90.9948 43.5841L91.4623 45.3286ZM91.4109 45.3182L90.7675 47.0057L90.9066 47.0588L91.0525 47.0883L91.4109 45.3182ZM83.918 44.1741L84.0152 45.9775L84.0165 45.9775L83.918 44.1741ZM81.6153 42.1948L83.412 42.0103L83.4107 41.9984L81.6153 42.1948ZM79.1112 32.2147L80.7829 31.5313L80.7812 31.5271L79.1112 32.2147ZM75.1734 26.9421L76.7227 26.0139L76.7183 26.0065L76.7138 25.9992L75.1734 26.9421ZM74.9358 25.1943L76.6627 25.7231L76.6653 25.7146L76.6678 25.7061L74.9358 25.1943ZM75.8677 23.1453L74.3387 22.184L74.3325 22.194L75.8677 23.1453ZM78.1981 19.6106L79.6081 20.7391L79.622 20.7219L79.6354 20.7042L78.1981 19.6106ZM78.9262 17.7973L77.1254 17.9357L77.1264 17.9478L77.1275 17.96L78.9262 17.7973ZM78.9038 14.9051L77.1161 14.6481L77.1142 14.6616L77.1125 14.6751L78.9038 14.9051ZM79.6327 12.5965L81.3947 12.9928L81.9784 10.3976L79.351 10.8125L79.6327 12.5965ZM56.1876 37.0891L54.7482 38.18L57.3581 41.6237L57.9751 37.347L56.1876 37.0891ZM35.2727 25.2676L35.4309 23.4685C34.6321 23.3983 33.8826 23.8632 33.5906 24.61C33.2986 25.3569 33.5341 26.2069 34.1687 26.697L35.2727 25.2676ZM39.4866 31.843L41.2772 32.0787L41.2773 32.0783L39.4866 31.843ZM27.2237 41.7102L29.0006 42.0335L29.0007 42.033L27.2237 41.7102ZM41.5887 59.9843L43.3933 60.0577L43.3935 60.0532L41.5887 59.9843ZM35.1667 71.3538L33.3634 71.4544L33.3636 71.4577L35.1667 71.3538ZM44.8003 85.2441L42.9978 85.3579L42.9983 85.3642L44.8003 85.2441ZM41.5695 92.4859L40.2508 91.2519L38.5451 93.0746L40.81 94.1245L41.5695 92.4859ZM73.3023 100.962L73.1359 102.76L73.7714 102.819L74.3028 102.466L73.3023 100.962ZM105.498 64.9106L107.138 65.666L108.349 63.0366L105.455 63.1051L105.498 64.9106ZM80.3787 63.176L81.9973 63.9772L82.0016 63.9685L80.3787 63.176ZM80.5671 65.9634L82.0728 64.9659L82.069 64.9603L80.5671 65.9634ZM81.3749 67.4376L79.7245 68.1711L79.7275 68.178L79.7307 68.1849L81.3749 67.4376ZM82.2775 71.1687L84.0815 71.0825L84.081 71.0715L82.2775 71.1687ZM82.0358 72.4411L80.3833 71.7121L80.3784 71.7236L82.0358 72.4411ZM79.662 79.2118L81.403 79.692L81.4031 79.6915L79.662 79.2118ZM78.1685 86.8213L79.9597 87.0525L79.9611 87.0411L79.9624 87.0298L78.1685 86.8213ZM78.1812 87.639L76.3907 87.8757L76.3945 87.9042L76.3992 87.9326L78.1812 87.639ZM77.755 90.9413L78.2225 92.6858L79.0542 92.463L79.4047 91.6764L77.755 90.9413ZM77.7301 90.9842L76.1684 90.0771L76.122 90.1569L76.084 90.2411L77.7301 90.9842ZM73.5871 92.2393L72.6679 93.7939L72.6742 93.7976L72.6806 93.8013L73.5871 92.2393ZM71.8929 90.9905L70.6674 92.3172L70.6752 92.3243L71.8929 90.9905ZM68.8899 85.6726L67.1236 86.0496L67.1254 86.0577L68.8899 85.6726ZM68.3139 84.4744L69.7424 83.3693L69.7334 83.3577L69.7242 83.3462L68.3139 84.4744ZM64.4447 80.6808L65.5388 79.2439L65.5345 79.2406L64.4447 80.6808ZM57.6036 77.2125L58.1342 75.4861L58.1244 75.4831L57.6036 77.2125ZM55.5321 74.5554L53.7289 74.6578L53.7295 74.6664L55.5321 74.5554ZM55.453 72.4029L53.6471 72.4277L53.6473 72.4363L53.6475 72.4448L55.453 72.4029ZM55.5796 68.1182L53.7792 67.9755L53.7785 67.9838L53.7779 67.9922L55.5796 68.1182ZM55.1449 66.3146L56.6733 65.3526L56.669 65.3458L56.6647 65.339L55.1449 66.3146ZM52.6446 62.4199L54.1644 61.4442L54.1621 61.4407L52.6446 62.4199ZM52.3624 59.8267L54.0569 60.4519L54.0594 60.4448L52.3624 59.8267ZM55.8225 55.2526L56.8561 56.7336L56.861 56.7303L55.8225 55.2526ZM64.7216 54.124L64.5169 55.9184L64.5178 55.9185L64.7216 54.124ZM71.6602 56.0084L72.4042 54.3627L72.3969 54.3594L72.3896 54.3562L71.6602 56.0084ZM73.8943 56.1464L73.281 54.4476L73.2693 54.4519L73.8943 56.1464ZM80.1285 58.0746L78.6166 59.0624L78.6218 59.0704L78.6271 59.0783L80.1285 58.0746ZM97.5621 61.915C97.517 61.7924 97.486 61.5946 97.6278 61.1519C97.7849 60.6615 98.0671 60.1196 98.4799 59.3206C99.2381 57.8534 100.338 55.7275 100.082 53.0843L96.4871 53.4315C96.6285 54.8965 96.0535 56.1478 95.2709 57.6625C94.9133 58.3546 94.4586 59.205 94.1879 60.0499C93.9019 60.9427 93.7522 62.0235 94.1732 63.1648L97.5621 61.915ZM100.082 53.0812C99.8568 50.7887 98.6664 48.8969 97.2284 47.4015C95.7918 45.9076 94.0078 44.7021 92.3577 43.7601L90.5669 46.8971C92.0696 47.7549 93.5245 48.761 94.6248 49.9052C95.7236 51.0479 96.3681 52.2209 96.4874 53.4346L100.082 53.0812ZM90.9948 43.5841C91.287 43.5058 91.5343 43.5187 91.6817 43.5375C91.8175 43.5548 91.9201 43.5848 91.9346 43.5889C92.0151 43.6118 91.8725 43.569 91.7693 43.5481L91.0525 47.0883C90.9751 47.0727 90.8524 47.0366 90.9494 47.0641C90.9721 47.0705 91.082 47.1023 91.2245 47.1205C91.3785 47.1402 91.6319 47.1529 91.9297 47.0731L90.9948 43.5841ZM92.0544 43.6307C88.3798 42.2296 86.3036 42.235 83.8195 42.3707L84.0165 45.9775C86.1744 45.8596 87.7089 45.8395 90.7675 47.0057L92.0544 43.6307ZM83.8208 42.3707C83.6133 42.3818 83.4358 42.2423 83.412 42.0103L79.8187 42.3792C80.0363 44.4978 81.8534 46.094 84.0152 45.9775L83.8208 42.3707ZM83.4107 41.9984C83.0461 38.6644 82.5889 35.9492 80.7829 31.5313L77.4394 32.8982C79.0861 36.9261 79.4815 39.2958 79.82 42.3911L83.4107 41.9984ZM80.7812 31.5271C80.2221 30.1693 79.2975 29.0605 78.5311 28.1948C77.6796 27.2331 77.093 26.632 76.7227 26.0139L73.6241 27.8702C74.2201 28.865 75.1679 29.8452 75.8266 30.5892C76.5702 31.4292 77.1314 32.1502 77.4412 32.9024L80.7812 31.5271ZM76.7138 25.9992C76.6416 25.8812 76.6429 25.7877 76.6627 25.7231L73.2088 24.6655C72.8661 25.7849 73.0575 26.9447 73.633 27.8849L76.7138 25.9992ZM76.6678 25.7061C76.8017 25.253 77.0326 24.6941 77.4029 24.0966L74.3325 22.194C73.7875 23.0735 73.4264 23.9291 73.2037 24.6826L76.6678 25.7061ZM77.3967 24.1066C77.9345 23.2511 79.2722 21.1588 79.6081 20.7391L76.7881 18.482C76.2873 19.1076 74.8052 21.442 74.3387 22.184L77.3967 24.1066ZM79.6354 20.7042C80.1332 20.05 80.8541 19.0637 80.7249 17.6346L77.1275 17.96C77.1288 17.9748 77.1271 17.971 77.1293 17.9588C77.1313 17.9479 77.1322 17.9534 77.119 17.9829C77.1041 18.0161 77.0742 18.0735 77.0138 18.1658C76.9524 18.2596 76.8721 18.3707 76.7609 18.5169L79.6354 20.7042ZM80.7269 17.6589C80.7017 17.3307 80.6742 17.0701 80.6532 16.8638C80.6315 16.6517 80.6185 16.5136 80.612 16.3766C80.6006 16.134 80.6065 15.8256 80.6952 15.1351L77.1125 14.6751C76.8897 16.4104 77.0414 16.8425 77.1254 17.9357L80.7269 17.6589ZM80.6915 15.162C80.7087 15.0421 80.7852 14.7911 80.9506 14.3397C81.0727 14.0067 81.2947 13.4376 81.3947 12.9928L77.8706 12.2002C77.8377 12.3464 77.744 12.5926 77.5592 13.0965C77.4179 13.482 77.1964 14.0898 77.1161 14.6481L80.6915 15.162ZM79.351 10.8125C66.5697 12.8307 56.3345 23.4243 54.4 36.8312L57.9751 37.347C59.6947 25.4297 68.7741 16.1395 79.9144 14.3804L79.351 10.8125ZM57.627 35.9983C51.949 28.5061 43.7097 24.1967 35.4309 23.4685L35.1144 27.0667C42.3757 27.7054 49.685 31.499 54.7482 38.18L57.627 35.9983ZM34.1687 26.697C35.1475 27.4529 36.1371 28.3411 36.8313 29.2743C37.539 30.2254 37.7761 30.998 37.696 31.6077L41.2773 32.0783C41.5327 30.1345 40.696 28.4174 39.7294 27.1182C38.7494 25.801 37.4642 24.6782 36.3766 23.8382L34.1687 26.697ZM37.696 31.6072C37.6247 32.1486 37.2799 32.7071 36.3653 33.3586C35.4302 34.0247 34.1758 34.5937 32.7029 35.2387C31.3162 35.846 29.705 36.5326 28.4073 37.3932C27.1051 38.2568 25.7882 39.5073 25.4467 41.3875L29.0007 42.033C29.0834 41.5775 29.4295 41.0495 30.4036 40.4035C31.3823 39.7545 32.6608 39.2004 34.1518 38.5475C35.5566 37.9323 37.1679 37.2217 38.461 36.3006C39.7746 35.3649 41.0205 34.0283 41.2772 32.0787L37.696 31.6072ZM25.4468 41.387C25.0173 43.748 26.3611 45.6901 27.7743 47.1373C29.218 48.6158 31.2246 50.0655 33.04 51.4322C34.9324 52.857 36.6873 54.2389 37.9589 55.7122C39.2191 57.1725 39.8369 58.5307 39.784 59.9154L43.3935 60.0532C43.4951 57.3934 42.2625 55.1702 40.6933 53.3522C39.1355 51.5472 37.082 49.954 35.2126 48.5466C33.2661 47.0811 31.5577 45.8416 30.3586 44.6137C29.129 43.3545 28.9024 42.5732 29.0006 42.0335L25.4468 41.387ZM39.7842 59.9109C39.7132 61.6539 38.6472 62.7392 36.937 64.3933C35.3854 65.8939 33.1699 67.9859 33.3634 71.4544L36.9699 71.2532C36.8793 69.6293 37.77 68.6127 39.4481 66.9897C40.9675 65.5202 43.2546 63.467 43.3933 60.0577L39.7842 59.9109ZM33.3636 71.4577C33.4766 73.4182 34.3112 74.9846 35.3588 76.2723C36.3747 77.5211 37.6743 78.6027 38.7974 79.5522C41.2357 81.6137 42.8577 83.1372 42.9979 85.3579L46.6028 85.1303C46.3502 81.1284 43.325 78.6501 41.1295 76.7938C39.9356 75.7844 38.9217 74.9281 38.1608 73.9928C37.4316 73.0965 37.0264 72.2327 36.9697 71.2499L33.3636 71.4577ZM42.9983 85.3642C43.1392 87.4774 41.8584 89.5339 40.2508 91.2519L42.8882 93.7199C44.659 91.8276 46.8475 88.8004 46.6024 85.124L42.9983 85.3642ZM40.81 94.1245C55.5194 100.943 69.9178 102.463 73.1359 102.76L73.4686 99.1636C70.3882 98.8786 56.4774 97.4055 42.329 90.8473L40.81 94.1245ZM74.3028 102.466C77.3112 100.464 97.4732 86.6562 107.138 65.666L103.857 64.1552C94.6454 84.1612 75.248 97.4978 72.3017 99.4584L74.3028 102.466ZM105.455 63.1051C101.997 63.1869 99.9354 62.9126 98.745 62.5444C98.1606 62.3636 97.8526 62.18 97.7016 62.0603C97.6287 62.0026 97.5936 61.9609 97.5787 61.9408C97.5644 61.9216 97.5611 61.9122 97.5605 61.9104L94.1749 63.1694C94.6835 64.5371 95.9212 65.4518 97.6775 65.9951C99.4156 66.5328 101.93 66.8015 105.541 66.7162L105.455 63.1051ZM78.76 62.3749C78.0259 63.8581 78.1673 65.6222 79.0653 66.9665L82.069 64.9603C81.8723 64.6658 81.8494 64.2761 81.9973 63.9772L78.76 62.3749ZM79.0615 66.9609C79.2948 67.313 79.5232 67.7182 79.7245 68.1711L83.0253 66.7041C82.7374 66.0564 82.4102 65.4752 82.0728 64.9659L79.0615 66.9609ZM79.7307 68.1849C80.2638 69.3579 80.4306 70.4586 80.4741 71.266L84.081 71.0715C84.0205 69.9504 83.7874 68.3808 83.0191 66.6903L79.7307 68.1849ZM80.4735 71.255C80.4807 71.4044 80.4565 71.5464 80.3834 71.7121L83.6882 73.1701C83.9776 72.5141 84.1166 71.8154 84.0815 71.0825L80.4735 71.255ZM80.3784 71.7236C79.5068 73.7367 78.652 76.0783 77.9208 78.732L81.4031 79.6915C82.0874 77.2081 82.8851 75.0252 83.6932 73.1586L80.3784 71.7236ZM77.9209 78.7315C77.125 81.6171 76.6451 84.2839 76.3745 86.6128L79.9624 87.0298C80.2132 84.8717 80.6596 82.3874 81.403 79.692L77.9209 78.7315ZM76.3773 86.5901C76.3155 87.0689 76.3423 87.5093 76.3907 87.8757L79.9717 87.4024C79.9492 87.2323 79.9504 87.1241 79.9597 87.0525L76.3773 86.5901ZM76.3992 87.9326C76.4787 88.4153 76.5162 89.2842 76.1054 90.2062L79.4047 91.6764C80.1916 89.9105 80.1162 88.2738 79.9633 87.3455L76.3992 87.9326ZM77.2876 89.1968C76.7039 89.3532 76.3923 89.7402 76.2873 89.8845C76.1688 90.0473 76.1047 90.194 76.089 90.2296C76.0769 90.257 76.0459 90.3327 76.0667 90.2823C76.0687 90.2774 76.1053 90.1858 76.1684 90.0771L79.2918 91.8913C79.3591 91.7755 79.3994 91.6753 79.4051 91.6615C79.4296 91.6022 79.4022 91.6687 79.3939 91.6874C79.3819 91.7145 79.3218 91.8533 79.2078 92.0101C79.1072 92.1482 78.8005 92.5309 78.2225 92.6858L77.2876 89.1968ZM76.084 90.2411C75.8545 90.7495 75.1151 91.0379 74.4936 90.6772L72.6806 93.8013C75.0201 95.159 78.2041 94.3236 79.3762 91.7274L76.084 90.2411ZM74.5063 90.6846C74.0495 90.4145 73.569 90.0752 73.1106 89.6567L70.6752 92.3243C71.3417 92.9327 72.0284 93.4158 72.6679 93.7939L74.5063 90.6846ZM73.1184 89.6638C71.4773 88.1478 70.8785 86.3142 70.6544 85.2875L67.1254 86.0577C67.4341 87.4725 68.2755 90.1076 70.6674 92.3171L73.1184 89.6638ZM70.6561 85.2956C70.4943 84.5376 70.1541 83.9016 69.7424 83.3693L66.8854 85.5795C67.0308 85.7675 67.0952 85.9167 67.1236 86.0496L70.6561 85.2956ZM69.7242 83.3462C68.7227 82.0944 67.3588 80.6297 65.5388 79.2439L63.3506 82.1177C64.8857 83.2866 66.0434 84.5275 66.9037 85.6027L69.7242 83.3462ZM65.5345 79.2406C62.8724 77.2262 60.2092 76.1238 58.1342 75.4861L57.0731 78.9389C58.8608 79.4882 61.1142 80.4255 63.3549 82.121L65.5345 79.2406ZM58.1244 75.4831C57.6919 75.3529 57.3664 74.9592 57.3347 74.4443L53.7295 74.6664C53.85 76.6226 55.1386 78.3564 57.0829 78.9419L58.1244 75.4831ZM57.3352 74.4529C57.2977 73.7927 57.2757 73.0974 57.2586 72.3609L53.6475 72.4448C53.6649 73.1965 53.6881 73.9382 53.7289 74.6578L57.3352 74.4529ZM57.2589 72.3781C57.2387 70.9087 57.2911 69.5323 57.3812 68.2443L53.7779 67.9922C53.682 69.3624 53.6254 70.841 53.6471 72.4277L57.2589 72.3781ZM57.38 68.261C57.4591 67.2632 57.229 66.2353 56.6733 65.3526L53.6164 67.2767C53.7372 67.4686 53.7998 67.7148 53.7792 67.9755L57.38 68.261ZM56.6647 65.339C56.248 64.6898 55.8313 64.0407 55.4145 63.3916C54.9978 62.7424 54.5811 62.0933 54.1644 61.4442L51.1247 63.3955C51.5414 64.0447 51.9582 64.6938 52.3749 65.3429C52.7916 65.9921 53.2083 66.6412 53.625 67.2903L56.6647 65.339ZM54.1621 61.4407C53.9757 61.1517 53.9345 60.7834 54.0568 60.4518L50.6681 59.2015C50.1575 60.5853 50.317 62.1436 51.127 63.3991L54.1621 61.4407ZM54.0594 60.4448C54.4624 59.3387 55.2633 57.8453 56.8561 56.7336L54.7889 53.7716C52.3933 55.4434 51.2278 57.665 50.6655 59.2085L54.0594 60.4448ZM56.861 56.7303C58.8705 55.3181 61.1699 55.5368 64.5169 55.9184L64.9262 52.3296C61.8872 51.983 58.1071 51.4397 54.7841 53.7749L56.861 56.7303ZM64.5178 55.9185C66.0667 56.0944 68.3315 56.513 70.9308 57.6606L72.3896 54.3562C69.3716 53.0237 66.7318 52.5346 64.9253 52.3295L64.5178 55.9185ZM70.9162 57.6541C71.9604 58.1261 73.2694 58.3019 74.5194 57.8408L73.2693 54.4519C73.0832 54.5206 72.7688 54.5275 72.4042 54.3627L70.9162 57.6541ZM74.5076 57.8451C76.1201 57.263 77.8353 57.8667 78.6166 59.0624L81.6404 57.0867C79.8701 54.3773 76.3395 53.3435 73.2811 54.4476L74.5076 57.8451ZM78.6271 59.0783C79.2278 59.9769 79.3096 61.2494 78.7558 62.3836L82.0016 63.9685C83.0624 61.796 83.0147 59.1423 81.63 57.0708L78.6271 59.0783Z" fill="white"/>
</g>
<path id="Vector_4" d="M109.429 33.1599C109.547 33.5993 109.631 34.0479 109.717 34.5076C110.086 36.4738 110.303 38.3238 110.409 40.0342C111.002 49.0892 108.935 57.4563 105.494 64.9114C98.4255 65.0786 96.3418 63.8255 95.864 62.5407C94.9317 60.013 98.6778 57.3669 98.2811 53.2587C97.9364 49.7524 94.6114 47.1292 91.4586 45.3294C91.4472 45.3324 91.4329 45.3242 91.4072 45.319C88.0406 44.0353 86.2353 44.0481 83.9143 44.1749C82.7296 44.2387 81.7323 43.3708 81.6116 42.1955C81.2601 38.9809 80.8338 36.4384 79.1074 32.2155C78.2386 30.1056 76.136 28.5557 75.1697 26.9428C74.8458 26.4137 74.7508 25.7871 74.932 25.1951C75.1103 24.5918 75.4063 23.8846 75.864 23.1461C76.3662 22.3473 77.776 20.134 78.1944 19.6113C78.6792 18.9742 78.9843 18.4819 78.9224 17.7981C78.8297 16.5912 78.7074 16.4066 78.9001 14.9058C78.9976 14.2276 79.496 13.1883 79.629 12.5972C81.1406 12.3492 82.6544 12.2454 84.1532 12.2665C94.4595 12.4032 103.319 18.7362 107.542 27.7483C108.249 29.5272 108.892 31.3355 109.429 33.1599Z" fill="#EE7748" stroke="white" stroke-width="3.61211" stroke-miterlimit="10"/>
<path id="Vector_5" d="M39.4895 31.8424C38.8336 36.8244 28.075 37.0383 27.2266 41.7096C26.1712 47.5111 41.9006 51.8946 41.5917 59.9837C41.382 65.1359 34.8855 66.2608 35.1696 71.3532C35.5087 77.2399 44.4105 79.0209 44.8032 85.2435C44.9962 88.1383 43.2616 90.6801 41.5724 92.4853C30.5576 87.3941 19.362 79.272 12.7914 66.3482C11.7474 64.3093 10.7329 61.9728 9.85279 59.3224C9.10331 56.6613 8.64452 54.0429 8.40846 51.4857C8.39563 51.3925 8.38809 51.2738 8.38282 51.1182C8.25494 46.5636 9.23923 42.0371 11.4731 37.9606C13.5657 34.1273 16.8203 30.2363 21.828 27.7231C23.2076 27.0274 24.615 26.4812 26.0957 26.0724C26.6733 25.9176 27.2313 25.7802 27.787 25.6796C28.0362 25.6128 28.2831 25.5829 28.5157 25.5447C28.8615 25.4762 29.202 25.4333 29.5312 25.3934C29.7411 25.3613 29.9284 25.3352 30.13 25.3174C31.3675 25.1791 32.4502 25.1425 33.3034 25.1555C33.585 25.1645 33.878 25.1706 34.171 25.1766C34.3076 25.1883 34.4299 25.1917 34.5409 25.1982C34.7629 25.2112 34.9509 25.2333 35.0876 25.245C35.1616 25.2493 35.2129 25.2597 35.2612 25.2588L35.2726 25.2558C37.342 26.8629 39.825 29.289 39.4895 31.8424Z" fill="#EE7748" stroke="white" stroke-width="3.61211" stroke-miterlimit="10"/>
<path id="Vector_6" d="M80.3843 63.1745C79.9432 64.0656 80.0254 65.1424 80.5727 65.9619C80.8581 66.3926 81.1359 66.8857 81.3805 67.4361C82.0312 68.8678 82.2311 70.203 82.2831 71.1672C82.3042 71.6084 82.2226 72.0287 82.0414 72.4396C81.2016 74.3794 80.3753 76.6416 79.6676 79.2102C78.8979 82.0007 78.4348 84.5762 78.1741 86.8198C78.1386 87.095 78.1514 87.3693 78.1868 87.6375C78.303 88.343 78.3595 89.5959 77.7606 90.9398C77.7493 90.9428 77.744 90.9684 77.7357 90.9827C77.0349 92.5351 75.0732 93.0969 73.5927 92.2377C73.0445 91.9136 72.4609 91.5024 71.8985 90.989C69.882 89.1262 69.1619 86.8918 68.8955 85.6711C68.8004 85.2256 68.5981 84.833 68.3195 84.4729C67.3887 83.3094 66.1279 81.9566 64.4503 80.6793C61.9989 78.8243 59.5406 77.8045 57.6092 77.211C56.4208 76.8532 55.6138 75.7894 55.5377 74.5539C55.4985 73.8639 55.4759 73.1454 55.4586 72.4014C55.4376 70.8733 55.4922 69.4458 55.5852 68.1167C55.6351 67.4875 55.4887 66.8504 55.1505 66.3131C54.317 65.0149 53.4836 63.7166 52.6502 62.4184C52.1519 61.6462 52.0516 60.6828 52.368 59.8252C52.8507 58.5003 53.8339 56.6428 55.8281 55.2511C58.4944 53.3774 61.5341 53.7584 64.7272 54.1225C66.4048 54.313 68.8572 54.7669 71.6658 56.0068C72.3702 56.3253 73.1819 56.4097 73.9 56.1448C76.2354 55.3017 78.8583 56.1205 80.1341 58.073C81.1269 59.5581 81.1916 61.5212 80.3843 63.1745Z" fill="#EE7748" stroke="white" stroke-width="3.61211" stroke-miterlimit="10"/>
</g>
</g>
</svg>
