<svg width="50" height="46" viewBox="0 0 50 46" fill="none" xmlns="http://www.w3.org/2000/svg">
<g id="Calque_1" clip-path="url(#clip0_127_2255)">
<path id="Vector" d="M1.41268 15.22L17.2127 1.02C18.1627 0.17 19.4627 -0.18 20.7127 0.08L31.1227 2.28L41.2827 4.43C42.6527 4.72 43.7427 5.75 44.1027 7.1L49.3627 26.72C49.7527 28.17 49.2927 29.72 48.1727 30.73L32.4227 44.88C31.6227 45.6 30.5227 45.89 29.4727 45.67L8.76268 41.29C7.29268 40.98 6.11268 39.87 5.72268 38.41L0.402681 18.6C0.0726807 17.38 0.462681 16.07 1.40268 15.22H1.41268Z" fill="#F4F5F4"/>
<path id="Vector_2" d="M7.58252 18.32L20.9325 6.33L29.7125 8.19L38.4925 10.05L43.0825 27.18L29.7325 39.17L12.1725 35.46L7.58252 18.33V18.32Z" fill="#87DB61"/>
<path id="Vector_3" d="M7.58252 18.32L20.9325 6.33L29.7125 8.19M7.58252 18.32L12.1725 35.45L29.7325 39.16L43.0825 27.17L38.4925 10.04M7.58252 18.32L16.3625 20.18L25.1425 22.04M25.1425 22.04L38.4925 10.05M25.1425 22.04L29.7325 39.17M38.4925 10.03L29.7125 8.17L16.3625 20.16M15.5025 25.37L18.6925 26.04" stroke="#0D1710" stroke-width="2.4" stroke-linecap="round" stroke-linejoin="round"/>
</g>
<defs>
<clipPath id="clip0_127_2255">
<rect width="49.2" height="45.75" fill="white" transform="translate(0.29248)"/>
</clipPath>
</defs>
</svg>
