<svg width="108" height="124" viewBox="0 0 108 124" fill="none" xmlns="http://www.w3.org/2000/svg">
<g id="pointeur" clip-path="url(#clip0_125_472)">
<path id="Vector" d="M96.0319 53.5333C95.2319 52.0333 94.0319 50.8133 92.5419 49.9933L23.3419 11.5733C21.4019 10.4933 19.1019 10.1833 16.9419 10.7233C15.8219 11.0033 14.7719 11.5033 13.8519 12.2033C12.9319 12.8833 12.1519 13.7533 11.5619 14.7433C10.9719 15.7333 10.5719 16.8333 10.4019 17.9633C10.2419 19.1133 10.2919 20.2733 10.5719 21.3833L30.0619 98.5233C30.6319 100.783 32.0619 102.703 34.0619 103.903C36.0619 105.103 38.4319 105.453 40.6919 104.893C42.8319 104.353 44.7119 103.033 45.9519 101.133L52.1619 91.4533C53.0419 90.0933 55.0019 90.0133 55.9819 91.2933L69.9719 109.583C71.0119 110.953 72.4319 111.963 74.0519 112.533C75.6719 113.113 77.4119 113.193 79.0819 112.773C80.2419 112.483 81.3519 111.933 82.3319 111.183L91.4419 104.113C92.3519 103.393 93.1319 102.513 93.7019 101.493C94.2619 100.483 94.6319 99.3633 94.7719 98.2133C94.9019 97.0633 94.8019 95.8933 94.5019 94.7733C94.1819 93.6533 93.6319 92.6033 92.9219 91.7033L78.5019 73.6433C77.5019 72.3833 78.0319 70.5033 79.5619 69.9833L91.2019 65.9233C92.8019 65.3633 94.2019 64.3533 95.2419 63.0133C96.2819 61.6833 96.9119 60.0633 97.0519 58.3733C97.2019 56.6933 96.8419 55.0133 96.0419 53.5233L96.0319 53.5333ZM65.9219 65.4833L64.9719 65.8233C63.4519 66.3433 62.9119 68.2233 63.9119 69.4833L64.5519 70.2933L84.6019 95.3733C85.4219 96.3933 85.2319 97.8833 84.2119 98.6733L78.8319 102.843C77.8119 103.633 76.3319 103.443 75.5419 102.423L56.0019 76.8833L55.3919 76.0733C54.4119 74.7933 52.4519 74.8633 51.5719 76.2333L51.0319 77.0833L41.5119 91.8733C40.4119 93.5933 37.7819 93.1633 37.2819 91.1833L20.4119 24.4733C19.9119 22.4933 22.0219 20.8733 23.8119 21.8633L83.7419 55.1233C85.5019 56.1033 85.2819 58.7033 83.3719 59.3633L65.9219 65.4733V65.4833Z" fill="white"/>
<path id="Vector_2" fill-rule="evenodd" clip-rule="evenodd" d="M21.0911 22.1934C20.5011 22.7334 20.1811 23.5634 20.4111 24.4734L37.2611 91.1634C37.4911 92.0734 38.1711 92.6534 38.9411 92.8534C39.0711 92.8834 39.2011 92.9134 39.3411 92.9234C40.1411 92.9934 40.9811 92.6534 41.4911 91.8634L51.0111 77.0734L51.5511 76.2234C52.4311 74.8534 54.3911 74.7834 55.3711 76.0634L55.9811 76.8734L62.9411 85.9734L75.5211 102.413C75.7611 102.723 76.0711 102.963 76.4111 103.113C76.4211 103.113 76.4411 103.123 76.4511 103.133C76.5211 103.163 76.6011 103.193 76.6711 103.213C76.8611 103.273 77.0611 103.303 77.2511 103.313C77.2711 103.313 77.3011 103.313 77.3211 103.313C77.4511 103.313 77.5711 103.313 77.7011 103.293C77.7111 103.293 77.7311 103.293 77.7411 103.293C78.1211 103.233 78.4811 103.083 78.8011 102.833L84.1811 98.6634C84.5111 98.4034 84.7511 98.0834 84.9011 97.7134C84.9011 97.7034 84.9111 97.6834 84.9211 97.6734C84.9411 97.6234 84.9611 97.5634 84.9811 97.5134C84.9911 97.4734 85.0011 97.4334 85.0211 97.3834C85.0411 97.2934 85.0611 97.2034 85.0711 97.1134C85.0711 97.0734 85.0711 97.0434 85.0811 97.0034C85.0811 96.9134 85.0811 96.8134 85.0811 96.7234C85.0811 96.6934 85.0811 96.6534 85.0811 96.6234C85.0811 96.5634 85.0711 96.5134 85.0611 96.4534C85.0611 96.4334 85.0611 96.4134 85.0611 96.4034C84.9911 96.0334 84.8411 95.6734 84.5911 95.3634L64.5511 70.2834L63.9111 69.4734C62.9111 68.2134 63.4411 66.3334 64.9711 65.8134L65.9211 65.4734L83.3711 59.3634C84.2711 59.0534 84.7911 58.3134 84.9111 57.5134C84.9311 57.4034 84.9411 57.2934 84.9411 57.1834C84.9511 56.3834 84.5611 55.5734 83.7411 55.1134L23.8111 21.8634C22.9811 21.4034 22.0911 21.5034 21.4111 21.9334C21.2911 22.0034 21.1911 22.0934 21.0811 22.1834L21.0911 22.1934ZM34.4511 39.2134L63.9411 55.5834L62.6011 56.0534L61.6611 56.3834C57.4311 57.8534 54.6611 61.2734 53.7411 65.1434C49.6811 65.0734 45.6011 66.9734 43.1311 70.8334L42.6411 71.6134L34.4511 39.2234V39.2134ZM71.7611 63.2834C71.7611 63.2834 71.7411 63.2634 71.7411 63.2534H71.7511L71.7611 63.2834ZM78.0111 71.8434C77.9211 72.4534 78.0711 73.1034 78.5011 73.6434L92.9211 91.7034C93.6411 92.6034 94.1811 93.6434 94.5011 94.7734C94.8111 95.8834 94.9011 97.0534 94.7711 98.2134C94.6311 99.3734 94.2611 100.483 93.7011 101.493C93.1311 102.503 92.3511 103.393 91.4411 104.113L82.3311 111.183C81.3511 111.933 80.2411 112.483 79.0811 112.773C77.4211 113.193 75.6711 113.113 74.0511 112.533C72.4411 111.973 71.0211 110.953 69.9711 109.583L55.9811 91.2934C55.5611 90.7334 54.9511 90.4434 54.3311 90.3934C54.1411 90.3834 53.9411 90.3934 53.7511 90.4134C53.1311 90.5134 52.5411 90.8634 52.1611 91.4534L48.6811 96.8734L45.9511 101.133C45.9411 101.153 45.9211 101.173 45.9111 101.203C44.6711 103.063 42.8111 104.373 40.7011 104.903C38.4411 105.473 36.0711 105.113 34.0711 103.913C32.0811 102.723 30.6511 100.813 30.0811 98.5634C30.0811 98.5534 30.0811 98.5434 30.0811 98.5334L10.5711 21.3934C10.5711 21.3934 10.5711 21.3834 10.5711 21.3734C10.3011 20.2734 10.2411 19.1134 10.4011 17.9634C10.5611 16.8234 10.9611 15.7334 11.5611 14.7434C12.1511 13.7534 12.9311 12.8834 13.8511 12.2034C14.7711 11.5134 15.8211 11.0034 16.9411 10.7234C19.0911 10.1834 21.3711 10.4834 23.3011 11.5534C23.3111 11.5534 23.3211 11.5634 23.3411 11.5734L92.5411 49.9834C92.6111 50.0234 92.6711 50.0534 92.7411 50.0934C94.1311 50.9134 95.2711 52.0934 96.0311 53.5234C96.8311 55.0234 97.1911 56.6934 97.0411 58.3734C96.9011 60.0634 96.2711 61.6834 95.2311 63.0134C94.2411 64.2834 92.9311 65.2634 91.4311 65.8334C91.3511 65.8634 91.2711 65.8934 91.1911 65.9234L79.5511 69.9834C78.8811 70.2134 78.4011 70.7134 78.1511 71.2934C78.0811 71.4634 78.0311 71.6534 78.0011 71.8434H78.0111ZM54.6911 106.043L62.0411 115.653C64.2811 118.583 67.3211 120.753 70.7411 121.953C74.2211 123.183 77.9711 123.353 81.5211 122.463C84.0711 121.823 86.4111 120.653 88.4311 119.103H88.4511L97.6111 111.983L97.6411 111.963C99.5111 110.493 101.161 108.633 102.411 106.413L102.431 106.373L102.451 106.333C103.631 104.203 104.391 101.863 104.701 99.4334V99.3834L104.711 99.3334C104.991 96.8834 104.781 94.4234 104.141 92.1034V92.0534L104.111 92.0034C103.421 89.6134 102.271 87.3934 100.741 85.4734L93.0711 75.8634L94.4811 75.3734C97.9111 74.1834 100.911 72.0134 103.121 69.1734C105.361 66.3134 106.701 62.8534 107.011 59.2534C107.341 55.5434 106.521 51.9434 104.871 48.8434C103.171 45.6434 100.581 43.0034 97.4011 41.2534L28.2211 2.84342C28.2211 2.84342 28.2211 2.84342 28.2111 2.84342C24.0511 0.523419 19.1511 -0.136581 14.5111 1.02342C12.1111 1.62342 9.86108 2.69342 7.87108 4.18342C5.86108 5.67342 4.21108 7.53342 2.97108 9.60342C1.73108 11.6934 0.861078 14.0434 0.501078 16.5434V16.5634V16.5834C0.171078 18.9434 0.271078 21.4134 0.881078 23.8234L20.3711 100.963C21.5911 105.813 24.6811 109.933 28.9311 112.483C33.1911 115.033 38.2811 115.803 43.1311 114.593C47.7111 113.443 51.7211 110.603 54.3311 106.593L54.3511 106.563L54.6811 106.053L54.6911 106.043ZM27.5711 93.5934C27.5711 93.5934 27.5711 93.5934 27.5711 93.6034V93.5934Z" fill="white"/>
<g id="Group">
<path id="Vector_3" d="M65.4621 70.6833L85.0521 95.1833C86.1121 96.5133 85.8721 98.4533 84.5321 99.4933L80.2821 102.793C78.9421 103.833 77.0321 103.583 75.9921 102.243L56.8821 77.2733C55.6021 75.5833 53.0321 75.7033 51.8921 77.4733L43.2621 90.8933C41.8221 93.1333 38.3921 92.5733 37.7421 89.9933L21.7121 26.4733C21.0621 23.8833 23.8121 21.7633 26.1421 23.0633L83.2521 54.7633C85.5521 56.0433 85.2621 59.4333 82.7721 60.3033L66.8221 65.8933C64.8321 66.5833 64.1321 69.0233 65.4421 70.6633V70.6933H65.4621V70.6833Z" fill="white"/>
<path id="Vector_4" d="M78.4219 105.433C76.9119 105.433 75.4119 104.763 74.4119 103.473L55.3019 78.4833C55.0119 78.1033 54.6319 78.0634 54.4319 78.0733C54.2619 78.0733 53.8519 78.1433 53.5919 78.5533L44.9619 91.9734C43.8519 93.6934 41.9219 94.5534 39.8919 94.2234C37.8819 93.8933 36.3219 92.4534 35.8219 90.4734L19.7819 26.9633C19.2819 24.9733 19.9819 22.9633 21.6019 21.7233C23.2219 20.4833 25.3319 20.3233 27.1219 21.3133L84.2219 53.0133C85.9819 53.9933 86.9719 55.8534 86.8019 57.8633C86.6319 59.8733 85.3319 61.5333 83.4319 62.1933L67.4819 67.7833C67.0319 67.9433 66.8719 68.2933 66.8119 68.4833C66.7519 68.6733 66.7119 69.0533 66.9919 69.4133L67.2619 69.7634L86.6119 93.9533C87.4619 95.0133 87.8419 96.3433 87.6819 97.7033C87.5219 99.0533 86.8419 100.263 85.7619 101.093L81.5119 104.393C80.5919 105.103 79.5019 105.453 78.4219 105.453V105.433ZM54.4619 74.0733C56.0319 74.0733 57.5219 74.8033 58.4719 76.0633L77.5719 101.033C77.7419 101.253 77.9919 101.393 78.2719 101.433C78.5519 101.473 78.8219 101.393 79.0519 101.223L83.3019 97.9233C83.6019 97.6933 83.6819 97.3833 83.7019 97.2133C83.7219 97.0533 83.7219 96.7334 83.4819 96.4434L64.1019 72.2033L63.7019 71.9533L63.5919 71.5134C62.8019 70.2934 62.5619 68.7834 62.9719 67.3734C63.4219 65.8034 64.6219 64.5434 66.1619 64.0033L82.1119 58.4133C82.6919 58.2133 82.7919 57.7234 82.8119 57.5233C82.8319 57.3233 82.8119 56.8134 82.2719 56.5233L25.1819 24.8033C24.6419 24.5033 24.2019 24.7633 24.0419 24.8933C23.8719 25.0233 23.5119 25.3833 23.6619 25.9833L39.7019 89.4933C39.8519 90.0933 40.3419 90.2333 40.5419 90.2733C40.7419 90.3033 41.2619 90.3333 41.5919 89.8033L50.2219 76.3833C51.1119 75.0033 52.6319 74.1334 54.2719 74.0733C54.3419 74.0733 54.4019 74.0733 54.4719 74.0733H54.4619Z" fill="#1D1D1B"/>
</g>
</g>
<defs>
<clipPath id="clip0_125_472">
<rect width="106.76" height="122.57" fill="white" transform="translate(0.311523 0.463379)"/>
</clipPath>
</defs>
</svg>
