<svg width="133" height="166" viewBox="0 0 133 166" fill="none" xmlns="http://www.w3.org/2000/svg">
<g id="epee">
<path id="Union" fill-rule="evenodd" clip-rule="evenodd" d="M47.6523 95.1724V35.5389C47.6523 35.1497 47.7659 34.769 47.979 34.4434L63.0841 11.3695C63.8076 10.2642 65.3849 10.1516 66.2581 11.1429L85.1831 32.6257C85.5048 32.9909 85.6823 33.461 85.6823 33.9477V95.1724H101.652C102.205 95.1724 102.652 95.6201 102.652 96.1724V109.033C102.652 109.637 102.122 110.103 101.523 110.025L81.9822 107.474L73.0824 146.232C73.2924 146.912 73.4124 147.622 73.4124 148.372C73.4124 152.292 70.2424 155.462 66.3224 155.462C62.4025 155.462 59.2325 152.292 59.2325 148.372C59.2325 147.642 59.3425 146.932 59.5525 146.262L50.6482 107.507L30.7783 110.029C30.1808 110.105 29.6523 109.64 29.6523 109.037V96.1724C29.6523 95.6201 30.1001 95.1724 30.6523 95.1724H47.6523Z" fill="#1D1D1B"/>
<path id="Union (Stroke)" fill-rule="evenodd" clip-rule="evenodd" d="M92.6523 108.867L81.9822 107.474L73.0824 146.232C73.2924 146.912 73.4124 147.622 73.4124 148.372C73.4124 152.292 70.2424 155.462 66.3224 155.462C62.4025 155.462 59.2325 152.292 59.2325 148.372C59.2325 147.642 59.3425 146.932 59.5525 146.262L50.6482 107.507L39.6523 108.903L30.7783 110.029C30.1808 110.105 29.6523 109.64 29.6523 109.037V96.1723C29.6523 95.62 30.1001 95.1723 30.6523 95.1723H47.6523V35.5387C47.6523 35.1495 47.7659 34.7688 47.979 34.4433L63.0841 11.3693C63.8076 10.264 65.3849 10.1514 66.2581 11.1427L85.1831 32.6255C85.5048 32.9908 85.6823 33.4608 85.6823 33.9476V95.1723H101.652C102.205 95.1723 102.652 95.62 102.652 96.1723V109.033C102.652 109.637 102.122 110.103 101.523 110.025L92.6538 108.867L92.6523 108.867ZM95.6823 85.1723H101.652C107.727 85.1723 112.652 90.0971 112.652 96.1723V109.033C112.652 115.674 106.813 120.8 100.229 119.941L89.6956 118.566L83.2998 146.419C83.373 147.051 83.4124 147.703 83.4124 148.372C83.4124 157.815 75.7653 165.462 66.3224 165.462C56.8796 165.462 49.2325 157.815 49.2325 148.372C49.2325 147.733 49.268 147.096 49.3385 146.465L42.9288 118.567L32.0377 119.95C25.4655 120.784 19.6523 115.662 19.6523 109.037V96.1723C19.6523 90.0971 24.5772 85.1723 30.6523 85.1723H37.6523V35.5387C37.6523 33.2038 38.3335 30.9196 39.6123 28.9661L54.7174 5.89217C59.0586 -0.739331 68.5225 -1.41504 73.7618 4.53245L92.6867 26.0153C92.6867 26.0152 92.6867 26.0153 92.6867 26.0153C94.6173 28.2067 95.6823 31.0271 95.6823 33.9476V85.1723Z" fill="white"/>
<path id="Vector" d="M82.9723 103.162L49.6523 103.172L59.5525 146.262C59.3425 146.932 59.2325 147.642 59.2325 148.372C59.2325 152.292 62.4025 155.462 66.3224 155.462C70.2424 155.462 73.4124 152.292 73.4124 148.372C73.4124 147.622 73.2924 146.912 73.0824 146.232L82.9723 103.162Z" fill="#EE7748"/>
<path id="Vector (Stroke)" fill-rule="evenodd" clip-rule="evenodd" d="M95.5293 93.1587L83.2994 146.419C83.3726 147.051 83.412 147.703 83.412 148.372C83.412 157.815 75.7649 165.462 66.322 165.462C56.8792 165.462 49.2321 157.815 49.2321 148.372C49.2321 147.733 49.2676 147.097 49.3381 146.465L37.0947 93.1762L95.5293 93.1587ZM59.5521 146.262C59.3421 146.932 59.2321 147.642 59.2321 148.372C59.2321 152.292 62.4021 155.462 66.322 155.462C70.242 155.462 73.412 152.292 73.412 148.372C73.412 147.622 73.292 146.912 73.082 146.232L82.972 103.162L49.652 103.172L59.5521 146.262Z" fill="white"/>
<path id="Vector (Stroke)_2" fill-rule="evenodd" clip-rule="evenodd" d="M54.6523 112.172C54.6523 111.62 55.1001 111.172 55.6523 111.172H77.6523C78.2046 111.172 78.6523 111.62 78.6523 112.172C78.6523 112.725 78.2046 113.172 77.6523 113.172H55.6523C55.1001 113.172 54.6523 112.725 54.6523 112.172Z" fill="white"/>
<path id="Vector (Stroke)_3" fill-rule="evenodd" clip-rule="evenodd" d="M57.6074 122.672C57.6074 122.12 58.0551 121.672 58.6074 121.672H74.6074C75.1597 121.672 75.6074 122.12 75.6074 122.672C75.6074 123.225 75.1597 123.672 74.6074 123.672H58.6074C58.0551 123.672 57.6074 123.225 57.6074 122.672Z" fill="white"/>
<path id="Vector (Stroke)_4" fill-rule="evenodd" clip-rule="evenodd" d="M59.1074 133.172C59.1074 132.62 59.5551 132.172 60.1074 132.172L73.1074 132.172C73.6597 132.172 74.1074 132.62 74.1074 133.172C74.1074 133.725 73.6597 134.172 73.1074 134.172L60.1074 134.172C59.5551 134.172 59.1074 133.725 59.1074 133.172Z" fill="white"/>
<path id="Vector_2" d="M47.6523 95.2224V35.5388C47.6523 35.1497 47.7659 34.769 47.979 34.4434L63.0841 11.3694C63.8076 10.2642 66.5493 10.1516 67.4225 11.1429L85.1831 32.6256C85.5048 32.9909 85.6823 33.4609 85.6823 33.9477V95.2224H47.6523Z" fill="#EE7748"/>
<path id="Vector (Stroke)_5" fill-rule="evenodd" clip-rule="evenodd" d="M37.6523 105.222V35.5387C37.6523 33.2038 38.3335 30.9196 39.6123 28.9661L55.391 5.89217C59.7322 -0.739326 69.196 -1.41504 74.4354 4.53245L92.6867 26.0153C94.6173 28.2067 95.6823 31.027 95.6823 33.9475V105.222H37.6523ZM85.1831 32.6255C85.5048 32.9907 85.6823 33.4608 85.6823 33.9475V95.2222H47.6523V35.5387C47.6523 35.1495 47.7659 34.7688 47.979 34.4432L63.7576 11.3693C64.4812 10.264 66.0585 10.1514 66.9317 11.1427L85.1831 32.6255Z" fill="white"/>
<path id="Vector (Stroke)_6" fill-rule="evenodd" clip-rule="evenodd" d="M66.4355 74.7861L79.6281 87.451C80.0265 87.8334 80.0394 88.4665 79.6569 88.8649C79.2745 89.2633 78.6414 89.2762 78.243 88.8937L66.4355 77.5586L54.6281 88.8937C54.2297 89.2762 53.5966 89.2633 53.2142 88.8649C52.8317 88.4665 52.8446 87.8334 53.243 87.451L66.4355 74.7861Z" fill="white"/>
<path id="Vector (Stroke)_7" fill-rule="evenodd" clip-rule="evenodd" d="M66.4355 22.8862C66.9878 22.8862 67.4355 23.3339 67.4355 23.8862L67.4355 75.8862C67.4355 76.4385 66.9878 76.8862 66.4355 76.8862C65.8833 76.8862 65.4355 76.4385 65.4355 75.8862L65.4355 23.8862C65.4355 23.3339 65.8833 22.8862 66.4355 22.8862Z" fill="white"/>
<path id="Vector_3" d="M29.6523 96.1724C29.6523 95.6201 30.1001 95.1724 30.6523 95.1724H101.652C102.205 95.1724 102.652 95.6201 102.652 96.1724V109.033C102.652 109.637 102.122 110.103 101.523 110.025L66.7878 105.491C66.7031 105.48 66.6173 105.48 66.5325 105.49L30.7783 110.029C30.1808 110.105 29.6523 109.64 29.6523 109.037V96.1724Z" fill="#1D1D1B"/>
</g>
</svg>
