<svg width="118" height="120" viewBox="0 0 118 120" fill="none" xmlns="http://www.w3.org/2000/svg">
<g id="Calque_1">
<g id="Group">
<path id="Vector" d="M74.897 41.886C74.767 42.316 74.627 42.786 75.007 43.146C75.497 43.606 76.037 43.316 76.447 43.026C77.777 42.096 79.327 41.756 80.887 41.396C90.867 39.036 100.917 45.606 102.027 55.486C102.767 61.966 100.397 67.236 94.487 70.716C89.927 73.406 85.037 73.696 79.967 72.496C79.407 72.366 78.757 71.816 78.277 72.406C77.737 73.076 78.447 73.626 78.777 74.176C81.417 78.566 83.317 83.176 83.787 88.316C83.897 89.536 83.497 92.866 83.327 93.346C81.697 97.976 79.277 101.736 73.897 103.106C70.217 104.056 67.117 103.046 64.297 101.166C61.937 99.596 60.007 97.466 58.497 95.006C57.887 94.016 57.697 93.356 57.357 92.636C56.117 89.526 54.797 84.486 54.207 81.296C54.127 80.826 54.287 80.136 53.577 80.036C52.957 79.946 52.707 80.566 52.367 80.936C50.107 83.436 47.807 85.876 45.047 87.906C40.147 91.496 34.777 92.976 28.727 91.776C19.687 89.996 13.597 78.946 17.287 70.756C19.177 66.556 22.747 63.916 27.067 62.226C27.837 61.926 28.877 61.766 28.937 60.836C29.007 59.896 27.967 59.626 27.277 59.216C23.007 56.816 19.297 53.916 16.957 49.516C12.217 40.606 17.127 29.966 27.517 29.296C32.617 28.966 36.967 31.326 40.747 34.476C42.407 35.856 43.797 37.566 45.307 39.126C45.817 39.656 46.247 40.566 47.077 40.236C47.767 39.956 47.477 39.036 47.397 38.436C47.137 36.226 47.047 29.296 48.727 24.646C49.027 23.806 49.407 22.776 50.197 21.656C53.727 16.696 62.037 14.846 67.337 16.796C74.617 19.466 79.437 30.436 74.907 41.896L74.897 41.886ZM52.797 57.696C52.857 60.936 55.147 63.046 58.467 62.936C61.477 62.836 63.567 60.536 63.457 57.466C63.347 54.426 60.917 52.266 57.737 52.376C55.367 52.466 52.247 54.926 52.787 57.686L52.797 57.696Z" fill="#EE7748"/>
<path id="Vector_2" d="M62.6566 16.0361C64.3266 16.0361 65.9266 16.2861 67.3166 16.7961C74.5966 19.4661 79.4166 30.4361 74.8866 41.8961C74.7566 42.3261 74.6166 42.7961 74.9966 43.1561C75.1766 43.3261 75.3766 43.3961 75.5566 43.3961C75.8666 43.3961 76.1766 43.2161 76.4366 43.0261C77.7666 42.0961 79.3167 41.7561 80.8766 41.3961C82.2566 41.0761 83.6367 40.9161 84.9866 40.9161C93.4566 40.9161 101.057 46.9761 102.017 55.4861C102.757 61.9661 100.387 67.2361 94.4766 70.7161C91.5666 72.4261 88.5266 73.1661 85.3766 73.1661C83.5966 73.1661 81.7866 72.9261 79.9466 72.4961C79.5766 72.4061 79.1666 72.1361 78.7866 72.1361C78.5966 72.1361 78.4166 72.2061 78.2566 72.4061C77.7166 73.0761 78.4266 73.6261 78.7566 74.1761C81.3966 78.5661 83.2966 83.1761 83.7666 88.3161C83.8766 89.5361 83.4766 92.8661 83.3066 93.3461C81.6767 97.9761 79.2566 101.736 73.8766 103.106C72.9166 103.356 71.9966 103.466 71.1066 103.466C68.5966 103.466 66.3566 102.556 64.2666 101.156C61.9066 99.5861 59.9766 97.4561 58.4666 94.9961C57.8566 94.0061 57.6666 93.3461 57.3266 92.6261C56.0866 89.5161 54.7666 84.4761 54.1766 81.2861C54.0966 80.8161 54.2566 80.1261 53.5466 80.0261C53.5066 80.0261 53.4666 80.0261 53.4266 80.0261C52.8966 80.0261 52.6466 80.5861 52.3266 80.9361C50.0666 83.4361 47.7666 85.8761 45.0066 87.9061C41.2266 90.6761 37.1766 92.1861 32.7366 92.1861C31.4166 92.1861 30.0666 92.0561 28.6866 91.7761C19.6466 89.9961 13.5566 78.9461 17.2466 70.7561C19.1366 66.5561 22.7066 63.9161 27.0266 62.2261C27.7966 61.9261 28.8366 61.7661 28.8966 60.8361C28.9666 59.8961 27.9266 59.6261 27.2366 59.2161C22.9666 56.8161 19.2566 53.9161 16.9166 49.5161C12.1766 40.6061 17.0866 29.9661 27.4766 29.2961C27.7966 29.2761 28.1166 29.2661 28.4266 29.2661C33.1166 29.2661 37.1566 31.5261 40.7066 34.4861C42.3666 35.8661 43.7566 37.5761 45.2666 39.1361C45.6966 39.5861 46.0766 40.3161 46.6966 40.3161C46.8066 40.3161 46.9166 40.2961 47.0366 40.2461C47.7266 39.9661 47.4366 39.0461 47.3566 38.4461C47.0966 36.2361 47.0066 29.3061 48.6866 24.6561C48.9866 23.8161 49.3666 22.7861 50.1566 21.6661C52.7566 18.0061 57.9566 16.0461 62.6366 16.0461M58.1766 62.9561C58.2666 62.9561 58.3466 62.9561 58.4366 62.9561C61.4466 62.8561 63.5366 60.5561 63.4266 57.4861C63.3166 54.5261 61.0166 52.3961 57.9566 52.3961C57.8766 52.3961 57.7966 52.3961 57.7166 52.3961C55.3466 52.4861 52.2266 54.9461 52.7666 57.7061C52.8266 60.8661 54.9966 62.9561 58.1766 62.9561ZM62.6366 6.04613C54.2266 6.04613 46.3166 9.81613 42.0066 15.8761L41.9866 15.8961L41.9666 15.9161C40.3966 18.1561 39.6666 20.1761 39.2766 21.2561C39.2266 21.3961 39.1766 21.5261 39.1366 21.6661C35.6466 20.0661 32.0966 19.2761 28.4166 19.2761C27.8866 19.2761 27.3466 19.2961 26.8166 19.3261C18.7166 19.8461 11.8666 24.0861 8.03664 30.9561C4.07664 38.0561 4.09664 46.7561 8.07664 54.2261C9.31664 56.5461 10.7666 58.5361 12.3266 60.2461C10.5966 62.1461 9.18664 64.2861 8.11664 66.6561C5.16664 73.2161 5.51664 80.9561 9.09664 87.8861C12.7766 95.0161 19.3666 100.136 26.7366 101.586C28.7366 101.986 30.7566 102.186 32.7266 102.186C38.2766 102.186 43.5866 100.636 48.5566 97.5561C48.8366 98.2161 49.2666 99.1361 49.9366 100.226C52.2966 104.066 55.2466 107.176 58.7266 109.486C62.6766 112.126 66.8466 113.466 71.1066 113.466C72.8566 113.466 74.6166 113.236 76.3666 112.786C88.1266 109.776 91.5966 99.8961 92.7366 96.6561V96.6261L92.7566 96.5961C93.4866 94.4661 93.9166 89.6261 93.7166 87.4161C93.5566 85.6561 93.2666 83.9161 92.8566 82.1761C95.1766 81.5361 97.4166 80.5861 99.5366 79.3361C108.607 73.9961 113.127 64.8861 111.937 54.3561C110.487 41.5061 99.7166 31.6861 86.5566 30.9561C86.3366 27.2661 85.4866 23.6661 84.0066 20.3661C81.2066 14.1161 76.4967 9.51613 70.7366 7.40613C68.2566 6.49613 65.5266 6.03613 62.6366 6.03613V6.04613Z" fill="white"/>
</g>
<path id="Vector_3" d="M49.9965 57.9562C49.2965 54.3462 53.3065 51.1062 56.3565 51.0062C60.4365 50.8562 63.5465 53.6862 63.6865 57.6662C63.8265 61.6862 61.1365 64.6862 57.2865 64.8362C53.0265 64.9862 50.0965 62.2162 50.0065 57.9762H49.9965V57.9562Z" fill="#203726"/>
</g>
</svg>
