<svg width="33" height="32" viewBox="0 0 33 32" fill="none" xmlns="http://www.w3.org/2000/svg">
<g id="mdi:instagram">
<path id="Vector" d="M10.8998 2.66675H22.0998C26.3665 2.66675 29.8332 6.13341 29.8332 10.4001V21.6001C29.8332 23.6511 29.0184 25.6181 27.5681 27.0684C26.1178 28.5187 24.1508 29.3334 22.0998 29.3334H10.8998C6.63317 29.3334 3.1665 25.8667 3.1665 21.6001V10.4001C3.1665 8.34907 3.98126 6.38207 5.43154 4.93179C6.88183 3.48151 8.84883 2.66675 10.8998 2.66675ZM10.6332 5.33341C9.36013 5.33341 8.13923 5.83913 7.23906 6.7393C6.33888 7.63948 5.83317 8.86037 5.83317 10.1334V21.8667C5.83317 24.5201 7.97984 26.6667 10.6332 26.6667H22.3665C23.6395 26.6667 24.8604 26.161 25.7606 25.2609C26.6608 24.3607 27.1665 23.1398 27.1665 21.8667V10.1334C27.1665 7.48008 25.0198 5.33341 22.3665 5.33341H10.6332ZM23.4998 7.33341C23.9419 7.33341 24.3658 7.50901 24.6783 7.82157C24.9909 8.13413 25.1665 8.55805 25.1665 9.00008C25.1665 9.44211 24.9909 9.86603 24.6783 10.1786C24.3658 10.4912 23.9419 10.6667 23.4998 10.6667C23.0578 10.6667 22.6339 10.4912 22.3213 10.1786C22.0088 9.86603 21.8332 9.44211 21.8332 9.00008C21.8332 8.55805 22.0088 8.13413 22.3213 7.82157C22.6339 7.50901 23.0578 7.33341 23.4998 7.33341ZM16.4998 9.33341C18.2679 9.33341 19.9636 10.0358 21.2139 11.286C22.4641 12.5363 23.1665 14.232 23.1665 16.0001C23.1665 17.7682 22.4641 19.4639 21.2139 20.7141C19.9636 21.9644 18.2679 22.6667 16.4998 22.6667C14.7317 22.6667 13.036 21.9644 11.7858 20.7141C10.5355 19.4639 9.83317 17.7682 9.83317 16.0001C9.83317 14.232 10.5355 12.5363 11.7858 11.286C13.036 10.0358 14.7317 9.33341 16.4998 9.33341ZM16.4998 12.0001C15.439 12.0001 14.4216 12.4215 13.6714 13.1717C12.9213 13.9218 12.4998 14.9392 12.4998 16.0001C12.4998 17.0609 12.9213 18.0784 13.6714 18.8285C14.4216 19.5787 15.439 20.0001 16.4998 20.0001C17.5607 20.0001 18.5781 19.5787 19.3283 18.8285C20.0784 18.0784 20.4998 17.0609 20.4998 16.0001C20.4998 14.9392 20.0784 13.9218 19.3283 13.1717C18.5781 12.4215 17.5607 12.0001 16.4998 12.0001Z" fill="white"/>
</g>
</svg>
