<svg width="138" height="92" viewBox="0 0 138 92" fill="none" xmlns="http://www.w3.org/2000/svg">
<g clip-path="url(#clip0_181_1746)">
<path d="M0.915039 44.0999V7.67993H7.70504L10.625 26.5599L10.875 28.4899H10.975L11.225 26.5599L14.145 7.67993H20.935V44.0999H15.975V19.6699H15.675L15.475 21.2099L12.305 44.0999H9.53504L6.36504 21.2099L6.16504 19.6699H5.86504V44.0999H0.915039Z" fill="#203726"/>
<path d="M23.7751 44.0999L29.2751 7.67993H35.8151L41.3151 44.0999H36.1151L35.1251 36.6699H29.9751L28.9851 44.0999H23.7851H23.7751ZM30.7151 31.0199H34.3851L32.8451 18.7799L32.6951 16.8499H32.3951L32.2451 18.7799L30.7051 31.0199H30.7151Z" fill="#203726"/>
<path d="M53.535 44.0999V28.7399H52.595L49.575 44.0999H44.225L47.865 26.7799C46.845 26.0899 45.965 24.9899 45.255 23.4999C44.535 22.0099 44.175 20.2299 44.175 18.1899C44.175 14.7399 44.935 12.1199 46.455 10.3499C47.975 8.57994 50.335 7.68994 53.535 7.68994H58.885V44.1099H53.535V44.0999ZM53.535 12.9799C52.035 12.9799 50.995 13.4499 50.425 14.3799C49.855 15.3099 49.575 16.6499 49.575 18.3799C49.575 19.4899 49.695 20.4399 49.945 21.2499C50.195 22.0599 50.605 22.6799 51.185 23.1199C51.765 23.5599 52.545 23.7799 53.535 23.7799V12.9799Z" fill="#203726"/>
<path d="M68.745 44.5C67.225 44.5 65.935 44.16 64.865 43.47C63.795 42.78 62.985 41.85 62.435 40.66C61.885 39.47 61.605 38.13 61.605 36.62V15.16C61.605 13.67 61.885 12.34 62.455 11.15C63.025 9.96004 63.845 9.02004 64.925 8.33004C66.005 7.64004 67.275 7.29004 68.745 7.29004C69.855 7.29004 70.845 7.50004 71.715 7.91004C72.595 8.32004 73.335 8.89004 73.955 9.61004C74.575 10.33 75.045 11.16 75.375 12.11C75.705 13.06 75.875 14.08 75.875 15.17V20.18H70.875V15.17C70.875 14.41 70.715 13.77 70.405 13.26C70.095 12.75 69.575 12.49 68.845 12.49C68.185 12.49 67.705 12.75 67.405 13.28C67.105 13.81 66.965 14.44 66.965 15.16V36.62C66.965 37.35 67.125 37.97 67.445 38.5C67.765 39.03 68.235 39.29 68.845 39.29C69.585 39.29 70.115 39.03 70.415 38.52C70.725 38.01 70.875 37.37 70.875 36.61V31.6H75.875V36.61C75.875 38.1 75.585 39.43 75.005 40.62C74.425 41.81 73.605 42.75 72.535 43.44C71.465 44.13 70.205 44.48 68.735 44.48L68.745 44.5Z" fill="#203726"/>
<path d="M79.595 44.0999V7.67993H84.945V22.7399H89.105V7.67993H94.455V44.0999H89.105V28.2399H84.945V44.0999H79.595Z" fill="#203726"/>
<path d="M98.425 44.1V7.68H110.665V13.18H103.775V22.74H108.725V28.59H103.775V38.6H110.665V44.1H98.425ZM102.145 4.46L104.725 0H109.925L106.015 4.46H102.145Z" fill="#203726"/>
<path d="M55.4551 81.4899L6.56508 91.2099L0.455078 60.49L48.4251 50.95L55.4551 81.4899Z" fill="#87DB61"/>
<path d="M17.8251 85.7301C16.8451 85.9201 15.9651 85.8701 15.1951 85.5601C14.4251 85.2501 13.7751 84.7501 13.2651 84.0601C12.7551 83.3601 12.4051 82.5301 12.2151 81.5601L9.46513 67.7201C9.27513 66.7601 9.28513 65.8601 9.50513 65.0201C9.72513 64.1801 10.1251 63.4701 10.7351 62.8801C11.3451 62.2901 12.1151 61.9101 13.0651 61.7201C13.7751 61.5801 14.4451 61.5801 15.0651 61.7401C15.6851 61.8901 16.2351 62.1601 16.7251 62.5501C17.2151 62.9301 17.6251 63.4101 17.9651 63.9801C18.3051 64.5501 18.5351 65.1901 18.6751 65.8901L19.3151 69.1201L16.0851 69.7601L15.4451 66.5301C15.3451 66.0401 15.1651 65.6501 14.8951 65.3601C14.6251 65.0701 14.2551 64.9701 13.7851 65.0701C13.3551 65.1501 13.0851 65.3901 12.9551 65.7701C12.8351 66.1501 12.8151 66.5701 12.9051 67.0401L15.6551 80.8801C15.7451 81.3501 15.9351 81.7301 16.2051 82.0301C16.4851 82.3301 16.8151 82.4401 17.2051 82.3601C17.6851 82.2601 17.9851 82.0301 18.1251 81.6601C18.2551 81.2901 18.2751 80.8601 18.1751 80.3701L17.5351 77.1401L20.7651 76.5001L21.4051 79.7301C21.5951 80.6901 21.5851 81.5901 21.3651 82.4301C21.1451 83.2701 20.7351 83.9801 20.1351 84.5701C19.5351 85.1601 18.7651 85.5401 17.8151 85.7301H17.8251Z" fill="white"/>
<path d="M29.2651 83.4601C28.3051 83.6501 27.4351 83.5901 26.6651 83.2801C25.8851 82.9701 25.2451 82.4701 24.7251 81.7701C24.2051 81.0801 23.8451 80.2501 23.6551 79.2901L20.9051 65.4501C20.7151 64.4801 20.7251 63.5801 20.9451 62.7401C21.1651 61.9101 21.5651 61.2001 22.1651 60.6101C22.7651 60.0301 23.5451 59.6401 24.5051 59.4501C25.4651 59.2601 26.3351 59.3201 27.1051 59.6301C27.8851 59.9401 28.5251 60.4401 29.0451 61.1401C29.5651 61.8301 29.9251 62.6601 30.1151 63.6201L32.8651 77.4601C33.0551 78.4201 33.0451 79.3201 32.8251 80.1601C32.6051 81.0001 32.2051 81.7101 31.6051 82.3001C31.0051 82.8801 30.2251 83.2701 29.2651 83.4601ZM28.5951 80.1001C29.0251 80.0201 29.2851 79.7801 29.3851 79.3901C29.4851 79.0001 29.4951 78.5901 29.4051 78.1501L26.6551 64.3101C26.5651 63.8701 26.3951 63.4901 26.1451 63.1701C25.8951 62.8501 25.5651 62.7301 25.1651 62.8101C24.7651 62.8901 24.5151 63.1201 24.3951 63.5201C24.2751 63.9101 24.2651 64.3301 24.3551 64.7701L27.1051 78.6101C27.1951 79.0501 27.3651 79.4301 27.6151 79.7501C27.8651 80.0701 28.1951 80.1901 28.6051 80.1101L28.5951 80.1001Z" fill="white"/>
<path d="M36.2152 81.8101L31.5452 58.3201L34.7752 57.6801L40.4052 69.2901L40.9052 70.3201L41.0952 70.2801L38.4452 56.9501L41.6152 56.3201L46.2852 79.8101L43.3752 80.3901L37.4252 68.8501L36.9252 67.8201L36.7352 67.8601L39.3852 81.1901L36.2252 81.8201L36.2152 81.8101Z" fill="white"/>
<path d="M51.7251 86.8599C50.2551 86.8599 49.0351 86.6199 48.0551 86.1299C47.0751 85.6399 46.3151 84.9399 45.7551 84.0099C45.1951 83.0899 44.7951 81.9699 44.5551 80.6699C44.3151 79.3699 44.1951 77.8999 44.1951 76.2599L49.4451 75.7599C49.4451 76.5499 49.4751 77.3199 49.5351 78.0499C49.5951 78.7899 49.6951 79.4499 49.8551 80.0299C50.0151 80.6099 50.2451 81.0799 50.5451 81.4299C50.8551 81.7799 51.2451 81.9499 51.7251 81.9499C52.5151 81.9499 53.0751 81.5799 53.4051 80.8499C53.7351 80.1199 53.9051 79.2299 53.9051 78.1899C53.9051 77.1499 53.6351 76.0699 53.0851 74.9399C52.5351 73.8199 51.8851 72.7499 51.1251 71.7399C49.8351 70.0199 48.7051 68.4299 47.7451 66.9599C46.7751 65.4899 46.0251 64.0399 45.4851 62.6199C44.9451 61.1999 44.6751 59.7099 44.6751 58.1599C44.6751 56.9399 44.8351 55.8099 45.1451 54.7799C45.4551 53.7499 45.9151 52.8499 46.5251 52.0799C47.1251 51.3099 47.8551 50.7099 48.7151 50.2799C49.5751 49.8499 50.5551 49.6399 51.6651 49.6399C53.0351 49.6399 54.1951 49.8699 55.1451 50.3299C56.0951 50.7899 56.8651 51.4499 57.4451 52.3099C58.0251 53.1699 58.4651 54.1899 58.7351 55.3699C59.0051 56.5499 59.1451 57.8599 59.1451 59.2999L53.8951 59.7899C53.8951 59.1799 53.8651 58.5599 53.8051 57.9399C53.7451 57.3199 53.6451 56.7499 53.4951 56.2399C53.3451 55.7299 53.1351 55.3199 52.8551 54.9999C52.5751 54.6799 52.2151 54.5299 51.7651 54.5299C51.0751 54.5299 50.5951 54.8199 50.3251 55.4099C50.0651 55.9999 49.9251 56.8299 49.9251 57.8999C49.9251 59.2899 50.2951 60.6299 51.0351 61.9099C51.7751 63.1999 52.7751 64.6999 54.0351 66.4199C55.5351 68.4499 56.7651 70.3199 57.7151 72.0199C58.6651 73.7199 59.1351 75.5999 59.1351 77.6699C59.1351 78.9799 58.9951 80.1799 58.7151 81.2999C58.4351 82.4199 57.9951 83.3899 57.3851 84.2099C56.7851 85.0399 56.0151 85.6799 55.0851 86.1399C54.1551 86.5999 53.0251 86.8299 51.7051 86.8299L51.7251 86.8599Z" fill="#203726"/>
<path d="M68.9252 86.8599C67.4052 86.8599 66.1152 86.5199 65.0452 85.8299C63.9752 85.1399 63.1652 84.2099 62.6152 83.0199C62.0652 81.8299 61.7852 80.4899 61.7852 78.9799V57.5199C61.7852 56.0299 62.0652 54.6999 62.6352 53.5099C63.2052 52.3199 64.0252 51.3799 65.1052 50.6899C66.1852 49.9999 67.4552 49.6499 68.9252 49.6499C70.0352 49.6499 71.0252 49.8599 71.8952 50.2699C72.7752 50.6799 73.5152 51.2499 74.1352 51.9699C74.7552 52.6899 75.2252 53.5199 75.5552 54.4699C75.8852 55.4199 76.0552 56.4399 76.0552 57.5299V62.5399H71.0552V57.5299C71.0552 56.7699 70.8952 56.1299 70.5852 55.6199C70.2752 55.1099 69.7552 54.8499 69.0252 54.8499C68.3652 54.8499 67.8852 55.1099 67.5852 55.6399C67.2852 56.1699 67.1452 56.7999 67.1452 57.5199V78.9799C67.1452 79.7099 67.3052 80.3299 67.6252 80.8599C67.9452 81.3899 68.4152 81.6499 69.0252 81.6499C69.7652 81.6499 70.2952 81.3899 70.5952 80.8799C70.9052 80.3699 71.0552 79.7299 71.0552 78.9699V73.9599H76.0552V78.9699C76.0552 80.4599 75.7652 81.7899 75.1852 82.9799C74.6052 84.1699 73.7852 85.1099 72.7152 85.7999C71.6452 86.4899 70.3852 86.8399 68.9152 86.8399L68.9252 86.8599Z" fill="#203726"/>
<path d="M79.7751 86.46V50.04H85.1251V86.46H79.7751Z" fill="#203726"/>
<path d="M89.085 86.46V50.04H101.325V55.54H94.435V65.35H99.385V70.7H94.435V80.96H101.325V86.46H89.085Z" fill="#203726"/>
<path d="M119.205 50.05V86.4701H114.205L109.255 67.49L108.805 65.81H108.505V86.4701H103.595V50.05H108.105L113.555 69.03L114.005 70.71H114.305V50.05H119.205Z" fill="#203726"/>
<path d="M121.145 86.46L127.145 55.54H122.095V50.04H137.555V55.54H132.505L126.505 86.46H121.155H121.145Z" fill="#203726"/>
</g>
<defs>
<clipPath id="clip0_181_1746">
<rect width="137.09" height="91.21" fill="white" transform="translate(0.455078)"/>
</clipPath>
</defs>
</svg>
