<svg width="161" height="114" viewBox="0 0 161 114" fill="none" xmlns="http://www.w3.org/2000/svg">
<rect width="161" height="114" fill="#203726"/>
<path d="M65 92.49L16.11 102.21L10 71.49L57.97 61.95L65 92.49Z" fill="#87DB61"/>
<path d="M10.46 55.1V18.68H17.25L20.17 37.56L20.42 39.49H20.52L20.77 37.56L23.69 18.68H30.48V55.1H25.52V30.67H25.22L25.02 32.21L21.85 55.1H19.08L15.91 32.21L15.71 30.67H15.41V55.1H10.46Z" fill="white"/>
<path d="M33.3198 55.1L38.8198 18.68H45.3598L50.8598 55.1H45.6598L44.6698 47.67H39.5198L38.5298 55.1H33.3298H33.3198ZM40.2598 42.02H43.9298L42.3898 29.78L42.2398 27.85H41.9398L41.7898 29.78L40.2498 42.02H40.2598Z" fill="white"/>
<path d="M63.0802 55.1V39.74H62.1402L59.1202 55.1H53.7702L57.4102 37.78C56.3902 37.09 55.5102 35.99 54.8002 34.5C54.0802 33.01 53.7202 31.23 53.7202 29.19C53.7202 25.74 54.4802 23.12 56.0002 21.35C57.5202 19.58 59.8802 18.69 63.0802 18.69H68.4302V55.11H63.0802V55.1ZM63.0802 23.98C61.5802 23.98 60.5402 24.45 59.9702 25.38C59.4002 26.31 59.1202 27.65 59.1202 29.38C59.1202 30.49 59.2402 31.44 59.4902 32.25C59.7402 33.06 60.1502 33.68 60.7302 34.12C61.3102 34.56 62.0902 34.78 63.0802 34.78V23.98Z" fill="white"/>
<path d="M78.2899 55.5C76.7699 55.5 75.4799 55.16 74.4099 54.47C73.3399 53.78 72.5299 52.85 71.9799 51.66C71.4299 50.47 71.1499 49.13 71.1499 47.62V26.16C71.1499 24.67 71.4299 23.34 71.9999 22.15C72.5699 20.96 73.3899 20.02 74.4699 19.33C75.5499 18.64 76.8199 18.29 78.2899 18.29C79.3999 18.29 80.3899 18.5 81.2599 18.91C82.1399 19.32 82.8799 19.89 83.4999 20.61C84.1199 21.33 84.5899 22.16 84.9199 23.11C85.2499 24.06 85.4199 25.08 85.4199 26.17V31.18H80.4199V26.17C80.4199 25.41 80.2599 24.77 79.9499 24.26C79.6399 23.75 79.1199 23.49 78.3899 23.49C77.7299 23.49 77.2499 23.75 76.9499 24.28C76.6499 24.81 76.5099 25.44 76.5099 26.16V47.62C76.5099 48.35 76.6699 48.97 76.9899 49.5C77.3099 50.03 77.7799 50.29 78.3899 50.29C79.1299 50.29 79.6599 50.03 79.9599 49.52C80.2699 49.01 80.4199 48.37 80.4199 47.61V42.6H85.4199V47.61C85.4199 49.1 85.1299 50.43 84.5499 51.62C83.9699 52.81 83.1499 53.75 82.0799 54.44C81.0099 55.13 79.7499 55.48 78.2799 55.48L78.2899 55.5Z" fill="white"/>
<path d="M89.1401 55.1V18.68H94.4901V33.74H98.6501V18.68H104V55.1H98.6501V39.24H94.4901V55.1H89.1401Z" fill="white"/>
<path d="M107.97 55.1V18.68H120.21V24.18H113.32V33.74H118.27V39.59H113.32V49.6H120.21V55.1H107.97ZM111.69 15.46L114.27 11H119.47L115.56 15.46H111.69Z" fill="white"/>
<path d="M27.3698 96.73C26.3898 96.92 25.5098 96.87 24.7398 96.56C23.9698 96.25 23.3198 95.75 22.8098 95.06C22.2998 94.36 21.9498 93.53 21.7598 92.56L19.0098 78.72C18.8198 77.76 18.8298 76.86 19.0498 76.02C19.2698 75.18 19.6698 74.47 20.2798 73.88C20.8898 73.29 21.6598 72.91 22.6098 72.72C23.3198 72.58 23.9898 72.58 24.6098 72.74C25.2298 72.89 25.7798 73.16 26.2698 73.55C26.7598 73.93 27.1698 74.41 27.5098 74.98C27.8498 75.55 28.0798 76.19 28.2198 76.89L28.8598 80.12L25.6298 80.76L24.9898 77.53C24.8898 77.04 24.7098 76.65 24.4398 76.36C24.1698 76.07 23.7998 75.97 23.3298 76.07C22.8998 76.15 22.6298 76.39 22.4998 76.77C22.3798 77.15 22.3598 77.57 22.4498 78.04L25.1998 91.88C25.2898 92.35 25.4798 92.73 25.7498 93.03C26.0298 93.33 26.3598 93.44 26.7498 93.36C27.2298 93.26 27.5298 93.03 27.6698 92.66C27.7998 92.29 27.8198 91.86 27.7198 91.37L27.0798 88.14L30.3098 87.5L30.9498 90.73C31.1398 91.69 31.1298 92.59 30.9098 93.43C30.6898 94.27 30.2798 94.98 29.6798 95.57C29.0798 96.16 28.3098 96.54 27.3598 96.73H27.3698Z" fill="#203726"/>
<path d="M38.8102 94.46C37.8502 94.65 36.9802 94.59 36.2102 94.28C35.4302 93.97 34.7902 93.47 34.2702 92.77C33.7502 92.08 33.3902 91.25 33.2002 90.29L30.4502 76.45C30.2602 75.48 30.2702 74.58 30.4902 73.74C30.7102 72.91 31.1102 72.2 31.7102 71.61C32.3102 71.03 33.0902 70.64 34.0502 70.45C35.0102 70.26 35.8802 70.32 36.6502 70.63C37.4302 70.94 38.0702 71.44 38.5902 72.14C39.1102 72.83 39.4702 73.66 39.6602 74.62L42.4102 88.46C42.6002 89.42 42.5902 90.32 42.3702 91.16C42.1502 92 41.7502 92.71 41.1502 93.3C40.5502 93.88 39.7702 94.27 38.8102 94.46ZM38.1402 91.1C38.5702 91.02 38.8302 90.78 38.9302 90.39C39.0302 90 39.0402 89.59 38.9502 89.15L36.2002 75.31C36.1102 74.87 35.9402 74.49 35.6902 74.17C35.4402 73.85 35.1102 73.73 34.7102 73.81C34.3102 73.89 34.0602 74.12 33.9402 74.52C33.8202 74.91 33.8102 75.33 33.9002 75.77L36.6502 89.61C36.7402 90.05 36.9102 90.43 37.1602 90.75C37.4102 91.07 37.7402 91.19 38.1502 91.11L38.1402 91.1Z" fill="#203726"/>
<path d="M45.7598 92.81L41.0898 69.32L44.3198 68.68L49.9498 80.29L50.4498 81.32L50.6398 81.28L47.9898 67.95L51.1598 67.32L55.8298 90.81L52.9198 91.39L46.9698 79.85L46.4698 78.82L46.2798 78.86L48.9298 92.19L45.7698 92.82L45.7598 92.81Z" fill="#203726"/>
<path d="M61.2702 97.86C59.8002 97.86 58.5802 97.62 57.6002 97.13C56.6202 96.64 55.8602 95.94 55.3002 95.01C54.7402 94.09 54.3402 92.97 54.1002 91.67C53.8602 90.37 53.7402 88.9 53.7402 87.26L58.9902 86.76C58.9902 87.55 59.0202 88.32 59.0802 89.05C59.1402 89.79 59.2402 90.45 59.4002 91.03C59.5602 91.61 59.7902 92.08 60.0902 92.43C60.4002 92.78 60.7902 92.95 61.2702 92.95C62.0602 92.95 62.6202 92.58 62.9502 91.85C63.2802 91.12 63.4502 90.23 63.4502 89.19C63.4502 88.15 63.1802 87.07 62.6302 85.94C62.0802 84.82 61.4302 83.75 60.6702 82.74C59.3802 81.02 58.2502 79.43 57.2902 77.96C56.3202 76.49 55.5702 75.04 55.0302 73.62C54.4902 72.2 54.2202 70.71 54.2202 69.16C54.2202 67.94 54.3802 66.81 54.6902 65.78C55.0002 64.75 55.4602 63.85 56.0702 63.08C56.6702 62.31 57.4002 61.71 58.2602 61.28C59.1202 60.85 60.1002 60.64 61.2102 60.64C62.5802 60.64 63.7402 60.87 64.6902 61.33C65.6402 61.79 66.4102 62.45 66.9902 63.31C67.5702 64.17 68.0102 65.19 68.2802 66.37C68.5502 67.55 68.6902 68.86 68.6902 70.3L63.4402 70.79C63.4402 70.18 63.4102 69.56 63.3502 68.94C63.2902 68.32 63.1902 67.75 63.0402 67.24C62.8902 66.73 62.6802 66.32 62.4002 66C62.1202 65.68 61.7602 65.53 61.3102 65.53C60.6202 65.53 60.1402 65.82 59.8702 66.41C59.6102 67 59.4702 67.83 59.4702 68.9C59.4702 70.29 59.8402 71.63 60.5802 72.91C61.3202 74.2 62.3202 75.7 63.5802 77.42C65.0802 79.45 66.3102 81.32 67.2602 83.02C68.2102 84.72 68.6802 86.6 68.6802 88.67C68.6802 89.98 68.5402 91.18 68.2602 92.3C67.9802 93.42 67.5402 94.39 66.9302 95.21C66.3302 96.04 65.5602 96.68 64.6302 97.14C63.7002 97.6 62.5702 97.83 61.2502 97.83L61.2702 97.86Z" fill="white"/>
<path d="M78.4701 97.86C76.9501 97.86 75.6601 97.52 74.5901 96.83C73.5201 96.14 72.7101 95.21 72.1601 94.02C71.6101 92.83 71.3301 91.49 71.3301 89.98V68.52C71.3301 67.03 71.6101 65.7 72.1801 64.51C72.7501 63.32 73.5701 62.38 74.6501 61.69C75.7301 61 77.0001 60.65 78.4701 60.65C79.5801 60.65 80.5701 60.86 81.4401 61.27C82.3201 61.68 83.0601 62.25 83.6801 62.97C84.3001 63.69 84.7701 64.52 85.1001 65.47C85.4301 66.42 85.6001 67.44 85.6001 68.53V73.54H80.6001V68.53C80.6001 67.77 80.4401 67.13 80.1301 66.62C79.8201 66.11 79.3001 65.85 78.5701 65.85C77.9101 65.85 77.4301 66.11 77.1301 66.64C76.8301 67.17 76.6901 67.8 76.6901 68.52V89.98C76.6901 90.71 76.8501 91.33 77.1701 91.86C77.4901 92.39 77.9601 92.65 78.5701 92.65C79.3101 92.65 79.8401 92.39 80.1401 91.88C80.4501 91.37 80.6001 90.73 80.6001 89.97V84.96H85.6001V89.97C85.6001 91.46 85.3101 92.79 84.7301 93.98C84.1501 95.17 83.3301 96.11 82.2601 96.8C81.1901 97.49 79.9301 97.84 78.4601 97.84L78.4701 97.86Z" fill="white"/>
<path d="M89.3198 97.46V61.04H94.6698V97.46H89.3198Z" fill="white"/>
<path d="M98.6299 97.46V61.04H110.87V66.54H103.98V76.35H108.93V81.7H103.98V91.96H110.87V97.46H98.6299Z" fill="white"/>
<path d="M128.75 61.05V97.47H123.75L118.8 78.49L118.35 76.81H118.05V97.47H113.14V61.05H117.65L123.1 80.03L123.55 81.71H123.85V61.05H128.75Z" fill="white"/>
<path d="M130.69 97.46L136.69 66.54H131.64V61.04H147.1V66.54H142.05L136.05 97.46H130.7H130.69Z" fill="white"/>
</svg>
