<svg width="54" height="50" viewBox="0 0 54 50" fill="none" xmlns="http://www.w3.org/2000/svg">
<g clip-path="url(#clip0_127_2241)">
<path d="M49.3289 14.0692C49.548 15.4523 49.3025 16.9014 48.6224 18.1374C48.0695 19.1453 47.2432 19.9739 46.2659 20.5518L49.1594 38.8205C49.4747 40.8117 48.1158 42.6822 46.139 42.9953L14.2141 48.0517C12.2301 48.3659 10.3668 47.0058 10.0515 45.0146L7.15913 26.7531C6.07889 26.4937 5.08885 25.9602 4.27668 25.1907C3.25403 24.217 2.57272 22.9147 2.35862 21.516C2.30013 21.1468 2.2767 20.7645 2.28338 20.3849C2.2818 20.2812 2.29471 20.1753 2.32325 20.0743L5.45023 7.76236C5.58603 7.21385 6.03519 6.81612 6.59273 6.72781L40.7696 1.31473C41.3272 1.22642 41.8772 1.46589 42.1686 1.94673L48.9231 12.6787C48.9815 12.766 49.0265 12.8627 49.0643 12.9607C49.1891 13.3269 49.2849 13.6977 49.3434 14.067L49.3289 14.0692Z" fill="#F4F5F4"/>
<g clip-path="url(#clip1_127_2241)">
<path d="M44.177 16.2499C44.3387 17.2709 44.1581 18.3189 43.663 19.2265C43.2787 19.933 42.7189 20.5178 42.0446 20.9372L44.3736 35.6423C44.6204 37.2004 43.5557 38.6739 41.9977 38.9206L16.9167 42.8931C15.3587 43.1398 13.8841 42.0685 13.6374 40.5105L11.3083 25.8053C10.5761 25.6019 9.89713 25.2201 9.33748 24.6903C8.58511 23.9735 8.09505 23.0249 7.93229 21.9973C7.88924 21.7254 7.86607 21.4505 7.87606 21.1702C7.86766 21.1172 7.88473 21.0533 7.89622 20.9971L10.3536 11.3243C10.4288 11.0269 10.6723 10.8049 10.9773 10.7566L37.8284 6.50375C38.1267 6.4565 38.4269 6.59245 38.5904 6.85201L43.8956 15.2886C43.9305 15.3374 43.9522 15.3884 43.9738 15.4393C44.0633 15.7038 44.1329 15.9714 44.177 16.2499Z" fill="#87DB61"/>
</g>
<path d="M43.3981 40.3119L16.0132 44.6493C14.3116 44.9188 12.7023 43.756 12.4316 42.0471L9.75488 25.1469L12.072 24.78L14.7487 41.6801C14.8163 42.1073 15.219 42.3999 15.6462 42.3322L43.0311 37.9948C43.4583 37.9272 43.7508 37.5246 43.6832 37.0974L41.0064 20.1972L43.3235 19.8302L46.0002 36.7304C46.2697 38.432 45.1069 40.0413 43.3981 40.3119Z" fill="#0D1710"/>
<path fill-rule="evenodd" clip-rule="evenodd" d="M8.84505 10.1714C8.92721 9.84662 9.19312 9.60409 9.51896 9.55248L38.8445 4.90778C39.1703 4.85618 39.5054 5.00351 39.6766 5.28813L45.4696 14.4949C45.5005 14.5494 45.5314 14.6039 45.5489 14.6679C45.6467 14.9568 45.7226 15.249 45.7697 15.5459C45.9463 16.661 45.749 17.8056 45.2083 18.7968C44.6676 19.788 43.8127 20.5766 42.7713 21.031C41.7371 21.4843 40.5793 21.5786 39.4823 21.307C38.787 21.1351 38.1424 20.8141 37.5915 20.3818C37.3146 20.7893 36.9862 21.1531 36.6052 21.4658C35.9027 22.0447 35.0572 22.4235 34.1593 22.5657C33.2614 22.7079 32.3402 22.6089 31.4932 22.2754C31.0342 22.0958 30.6023 21.8524 30.2203 21.5492C29.9434 21.9568 29.615 22.3205 29.234 22.6333C28.5315 23.2121 27.686 23.591 26.7881 23.7332C25.8902 23.8754 24.969 23.7764 24.122 23.4429C23.663 23.2632 23.2311 23.0199 22.8491 22.7167C22.5722 23.1243 22.2438 23.488 21.8628 23.8007C21.1603 24.3796 20.3148 24.7585 19.4169 24.9007C18.5191 25.0429 17.5978 24.9439 16.7508 24.6104C16.2918 24.4307 15.8671 24.1863 15.4863 23.8903C15.097 24.4789 14.577 24.9918 13.9773 25.3763C13.0202 25.9881 11.8827 26.2573 10.7457 26.1553C9.61488 26.0449 8.55093 25.5603 7.72198 24.7786C6.90028 23.9958 6.35782 22.9609 6.1873 21.8374C6.14028 21.5405 6.12223 21.2391 6.12589 20.9342C6.13005 20.8667 6.13536 20.8065 6.14791 20.7451L8.83171 10.1809L8.84505 10.1714ZM15.9892 22.0515C16.3568 22.498 16.8349 22.8454 17.3804 23.0559C17.9499 23.2774 18.5701 23.3499 19.1783 23.2536C19.7865 23.1572 20.3551 22.9039 20.8271 22.51C21.2142 22.1889 21.5295 21.7901 21.7405 21.341C21.7061 21.2648 21.6851 21.179 21.6714 21.0922L20.4596 9.50457L15.992 10.2122L15.9965 22.0504L15.9892 22.0515ZM14.3193 10.4771L14.3226 22.167C14.3253 22.2779 14.3414 22.3793 14.3792 22.4772C14.1043 23.0849 13.659 23.6008 13.0932 23.965C12.4462 24.3792 11.6806 24.5599 10.9195 24.4874C10.1584 24.415 9.43901 24.091 8.88041 23.5634C8.32181 23.0358 7.95864 22.3362 7.84546 21.5748C7.81679 21.3938 7.80375 21.2177 7.79909 21.0477L10.3224 11.1101L14.3193 10.4771ZM22.1032 9.24424C22.5072 13.1068 22.9111 16.9693 23.3139 20.8246C23.6933 21.2989 24.1821 21.6668 24.7432 21.8823C25.3128 22.1038 25.9329 22.1763 26.5339 22.0811C27.1349 21.986 27.7034 21.7326 28.1754 21.3387C28.5564 21.026 28.8657 20.6356 29.0778 20.1937C29.0541 20.1381 29.0293 20.0752 29.019 20.0101C28.2061 16.19 27.3849 12.3639 26.5697 8.5294L22.0949 9.23815L22.1032 9.24424ZM28.229 8.27401L30.6409 19.6121C30.6409 19.6121 30.6588 19.6316 30.6672 19.6377C31.0478 20.1192 31.5449 20.4933 32.1144 20.7148C32.684 20.9364 33.3041 21.0089 33.9051 20.9137C34.5061 20.8185 35.0746 20.5651 35.5466 20.1712C35.9143 19.868 36.2186 19.4932 36.433 19.0659C36.4105 19.0175 36.3879 18.9691 36.3654 18.9207L32.6894 7.56756L28.2218 8.27516L28.229 8.27401ZM34.362 7.30264L37.9499 18.3803C37.9499 18.3803 38.0109 18.4374 38.0311 18.4713C38.5048 19.0718 39.1582 19.4953 39.9004 19.682C40.6425 19.8688 41.4192 19.8052 42.1196 19.4939C42.8211 19.1898 43.3979 18.6605 43.76 17.9945C44.1221 17.3285 44.2597 16.557 44.1405 15.804C44.1129 15.6302 44.0709 15.4587 44.0228 15.2956L38.5762 6.63518L34.3693 7.30149L34.362 7.30264Z" fill="#0D1710"/>
<path d="M12.0959 26.476C11.6397 26.5482 11.1816 26.5614 10.7215 26.5155C9.51598 26.4021 8.3632 25.8721 7.48163 25.0394C6.60007 24.2067 6.01374 23.0823 5.83899 21.8852C5.78853 21.5666 5.76703 21.2434 5.7745 20.9157C5.77522 20.8265 5.79042 20.735 5.81286 20.6424L8.49667 10.0782C8.61612 9.6139 8.9986 9.26384 9.46926 9.1893L38.7948 4.5446C39.2726 4.46891 39.7446 4.68364 39.9944 5.08942L45.7874 14.2962C45.8362 14.3701 45.8717 14.4536 45.9072 14.537C46.0156 14.8464 46.0961 15.1677 46.1466 15.4863C46.3347 16.6738 46.1233 17.9171 45.5484 18.9731C44.9734 20.0291 44.0469 20.881 42.9353 21.3614C41.8311 21.8406 40.5791 21.9498 39.4112 21.6523C38.7929 21.4979 38.2105 21.2413 37.6866 20.8863C37.4394 21.2001 37.1587 21.4895 36.8505 21.7462C35.3471 22.9863 33.1893 23.3281 31.3764 22.6132C31.0039 22.4643 30.6486 22.2831 30.3154 22.0538C30.0682 22.3676 29.7875 22.657 29.4793 22.9137C27.9759 24.1538 25.8181 24.4956 24.0052 23.7807C23.6327 23.6318 23.2774 23.4506 22.9442 23.2213C22.697 23.5351 22.4163 23.8245 22.1081 24.0811C20.6047 25.3213 18.447 25.663 16.634 24.9481C16.2627 24.8065 15.9135 24.6169 15.5898 24.401C15.2024 24.9077 14.7361 25.3378 14.1898 25.6841C13.5562 26.0888 12.8417 26.3578 12.1031 26.4748L12.0959 26.476ZM9.57785 9.92177C9.39683 9.95045 9.24749 10.0854 9.2026 10.2707L6.5188 20.8349C6.5188 20.8349 6.5074 20.9035 6.50589 20.9409C6.49879 21.224 6.52065 21.5026 6.56423 21.7778C6.72937 22.8205 7.22415 23.7887 7.99209 24.5132C8.75278 25.2389 9.75193 25.6893 10.7997 25.7906C11.8475 25.8918 12.9126 25.634 13.7958 25.0711C14.3555 24.7152 14.8305 24.2466 15.1954 23.6915C15.2491 23.6088 15.334 23.5359 15.4449 23.5332C15.5463 23.5172 15.6473 23.5457 15.724 23.6078C16.0797 23.8854 16.4792 24.1116 16.8985 24.2753C18.4664 24.8954 20.3418 24.5984 21.6413 23.5242C21.9956 23.2305 22.2984 22.8931 22.5582 22.5179C22.6728 22.3513 22.9263 22.3112 23.0868 22.4342C23.4509 22.718 23.8432 22.9453 24.2697 23.1078C25.8376 23.728 27.713 23.4309 29.0125 22.3567C29.3668 22.063 29.6769 21.7244 29.9294 21.3504C30.044 21.1838 30.2975 21.1437 30.458 21.2667C30.8137 21.5444 31.2144 21.7778 31.6409 21.9404C33.2088 22.5605 35.0769 22.2646 36.3765 21.1903C36.7308 20.8967 37.0408 20.5581 37.2933 20.1841C37.408 20.0175 37.6614 19.9774 37.8219 20.1004C38.3466 20.5072 38.9348 20.8 39.5831 20.9571C40.5959 21.2123 41.6802 21.1222 42.6381 20.7033C43.5961 20.2844 44.3999 19.5484 44.9003 18.6304C45.3431 17.818 45.5374 16.8891 45.4665 15.9726L45.0176 16.0437C44.8148 16.0758 44.6291 15.9345 44.5982 15.739C44.5672 15.5435 44.7001 15.3517 44.9029 15.3196L45.3518 15.2485C45.3121 15.0915 45.2735 14.9417 45.2193 14.787C45.2136 14.7508 45.1945 14.7241 45.1743 14.6902L39.3802 5.47617C39.2814 5.3211 39.0966 5.23163 38.9155 5.2603L9.57555 9.90729L9.57785 9.92177ZM11.8355 24.8323C11.5169 24.8828 11.1998 24.8959 10.8759 24.8655C10.0316 24.784 9.23185 24.4208 8.62063 23.8421C8.00941 23.2635 7.60351 22.4816 7.47887 21.6478C7.4479 21.4523 7.43257 21.2617 7.43171 21.0689C7.42712 21.0399 7.43702 21.0086 7.43967 20.9785L9.96294 11.041C10.0002 10.9015 10.1168 10.7939 10.2616 10.771L14.2586 10.1379C14.3672 10.1207 14.4754 10.1481 14.5544 10.2247C14.6321 10.294 14.6856 10.3969 14.6799 10.5017L14.6832 22.1916C14.6851 22.2507 14.7015 22.3075 14.7107 22.3654C14.7473 22.4561 14.7417 22.5609 14.7048 22.6558C14.3967 23.3355 13.9077 23.9029 13.2801 24.2992C12.8343 24.5776 12.3447 24.7665 11.8306 24.8479L11.8355 24.8323ZM8.16425 21.1013C8.16432 21.2423 8.17887 21.381 8.20066 21.5186C8.30961 22.2065 8.63235 22.8382 9.12879 23.3015C9.62524 23.7647 10.2664 24.0639 10.9517 24.1261C11.6298 24.1894 12.3241 24.0275 12.8972 23.6621C13.3624 23.3657 13.7418 22.9494 13.9904 22.4572C13.9683 22.3642 13.9606 22.269 13.9541 22.1809L13.9521 10.9213L10.6213 11.4488L8.17149 21.1001L8.16425 21.1013ZM33.9579 21.2913C33.2917 21.3969 32.6041 21.3202 31.971 21.0716C31.345 20.8219 30.7903 20.4125 30.3716 19.8776C30.3346 19.8315 30.293 19.7564 30.2766 19.6996L27.8647 8.36147C27.8487 8.2601 27.8627 8.16138 27.9237 8.0775C27.9774 7.99477 28.0718 7.93527 28.166 7.92036L32.6336 7.21276C32.8146 7.18409 32.9873 7.29034 33.0366 7.46068L36.7126 18.8138C36.7126 18.8138 36.7363 18.8695 36.7481 18.8973C36.8087 18.999 36.8077 19.1328 36.7574 19.2373C36.521 19.7126 36.185 20.1221 35.7785 20.4611C35.2531 20.8932 34.6229 21.1786 33.9567 21.2841L33.9579 21.2913ZM30.9739 19.463C31.3057 19.8706 31.743 20.1948 32.2416 20.3904C33.2556 20.7939 34.4709 20.594 35.3117 19.9042C35.6005 19.6654 35.8378 19.3829 36.0248 19.0638C36.0248 19.0638 36.0225 19.0493 36.0214 19.0421L32.4442 7.98502L28.6644 8.58367L30.9812 19.4618L30.9739 19.463ZM26.5867 22.4588C25.9205 22.5643 25.2329 22.4877 24.5998 22.2391C23.975 21.9966 23.4275 21.586 23.011 21.0656C22.9657 21.0134 22.9397 20.9433 22.9366 20.877C22.5338 17.0217 22.1299 13.1592 21.726 9.29664C21.7022 9.09999 21.8386 8.92994 22.0341 8.89898L26.509 8.19023C26.7045 8.15926 26.8878 8.28609 26.9249 8.47321C27.7401 12.3077 28.5541 16.135 29.3742 19.9539C29.3799 19.9901 29.3929 20.0251 29.4131 20.059C29.4593 20.1631 29.462 20.274 29.4117 20.3784C29.1703 20.8694 28.8367 21.2934 28.4168 21.642C27.8915 22.074 27.2612 22.3594 26.5951 22.4649L26.5867 22.4588ZM23.6576 20.696C23.986 21.0819 24.4042 21.3794 24.8716 21.5651C25.8928 21.9675 27.1009 21.7687 27.9417 21.0789C28.2438 20.8306 28.4861 20.5325 28.678 20.1977C28.6734 20.1688 28.6688 20.1398 28.6642 20.1109C27.8686 16.3994 27.0801 12.6869 26.2906 8.96707L22.5036 9.56687C22.8918 13.2834 23.2789 16.9928 23.6649 20.6948L23.6576 20.696ZM19.2155 23.6263C18.5493 23.7318 17.8617 23.6552 17.2286 23.4066C16.635 23.174 16.0994 22.7912 15.6947 22.2986C15.6398 22.2331 15.6116 22.1485 15.6135 22.0666L15.6089 10.2284C15.6104 10.05 15.7418 9.89558 15.9156 9.86806L20.3832 9.16046C20.4846 9.1444 20.5856 9.17294 20.6622 9.23502C20.7389 9.29711 20.79 9.38551 20.806 9.48688L22.0178 21.0745C22.0259 21.1252 22.0327 21.1686 22.0541 21.2097C22.0991 21.3065 22.0946 21.4186 22.0504 21.5147C21.8102 22.0129 21.4643 22.4536 21.0372 22.8033C20.5119 23.2354 19.8816 23.5208 19.2155 23.6263ZM16.3413 21.929C16.6567 22.2799 17.057 22.5579 17.4992 22.7254C18.5132 23.1289 19.7297 22.9362 20.5766 22.238C20.8787 21.9897 21.1404 21.6736 21.33 21.3244C21.3208 21.2665 21.3033 21.2025 21.3013 21.1434L20.1286 9.94303L16.3489 10.5417L16.3486 21.9279L16.3413 21.929ZM41.3218 20.125C40.815 20.2053 40.292 20.1842 39.7965 20.0548C38.9846 19.8494 38.2484 19.3722 37.7283 18.7124C37.684 18.6674 37.6017 18.5691 37.5841 18.5051L33.9962 7.42745C33.9657 7.32837 33.9774 7.21517 34.03 7.1252C34.0825 7.03523 34.1759 6.96849 34.2845 6.95128L38.4914 6.28497C38.6363 6.26203 38.7804 6.32828 38.8589 6.44944L44.3056 15.1099C44.3056 15.1099 44.3365 15.1643 44.341 15.1933C44.3998 15.377 44.4441 15.5629 44.4751 15.7585C44.607 16.5912 44.4603 17.4457 44.0578 18.1849C43.6553 18.9241 43.013 19.5083 42.2425 19.8456C41.9438 19.9745 41.632 20.0685 41.3134 20.1189L41.3218 20.125ZM38.2566 18.2056C38.2566 18.2056 38.2925 18.2444 38.3032 18.265C38.7219 18.7999 39.3166 19.1808 39.9746 19.3512C40.6313 19.5144 41.3345 19.455 41.9525 19.1864C42.5706 18.9178 43.0963 18.4411 43.4169 17.8411C43.7387 17.2482 43.8588 16.5538 43.7521 15.8804C43.7292 15.7356 43.7002 15.5991 43.6567 15.465L38.3599 7.04805L34.8192 7.60885L38.2483 18.1995L38.2566 18.2056Z" fill="#0D1710"/>
<path fill-rule="evenodd" clip-rule="evenodd" d="M28.4141 41.4975L26.5918 29.9918L28.9016 29.6259L30.724 41.1317L28.4141 41.4975Z" fill="#0D1710"/>
<path fill-rule="evenodd" clip-rule="evenodd" d="M22.4707 31.3113L24.0065 41.0081L34.6713 39.3189L33.1354 29.6222L22.4707 31.3113ZM21.7175 29.0554C20.6511 29.2243 19.9235 30.2257 20.0924 31.2921L21.7506 41.7612C21.9195 42.8276 22.9209 43.5552 23.9873 43.3863L35.4244 41.5748C36.4908 41.4059 37.2184 40.4045 37.0495 39.3381L35.3914 28.869C35.2225 27.8026 34.221 27.0751 33.1546 27.244L21.7175 29.0554Z" fill="#0D1710"/>
</g>
<defs>
<clipPath id="clip0_127_2241">
<rect width="47.557" height="42" fill="white" transform="translate(0.177246 7.74393) rotate(-9)"/>
</clipPath>
<clipPath id="clip1_127_2241">
<rect width="36.6975" height="32.67" fill="white" transform="translate(6.27002 11.5021) rotate(-9)"/>
</clipPath>
</defs>
</svg>
