<svg width="150" height="143" viewBox="0 0 150 143" fill="none" xmlns="http://www.w3.org/2000/svg">
<g id="Calque_1">
<path id="Vector" d="M113.972 18.4193C104.452 16.3103 94.9942 18.9193 86.7634 24.4836C81.6538 15.965 74.1865 9.60557 64.6825 7.50014C52.49 4.79911 40.4042 9.83625 30.8451 18.9423C21.2588 28.0743 13.7364 41.6666 10.2303 57.493C6.72428 73.3195 7.80238 88.817 12.635 101.143C17.4539 113.435 26.2816 123.105 38.4741 125.806C47.9904 127.914 57.4458 125.308 65.6652 119.743C70.7759 128.26 78.2455 134.616 87.7636 136.725C99.9561 139.426 112.042 134.389 121.601 125.283C131.187 116.151 138.71 102.558 142.216 86.732C145.722 70.9069 144.649 55.4107 139.819 43.0844C135.003 30.7918 126.174 21.1225 113.972 18.4193Z" fill="white" stroke="white" stroke-width="10" stroke-miterlimit="10"/>
<path id="Vector_2" d="M37.6373 120.998C18.2231 116.879 7.71808 88.8724 14.1737 58.4431C20.6293 28.0137 41.6008 6.68468 61.015 10.8034C80.4292 14.9221 90.9342 42.9289 84.4786 73.3583C78.023 103.788 57.0514 125.117 37.6373 120.998Z" fill="white" stroke="#0D1710" stroke-width="4" stroke-miterlimit="10"/>
<path id="Vector_3" d="M90.4937 133.542C71.0795 129.424 60.5745 101.417 67.0301 70.9875C73.4857 40.5581 94.4573 19.2291 113.871 23.3478C133.286 27.4665 143.791 55.4733 137.335 85.9027C130.879 116.332 109.908 137.661 90.4937 133.542Z" fill="white" stroke="#0D1710" stroke-width="4" stroke-miterlimit="10"/>
<path id="Vector_4" d="M79.109 109.392C68.0264 107.041 62.244 90.043 66.1936 71.4261C70.1432 52.8091 82.3291 39.6231 93.4117 41.9743C104.494 44.3254 110.277 61.3235 106.327 79.9404C102.378 98.5573 90.1916 111.743 79.109 109.392Z" fill="#0D1710" stroke="#0D1710" stroke-width="2" stroke-miterlimit="10"/>
<path id="Vector_5" d="M26.9435 96.9945C15.8609 94.6433 10.0785 77.6453 14.0281 59.0284C17.9776 40.4114 30.1636 27.2254 41.2462 29.5766C52.3288 31.9277 58.1112 48.9257 54.1616 67.5427C50.2121 86.1596 38.0261 99.3457 26.9435 96.9945Z" fill="#0D1710" stroke="#0D1710" stroke-width="2" stroke-miterlimit="10"/>
</g>
</svg>
