<svg width="27" height="26" viewBox="0 0 27 26" fill="none" xmlns="http://www.w3.org/2000/svg">
<g id="icon/share-2">
<path id="Vector" d="M19.75 8.66666C21.5449 8.66666 23 7.21159 23 5.41666C23 3.62174 21.5449 2.16666 19.75 2.16666C17.9551 2.16666 16.5 3.62174 16.5 5.41666C16.5 7.21159 17.9551 8.66666 19.75 8.66666Z" stroke="#0D1710" stroke-width="2" stroke-linecap="round" stroke-linejoin="round"/>
<path id="Vector_2" d="M6.75 16.25C8.54493 16.25 10 14.7949 10 13C10 11.2051 8.54493 9.75 6.75 9.75C4.95507 9.75 3.5 11.2051 3.5 13C3.5 14.7949 4.95507 16.25 6.75 16.25Z" stroke="#0D1710" stroke-width="2" stroke-linecap="round" stroke-linejoin="round"/>
<path id="Vector_3" d="M19.75 23.8333C21.5449 23.8333 23 22.3783 23 20.5833C23 18.7884 21.5449 17.3333 19.75 17.3333C17.9551 17.3333 16.5 18.7884 16.5 20.5833C16.5 22.3783 17.9551 23.8333 19.75 23.8333Z" stroke="#0D1710" stroke-width="2" stroke-linecap="round" stroke-linejoin="round"/>
<path id="Vector_4" d="M9.55585 14.6358L16.955 18.9475" stroke="#0D1710" stroke-width="2" stroke-linecap="round" stroke-linejoin="round"/>
<path id="Vector_5" d="M16.9442 7.0525L9.55585 11.3642" stroke="#0D1710" stroke-width="2" stroke-linecap="round" stroke-linejoin="round"/>
</g>
</svg>
