<svg width="133" height="125" viewBox="0 0 133 125" fill="none" xmlns="http://www.w3.org/2000/svg">
<g id="Calque_1" clip-path="url(#clip0_67_2323)">
<path id="Vector" d="M29.4008 42.9084C29.0754 41.001 28.7305 39.0895 28.417 37.1743C27.4081 30.9752 24.5068 26.0037 19.1994 22.4689C16.8956 20.9333 17.0081 19.8125 19.5383 18.9536C26.6294 16.5174 32.2643 12.3044 36.268 5.9306C36.6024 5.40811 37.1454 5.01114 37.902 4.2298C38.2972 5.17097 38.7308 5.78302 38.7874 6.4386C39.5072 13.7726 43.2526 19.4933 48.352 24.5069C50.6646 26.78 50.4836 27.8864 47.4162 28.7246C40.3515 30.6452 35.3559 35.074 31.676 41.2195C31.2794 41.8924 30.7112 42.4578 30.2327 43.0829C29.9586 43.0254 29.6944 42.97 29.4204 42.9125L29.4008 42.9084Z" fill="#EE7748"/>
<path id="Vector_2" d="M123.473 67.7592C116.67 69.1625 112.462 72.8064 109.157 78.6729C108.835 77.2362 108.649 76.6657 108.578 76.0786C108.012 71.5664 106.486 67.5884 102.655 64.7617C101.433 63.8619 100.573 62.7006 102.713 61.9028C107.302 60.1884 110.934 57.3433 113.585 53.2299C113.704 53.0506 113.975 52.9747 114.782 52.4899C115.407 58.6188 118.547 63.2316 123.473 67.7592Z" fill="#EE7748"/>
<path id="Vector_3" d="M81.3128 108.053C76.9889 109.036 73.6541 111.831 70.9418 115.799C70.2003 111.004 68.4317 106.965 64.6089 104.488C68.2533 101.727 71.7298 99.0844 74.8882 96.6918C76.7963 100.065 78.9514 103.869 81.3128 108.053Z" fill="#EE7748"/>
</g>
<defs>
<clipPath id="clip0_67_2323">
<rect width="113.38" height="102.41" fill="white" transform="translate(21.665 0.824127) rotate(11.8461)"/>
</clipPath>
</defs>
</svg>
