<svg width="30" height="30" viewBox="0 0 30 30" fill="none" xmlns="http://www.w3.org/2000/svg">
<g id="ic-star">
<path id="Vector" d="M10.3523 8.71303C10.7652 6.69496 10.9717 5.68592 11.4973 5.23905C11.9546 4.85018 12.5625 4.68731 13.153 4.79541C13.8315 4.91964 14.5149 5.69025 15.8816 7.23147L16.4146 7.83256C16.8366 8.30843 17.0475 8.54637 17.3049 8.70287C17.5327 8.84141 17.7859 8.933 18.0496 8.97227C18.3475 9.01662 18.6619 8.96874 19.2906 8.87298L19.6151 8.82357C21.8115 8.48904 22.9098 8.32177 23.5235 8.68436C24.0569 8.99946 24.4141 9.54393 24.4908 10.1586C24.5791 10.866 23.9884 11.8069 22.807 13.6886L22.5572 14.0865C22.1539 14.7289 21.9523 15.05 21.8781 15.3936C21.8125 15.6973 21.8186 16.0121 21.8959 16.313C21.9833 16.6535 22.2 16.9707 22.6334 17.6052C24.048 19.6763 24.7553 20.7118 24.672 21.4503C24.5997 22.0909 24.2232 22.6574 23.6605 22.9719C23.0117 23.3345 21.8015 23.0869 19.3811 22.5916L18.4655 22.4042C17.8908 22.2866 17.6034 22.2278 17.3242 22.2492C17.0769 22.2681 16.8353 22.3328 16.6118 22.4401C16.3593 22.5612 16.1398 22.7558 15.7009 23.145L15.0016 23.7651C13.1531 25.4042 12.2289 26.2238 11.4858 26.2341C10.8412 26.2431 10.2318 25.9408 9.84895 25.4221C9.40755 24.8242 9.50234 23.5738 9.69191 21.0729C9.74999 20.3067 9.77903 19.9236 9.68448 19.5851C9.60092 19.2858 9.44879 19.0102 9.24015 18.7799C9.0041 18.5195 8.66891 18.3422 7.99853 17.9875L7.58316 17.7678C5.61922 16.7289 4.63725 16.2094 4.36001 15.5527C4.11909 14.982 4.15623 14.3318 4.46057 13.7923C4.81079 13.1714 5.84553 12.7671 7.915 11.9586L8.22067 11.8392C8.81308 11.6077 9.10928 11.492 9.3451 11.3046C9.55385 11.1388 9.72733 10.9328 9.85533 10.699C9.99994 10.4348 10.0637 10.1232 10.1912 9.50011L10.3523 8.71303Z" fill="#EE7748" stroke="#EE7748" stroke-width="1.5" stroke-linecap="round" stroke-linejoin="round"/>
</g>
</svg>
