<svg width="33" height="32" viewBox="0 0 33 32" fill="none" xmlns="http://www.w3.org/2000/svg">
<g id="ic:baseline-tiktok">
<path id="Vector" d="M22.6335 7.76C21.7221 6.7195 21.2198 5.38324 21.2202 4H17.1002V20.5333C17.0684 21.428 16.6907 22.2755 16.0466 22.8973C15.4024 23.519 14.5421 23.8665 13.6469 23.8667C11.7535 23.8667 10.1802 22.32 10.1802 20.4C10.1802 18.1067 12.3935 16.3867 14.6735 17.0933V12.88C10.0735 12.2667 6.04688 15.84 6.04688 20.4C6.04688 24.84 9.72688 28 13.6335 28C17.8202 28 21.2202 24.6 21.2202 20.4V12.0133C22.8909 13.2131 24.8967 13.8569 26.9535 13.8533V9.73333C26.9535 9.73333 24.4469 9.85333 22.6335 7.76Z" fill="white"/>
</g>
</svg>
