<svg width="170" height="154" viewBox="0 0 170 154" fill="none" xmlns="http://www.w3.org/2000/svg">
<g id="warning">
<path id="Vector" d="M81.3384 12.9255C82.867 10.2504 86.7124 10.2504 88.2649 12.9255L123.471 73.927L158.677 134.928C160.206 137.604 158.295 140.923 155.214 140.923H14.3896C11.3085 140.923 9.39772 137.604 10.9263 134.928L46.1324 73.927L81.3384 12.9255Z" fill="#FFED3B"/>
<path id="Vector (Stroke)" fill-rule="evenodd" clip-rule="evenodd" d="M96.9199 7.91647L167.349 129.948L167.359 129.967C172.664 139.25 166.041 150.924 155.214 150.924H14.3896C3.56259 150.924 -3.06064 139.25 2.24385 129.967L2.25449 129.948L72.6693 7.94065C78.0754 -1.48066 91.5419 -1.35027 96.9138 7.90603L96.9199 7.91647ZM81.3383 12.9255L10.9263 134.928C9.39766 137.604 11.3084 140.924 14.3896 140.924H155.214C158.295 140.924 160.206 137.604 158.677 134.928L88.2649 12.9255C86.7124 10.2504 82.8669 10.2504 81.3383 12.9255Z" fill="white"/>
<path id="Vector_2" d="M81.1226 35.4725C82.7706 32.6303 86.8549 32.6303 88.503 35.4725L114.227 80.0175L139.951 124.562C141.599 127.405 139.545 130.94 136.272 130.94H33.3532C30.081 130.94 28.027 127.381 29.675 124.562L55.3988 80.0175L81.1226 35.4725Z" fill="#FFED3B"/>
<path id="Vector (Stroke)_2" fill-rule="evenodd" clip-rule="evenodd" d="M82.4209 36.2239C82.4207 36.2243 82.4205 36.2246 82.4203 36.2249L30.9741 125.313L30.97 125.32C29.9116 127.13 31.2297 129.44 33.3533 129.44H136.272C138.395 129.44 139.718 127.151 138.653 125.315L87.2054 36.2249C87.2052 36.2246 87.205 36.2243 87.2048 36.2239C86.1346 34.3798 83.4912 34.3798 82.4209 36.2239ZM79.825 34.7201C82.051 30.8811 87.5747 30.8811 89.8007 34.7201L89.802 34.7224L141.248 123.81C143.479 127.658 140.694 132.44 136.272 132.44H33.3533C28.9338 132.44 26.1441 127.635 28.3783 123.809C28.3789 123.807 28.3796 123.806 28.3802 123.805L79.825 34.7201Z" fill="#1D1D1B"/>
<path id="Vector_3" d="M88.4085 68.7916C88.4085 66.7998 86.7938 65.1851 84.8019 65.1851C82.81 65.1851 81.1953 66.7998 81.1953 68.7916V103.162C81.1953 105.154 82.81 106.768 84.8019 106.768C86.7938 106.768 88.4085 105.154 88.4085 103.162V68.7916Z" fill="#1D1D1B"/>
<path id="Vector_4" d="M84.8023 118.4C86.8074 118.4 88.4328 116.775 88.4328 114.77C88.4328 112.765 86.8074 111.139 84.8023 111.139C82.7973 111.139 81.1719 112.765 81.1719 114.77C81.1719 116.775 82.7973 118.4 84.8023 118.4Z" fill="#1D1D1B"/>
</g>
</svg>
