<svg width="86" height="78" viewBox="0 0 86 78" fill="none" xmlns="http://www.w3.org/2000/svg">
<rect width="86" height="78" fill="#F5F5F5"/>
<g id="Prototype">
<path d="M-8550 -1516C-8550 -1517.1 -8549.1 -1518 -8548 -1518H5378C5379.1 -1518 5380 -1517.1 5380 -1516V4595C5380 4596.1 5379.1 4597 5378 4597H-8548C-8549.1 4597 -8550 4596.1 -8550 4595V-1516Z" fill="white"/>
<path d="M-8548 -1517H5378V-1519H-8548V-1517ZM5379 -1516V4595H5381V-1516H5379ZM5378 4596H-8548V4598H5378V4596ZM-8549 4595V-1516H-8551V4595H-8549ZM-8548 4596C-8548.55 4596 -8549 4595.55 -8549 4595H-8551C-8551 4596.66 -8549.66 4598 -8548 4598V4596ZM5379 4595C5379 4595.55 5378.55 4596 5378 4596V4598C5379.66 4598 5381 4596.66 5381 4595H5379ZM5378 -1517C5378.55 -1517 5379 -1516.55 5379 -1516H5381C5381 -1517.66 5379.66 -1519 5378 -1519V-1517ZM-8548 -1519C-8549.66 -1519 -8551 -1517.66 -8551 -1516H-8549C-8549 -1516.55 -8548.55 -1517 -8548 -1517V-1519Z" fill="black" fill-opacity="0.1"/>
<g id="Classement et fin" clip-path="url(#clip0_3_2)">
<rect width="1440" height="1947" transform="translate(-454 -678)" fill="#203726"/>
<g id="Frame 128">
<g id="Frame 124">
<rect width="1718.71" height="102" transform="translate(-498.561 -67.6129) rotate(2.63934)" fill="#35442C"/>
</g>
<g id="Frame 27">
<rect width="1718.71" height="102" transform="translate(-503.312 16.9503) rotate(-3)" fill="#87DB61"/>
<g id="yeux">
<path id="Vector" d="M27.9397 71.5973C33.6781 71.6487 38.924 68.4335 42.8908 63.1286C46.7618 68.5037 51.9493 71.8124 57.675 71.8638C69.8262 71.9726 79.8056 57.4061 79.9677 39.3203C80.1298 21.2344 70.4129 6.49145 58.2618 6.38257C52.5234 6.33115 47.2774 9.54639 43.3234 14.8514C39.4523 9.47627 34.2648 6.16754 28.5264 6.11612C16.3753 6.00724 6.3958 20.5737 6.23374 38.6596C6.07167 56.7454 15.7758 71.4883 27.9397 71.5973Z" fill="white"/>
<path id="Vector (Stroke)" fill-rule="evenodd" clip-rule="evenodd" d="M42.813 71.7891C38.6631 75.3052 33.5936 77.5384 27.8869 77.4873C19.2463 77.4099 12.1756 72.1384 7.54566 65.1101C2.89227 58.0463 0.253709 48.6578 0.343772 38.6068C0.43385 28.5542 3.24421 19.2146 8.02481 12.236C12.7804 5.29388 19.9439 0.148761 28.5792 0.226139C34.2841 0.277259 39.3113 2.59951 43.3968 6.18743C47.543 2.67211 52.6112 0.441482 58.3146 0.492588C66.9499 0.569966 74.02 5.84263 78.6504 12.8688C83.3052 19.932 85.9478 29.3205 85.8577 39.3731C85.7676 49.4257 82.9572 58.7653 78.1766 65.7439C73.421 72.686 66.2576 77.8311 57.6222 77.7538C51.9235 77.7027 46.8977 75.3783 42.813 71.7891ZM38.7894 67.4802C40.2669 66.2612 41.6422 64.7984 42.8908 63.1286C44.1093 64.8206 45.4583 66.3078 46.9134 67.5532C50.081 70.264 53.7517 71.8286 57.675 71.8638C69.8262 71.9727 79.8056 57.4062 79.9677 39.3203C80.1298 21.2344 70.4129 6.49146 58.2618 6.38258C54.3317 6.34736 50.6327 7.84434 47.4214 10.4955C45.9438 11.7153 44.5694 13.1796 43.3234 14.8514C42.1046 13.1591 40.7554 11.6716 39.2996 10.4262C36.1313 7.71573 32.4582 6.15136 28.5264 6.11613C16.3753 6.00725 6.3958 20.5737 6.23374 38.6596C6.07168 56.7455 15.7758 71.4883 27.9397 71.5973C31.8718 71.6326 35.5728 70.1339 38.7894 67.4802Z" fill="white"/>
<path id="Vector_2" d="M59.3581 6.10551C71.0479 6.10551 80.5245 20.9588 80.5245 39.2813C80.5245 57.6038 71.0479 72.4571 59.3581 72.4571C47.6682 72.4571 38.1917 57.6038 38.1917 39.2813C38.1917 20.9588 47.6682 6.10551 59.3581 6.10551Z" fill="white"/>
<path id="Vector (Stroke)_2" fill-rule="evenodd" clip-rule="evenodd" d="M45.3842 62.1065C41.6919 56.3193 39.3696 48.2525 39.3696 39.2813C39.3696 30.3101 41.6919 22.2434 45.3842 16.4561C49.0852 10.6552 54.0541 7.28356 59.358 7.28356C64.6619 7.28356 69.6308 10.6552 73.3318 16.4561C77.0241 22.2434 79.3464 30.3101 79.3464 39.2813C79.3464 48.2525 77.0241 56.3193 73.3318 62.1065C69.6308 67.9074 64.6619 71.2791 59.358 71.2791C54.0541 71.2791 49.0852 67.9074 45.3842 62.1065ZM43.398 63.3738C47.3577 69.5802 52.972 73.6352 59.358 73.6352C65.7439 73.6352 71.3583 69.5802 75.318 63.3738C79.2865 57.1537 81.7024 48.6326 81.7024 39.2813C81.7024 29.9301 79.2865 21.4089 75.318 15.1889C71.3583 8.98244 65.7439 4.92747 59.358 4.92747C52.972 4.92747 47.3577 8.98244 43.398 15.1889C39.4295 21.4089 37.0135 29.9301 37.0135 39.2813C37.0135 48.6326 39.4295 57.1537 43.398 63.3738Z" fill="#0D1710"/>
<path id="Vector_3" d="M27.3686 5.33867C39.0584 5.33867 48.535 20.192 48.535 38.5145C48.535 56.837 39.0584 71.6903 27.3686 71.6903C15.6787 71.6903 6.20215 56.837 6.20215 38.5145C6.20215 20.192 15.6787 5.33867 27.3686 5.33867Z" fill="white"/>
<path id="Vector (Stroke)_3" fill-rule="evenodd" clip-rule="evenodd" d="M13.3948 61.3397C9.70247 55.5525 7.3802 47.4857 7.3802 38.5145C7.3802 29.5433 9.70247 21.4765 13.3948 15.6893C17.0958 9.88843 22.0646 6.51675 27.3686 6.51675C32.6725 6.51675 37.6413 9.88843 41.3423 15.6893C45.0346 21.4765 47.3569 29.5433 47.3569 38.5145C47.3569 47.4857 45.0346 55.5525 41.3423 61.3397C37.6413 67.1406 32.6725 70.5123 27.3686 70.5123C22.0646 70.5123 17.0958 67.1406 13.3948 61.3397ZM11.4085 62.607C15.3683 68.8134 20.9826 72.8683 27.3686 72.8683C33.7545 72.8683 39.3689 68.8134 43.3286 62.607C47.297 56.3869 49.713 47.8658 49.713 38.5145C49.713 29.1632 47.297 20.6421 43.3286 14.422C39.3689 8.21563 33.7545 4.16065 27.3686 4.16065C20.9826 4.16065 15.3683 8.21563 11.4085 14.422C7.44009 20.6421 5.02411 29.1632 5.02411 38.5145C5.02411 47.8658 7.44009 56.3869 11.4085 62.607Z" fill="#0D1710"/>
<path id="Vector_4" d="M36.8806 17.8623C43.5537 17.8623 48.9634 26.9497 48.9634 38.1595C48.9634 49.3694 43.5537 58.4568 36.8806 58.4568C30.2074 58.4568 24.7977 49.3694 24.7977 38.1595C24.7977 26.9497 30.2074 17.8623 36.8806 17.8623Z" fill="#0D1710"/>
<path id="Vector (Stroke)_4" fill-rule="evenodd" clip-rule="evenodd" d="M28.8428 52.2105C26.7192 48.6433 25.3867 43.6769 25.3867 38.1595C25.3867 32.6422 26.7192 27.6758 28.8428 24.1085C30.9738 20.5288 33.8344 18.4513 36.8805 18.4513C39.9266 18.4513 42.7872 20.5288 44.9182 24.1085C47.0418 27.6758 48.3743 32.6422 48.3743 38.1595C48.3743 43.6769 47.0418 48.6433 44.9182 52.2105C42.7872 55.7903 39.9266 57.8677 36.8805 57.8677C33.8344 57.8677 30.9738 55.7903 28.8428 52.2105ZM27.8305 52.8131C30.0726 56.5795 33.2534 59.0458 36.8805 59.0458C40.5076 59.0458 43.6883 56.5795 45.9305 52.8131C48.18 49.0343 49.5523 43.852 49.5523 38.1595C49.5523 32.467 48.18 27.2848 45.9305 23.5059C43.6883 19.7395 40.5076 17.2733 36.8805 17.2733C33.2534 17.2733 30.0726 19.7395 27.8305 23.5059C25.5809 27.2848 24.2086 32.467 24.2086 38.1595C24.2086 43.852 25.5809 49.0343 27.8305 52.8131Z" fill="#0D1710"/>
<path id="Vector_5" d="M68.4538 18.6291C75.127 18.6291 80.5367 27.7165 80.5367 38.9263C80.5367 50.1362 75.127 59.2235 68.4538 59.2235C61.7806 59.2235 56.371 50.1362 56.371 38.9263C56.371 27.7165 61.7806 18.6291 68.4538 18.6291Z" fill="#0D1710"/>
<path id="Vector (Stroke)_5" fill-rule="evenodd" clip-rule="evenodd" d="M60.4161 52.9773C58.2925 49.41 56.96 44.4436 56.96 38.9263C56.96 33.409 58.2925 28.4426 60.4161 24.8753C62.5471 21.2955 65.4077 19.2181 68.4538 19.2181C71.4999 19.2181 74.3605 21.2955 76.4915 24.8753C78.6151 28.4426 79.9476 33.409 79.9476 38.9263C79.9476 44.4436 78.6151 49.41 76.4915 52.9773C74.3605 56.557 71.4999 58.6345 68.4538 58.6345C65.4077 58.6345 62.5471 56.557 60.4161 52.9773ZM59.4038 53.5799C61.6459 57.3463 64.8267 59.8125 68.4538 59.8125C72.0809 59.8125 75.2616 57.3463 77.5038 53.5799C79.7533 49.801 81.1257 44.6188 81.1257 38.9263C81.1257 33.2338 79.7533 28.0516 77.5038 24.2727C75.2616 20.5063 72.0809 18.04 68.4538 18.04C64.8267 18.04 61.6459 20.5063 59.4038 24.2727C57.1543 28.0516 55.7819 33.2338 55.7819 38.9263C55.7819 44.6188 57.1543 49.801 59.4038 53.5799Z" fill="#0D1710"/>
</g>
</g>
</g>
</g>
</g>
<defs>
<clipPath id="clip0_3_2">
<rect width="1440" height="1947" fill="white" transform="translate(-454 -678)"/>
</clipPath>
</defs>
</svg>
