<svg width="87" height="79" viewBox="0 0 87 79" fill="none" xmlns="http://www.w3.org/2000/svg">
<g id="yeux">
<path id="Vector" d="M58.6532 72.2212C52.9148 72.2727 47.6688 69.0574 43.7021 63.7526C39.831 69.1277 34.6435 72.4364 28.9178 72.4877C16.7667 72.5966 6.7872 58.0301 6.62514 39.9442C6.46308 21.8584 16.1799 7.11538 28.3311 7.0065C34.0695 6.95508 39.3154 10.1703 43.2695 15.4753C47.1405 10.1002 52.328 6.79147 58.0664 6.74005C70.2176 6.63117 80.197 21.1977 80.3591 39.2835C80.5212 57.3694 70.817 72.1122 58.6532 72.2212Z" fill="white"/>
<path id="Vector (Stroke)" fill-rule="evenodd" clip-rule="evenodd" d="M43.7798 72.413C47.9297 75.9291 52.9992 78.1624 58.7059 78.1112C67.3466 78.0338 74.4172 72.7623 79.0472 65.734C83.7006 58.6702 86.3391 49.2817 86.2491 39.2307C86.159 29.1782 83.3486 19.8385 78.568 12.8599C73.8124 5.91781 66.649 0.772693 58.0136 0.850071C52.3088 0.90119 47.2815 3.22344 43.196 6.81137C39.0498 3.29605 33.9816 1.06541 28.2783 1.11652C19.6429 1.1939 12.5728 6.46656 7.9424 13.4928C3.28762 20.5559 0.645065 29.9444 0.735143 39.997C0.825221 50.0496 3.6356 59.3893 8.4162 66.3679C13.1718 73.31 20.3353 78.4551 28.9706 78.3777C34.6694 78.3266 39.6951 76.0022 43.7798 72.413ZM47.8035 68.1041C46.326 66.8851 44.9506 65.4224 43.702 63.7526C42.4835 65.4446 41.1345 66.9318 39.6794 68.1771C36.5118 70.8879 32.8412 72.4525 28.9178 72.4877C16.7667 72.5966 6.78719 58.0301 6.62513 39.9442C6.46307 21.8584 16.1799 7.11539 28.3311 7.00651C32.2611 6.9713 35.9601 8.46827 39.1714 11.1194C40.649 12.3393 42.0234 13.8035 43.2694 15.4753C44.4882 13.783 45.8374 12.2956 47.2933 11.0501C50.4615 8.33966 54.1347 6.77529 58.0664 6.74006C70.2175 6.63118 80.197 21.1977 80.3591 39.2835C80.5212 57.3694 70.817 72.1123 58.6531 72.2213C54.721 72.2565 51.0201 70.7579 47.8035 68.1041Z" fill="white"/>
<path id="Vector_2" d="M27.2348 6.72945C15.5449 6.72945 6.06838 21.5828 6.06838 39.9053C6.06838 58.2277 15.5449 73.0811 27.2348 73.0811C38.9247 73.0811 48.4012 58.2277 48.4012 39.9053C48.4012 21.5828 38.9247 6.72945 27.2348 6.72945Z" fill="white"/>
<path id="Vector (Stroke)_2" fill-rule="evenodd" clip-rule="evenodd" d="M41.2086 62.7305C44.9009 56.9432 47.2232 48.8765 47.2232 39.9052C47.2232 30.934 44.9009 22.8673 41.2086 17.08C37.5076 11.2792 32.5388 7.90749 27.2348 7.90749C21.9309 7.90749 16.9621 11.2792 13.2611 17.08C9.56876 22.8673 7.24648 30.934 7.24648 39.9052C7.24648 48.8765 9.56876 56.9432 13.2611 62.7305C16.9621 68.5313 21.9309 71.903 27.2348 71.903C32.5388 71.903 37.5076 68.5313 41.2086 62.7305ZM43.1949 63.9977C39.2351 70.2041 33.6208 74.2591 27.2348 74.2591C20.8489 74.2591 15.2345 70.2041 11.2748 63.9977C7.30638 57.7777 4.89039 49.2565 4.89039 39.9052C4.89039 30.554 7.30638 22.0328 11.2748 15.8128C15.2345 9.60638 20.8489 5.5514 27.2348 5.5514C33.6208 5.5514 39.2351 9.60638 43.1949 15.8128C47.1633 22.0328 49.5793 30.554 49.5793 39.9052C49.5793 49.2565 47.1633 57.7777 43.1949 63.9977Z" fill="#0D1710"/>
<path id="Vector_3" d="M59.2243 5.9626C47.5344 5.9626 38.0579 20.8159 38.0579 39.1384C38.0579 57.4609 47.5344 72.3142 59.2243 72.3142C70.9142 72.3142 80.3907 57.4609 80.3907 39.1384C80.3907 20.8159 70.9142 5.9626 59.2243 5.9626Z" fill="white"/>
<path id="Vector (Stroke)_3" fill-rule="evenodd" clip-rule="evenodd" d="M73.1981 61.9636C76.8904 56.1764 79.2126 48.1097 79.2126 39.1384C79.2126 30.1672 76.8904 22.1005 73.1981 16.3132C69.4971 10.5124 64.5282 7.14068 59.2243 7.14068C53.9203 7.14068 48.9515 10.5124 45.2505 16.3132C41.5582 22.1005 39.2359 30.1672 39.2359 39.1384C39.2359 48.1097 41.5582 56.1764 45.2505 61.9636C48.9515 67.7645 53.9203 71.1362 59.2243 71.1362C64.5282 71.1362 69.4971 67.7645 73.1981 61.9636ZM75.1843 63.2309C71.2246 69.4373 65.6102 73.4923 59.2243 73.4923C52.8383 73.4923 47.224 69.4373 43.2642 63.2309C39.2958 57.0109 36.8798 48.4897 36.8798 39.1384C36.8798 29.7872 39.2958 21.266 43.2642 15.046C47.224 8.83956 52.8383 4.78458 59.2243 4.78458C65.6102 4.78458 71.2246 8.83956 75.1843 15.046C79.1527 21.266 81.5687 29.7872 81.5687 39.1384C81.5687 48.4897 79.1527 57.0109 75.1843 63.2309Z" fill="#0D1710"/>
<path id="Vector_4" d="M49.7123 18.4862C43.0391 18.4862 37.6294 27.5736 37.6294 38.7835C37.6294 49.9933 43.0391 59.0807 49.7123 59.0807C56.3854 59.0807 61.7951 49.9933 61.7951 38.7835C61.7951 27.5736 56.3854 18.4862 49.7123 18.4862Z" fill="#0D1710"/>
<path id="Vector (Stroke)_4" fill-rule="evenodd" clip-rule="evenodd" d="M57.7501 52.8345C59.8737 49.2672 61.2062 44.3008 61.2062 38.7835C61.2062 33.2661 59.8737 28.2997 57.7501 24.7325C55.6191 21.1527 52.7584 19.0753 49.7124 19.0753C46.6663 19.0753 43.8056 21.1527 41.6746 24.7325C39.551 28.2997 38.2185 33.2661 38.2185 38.7835C38.2185 44.3008 39.551 49.2672 41.6746 52.8345C43.8056 56.4142 46.6663 58.4917 49.7124 58.4917C52.7584 58.4917 55.6191 56.4142 57.7501 52.8345ZM58.7623 53.4371C56.5202 57.2035 53.3394 59.6697 49.7124 59.6697C46.0853 59.6697 42.9045 57.2035 40.6624 53.4371C38.4128 49.6582 37.0405 44.476 37.0405 38.7835C37.0405 33.0909 38.4128 27.9087 40.6624 24.1299C42.9045 20.3634 46.0853 17.8972 49.7124 17.8972C53.3394 17.8972 56.5202 20.3634 58.7623 24.1299C61.0119 27.9087 62.3842 33.0909 62.3842 38.7835C62.3842 44.476 61.0119 49.6582 58.7623 53.4371Z" fill="#0D1710"/>
<path id="Vector_5" d="M18.139 19.253C11.4658 19.253 6.05618 28.3404 6.05618 39.5502C6.05618 50.7601 11.4658 59.8475 18.139 59.8475C24.8122 59.8475 30.2219 50.7601 30.2219 39.5502C30.2219 28.3404 24.8122 19.253 18.139 19.253Z" fill="#0D1710"/>
<path id="Vector (Stroke)_5" fill-rule="evenodd" clip-rule="evenodd" d="M26.1768 53.6012C28.3004 50.0339 29.6329 45.0676 29.6329 39.5502C29.6329 34.0329 28.3004 29.0665 26.1768 25.4992C24.0458 21.9195 21.1851 19.842 18.139 19.842C15.093 19.842 12.2323 21.9195 10.1013 25.4992C7.97774 29.0665 6.64523 34.0329 6.64523 39.5502C6.64523 45.0676 7.97774 50.0339 10.1013 53.6012C12.2323 57.181 15.093 59.2584 18.139 59.2584C21.1851 59.2584 24.0458 57.181 26.1768 53.6012ZM27.189 54.2038C24.9469 57.9702 21.7661 60.4365 18.139 60.4365C14.512 60.4365 11.3312 57.9702 9.08906 54.2038C6.83951 50.4249 5.46718 45.2427 5.46718 39.5502C5.46718 33.8577 6.83951 28.6755 9.08906 24.8966C11.3312 21.1302 14.512 18.664 18.139 18.664C21.7661 18.664 24.9469 21.1302 27.189 24.8966C29.4386 28.6755 30.8109 33.8577 30.8109 39.5502C30.8109 45.2427 29.4386 50.4249 27.189 54.2038Z" fill="#0D1710"/>
</g>
</svg>
