<svg width="17" height="17" viewBox="0 0 17 17" fill="none" xmlns="http://www.w3.org/2000/svg">
<path d="M1.6665 1.1667L1.99984 1.16666V1.16666C2.97543 1.16668 3.8219 1.84007 4.04127 2.79068L4.12804 3.1667M4.12804 3.1667L4.80789 6.11269C5.11445 7.44114 5.26774 8.10537 5.62896 8.60079C5.9476 9.03782 6.37846 9.38058 6.87595 9.5928C7.43991 9.83336 8.1216 9.83336 9.48496 9.83336H11.1756C12.0594 9.83336 12.5013 9.83336 12.8875 9.72846C13.6187 9.52983 14.2477 9.06183 14.6481 8.41849C14.8596 8.07872 14.9865 7.65546 15.2405 6.80894V6.80894C15.5289 5.84761 15.6731 5.36694 15.6362 4.97774C15.5658 4.2358 15.0886 3.59455 14.3982 3.31391C14.0361 3.1667 13.5342 3.1667 12.5306 3.1667H4.12804ZM10.3332 9.83332H4.99984C4.26346 9.83332 3.6665 10.4303 3.6665 11.1667V11.1667C3.6665 11.903 4.26346 12.5 4.99984 12.5H14.9998M8.33317 13.8333C8.33317 14.5697 7.73622 15.1667 6.99984 15.1667C6.26346 15.1667 5.6665 14.5697 5.6665 13.8333C5.6665 13.0969 6.26346 12.5 6.99984 12.5C7.73622 12.5 8.33317 13.0969 8.33317 13.8333ZM13.6665 13.8333C13.6665 14.5697 13.0695 15.1667 12.3332 15.1667C11.5968 15.1667 10.9998 14.5697 10.9998 13.8333C10.9998 13.0969 11.5968 12.5 12.3332 12.5C13.0695 12.5 13.6665 13.0969 13.6665 13.8333Z" stroke="white" stroke-width="1.5" stroke-linecap="round" stroke-linejoin="round"/>
</svg>
